<?xml version="1.0" standalone="no"?>
<!DOCTYPE svg PUBLIC "-//W3C//DTD SVG 1.1//EN" "http://www.w3.org/Graphics/SVG/1.1/DTD/svg11.dtd" >
<svg xmlns="http://www.w3.org/2000/svg">
<metadata></metadata>
<defs>
<font id="PhilosopherItalic" horiz-adv-x="1075" >
<font-face units-per-em="2048" ascent="1638" descent="-410" />
<missing-glyph horiz-adv-x="512" />
<glyph horiz-adv-x="0" />
<glyph horiz-adv-x="2048" />
<glyph unicode="&#xd;" horiz-adv-x="512" />
<glyph unicode=" "  horiz-adv-x="512" />
<glyph unicode="&#x09;" horiz-adv-x="512" />
<glyph unicode="&#xa0;" horiz-adv-x="512" />
<glyph unicode="!" horiz-adv-x="489" d="M47 55.5q0 32.5 10.5 55t28.5 41t41.5 30t57.5 11.5t60.5 -27t26.5 -59t-11 -54t-29 -41q-42 -41 -88 -41t-71.5 26t-25.5 58.5zM141 317l146 1035h192l-219 -1035h-119z" />
<glyph unicode="&#x22;" horiz-adv-x="753" d="M209 799l37 553h205l-160 -553h-82zM537 799l36 553h205l-160 -553h-81z" />
<glyph unicode="#" horiz-adv-x="1370" d="M27 358l22 123h295l139 369h-245l20 123h272l160 409h133l-159 -409h297l159 409h133l-159 -409h280l-20 -123h-307l-142 -369h260l-22 -123h-287l-133 -358h-133l133 358h-297l-133 -358h-133l133 358h-266zM475 481h299l139 369h-297z" />
<glyph unicode="$" horiz-adv-x="1073" d="M37 190q0 37 41 244h37v-8q0 -182 68.5 -271t209.5 -106l96 553l-127 86q-98 66 -141 129.5t-43 152.5t35 163.5t97 128.5q126 113 319 127l20 116h82l-20 -121q134 -13 229 -68q104 -61 104 -149l-40 -243h-37v8q0 180 -68 267t-203 104l-92 -519l156 -102 q100 -66 150.5 -128t50.5 -154t-41 -172.5t-110 -137.5q-141 -117 -349 -125l-25 -129h-82l25 133q-140 12 -239 72q-103 62 -103 149zM350 1059q0 -72 47 -120t133 -105l84 473q-106 -9 -180 -73q-84 -73 -84 -175zM475 47q113 4 198 69q95 71 95 183q0 72 -46 126 t-134 114l-25 14z" />
<glyph unicode="%" horiz-adv-x="1384" d="M51 0l1170 1352h153l-1169 -1352h-154zM154 1008q0 86 26.5 148.5t73.5 107.5q102 98 238.5 98t202 -56.5t65.5 -143.5t-26.5 -148.5t-73.5 -106.5q-104 -98 -239.5 -98t-201 56.5t-65.5 142.5zM276 1024q1 -143 144 -143q99 0 160 81q57 75 57 183q0 145 -143 145 q-101 0 -162 -82q-56 -76 -56 -184zM664 205q0 142 100 241q99 97 237 97t203.5 -56.5t65.5 -143.5t-26.5 -148.5t-73.5 -106.5q-101 -98 -237 -98q-269 0 -269 215zM786 207q1 -146 146 -146q101 0 160 82q55 77 55 185q0 143 -143 143q-101 0 -162 -82q-56 -76 -56 -182z " />
<glyph unicode="&#x26;" horiz-adv-x="1257" d="M31 229q0 189 235 351q66 45 131 88q-82 82 -123 200q-22 62 -22 142t33.5 150.5t92.5 122.5q123 110 285 110t237 -64.5t75 -158t-34 -160t-88 -122.5q-85 -90 -255 -192l334 -450q151 139 229 256l35 -31q-101 -154 -229 -272l147 -199h-225l-68 88 q-197 -129 -400.5 -129t-296.5 76.5t-93 193.5zM227 229q1 -198 234 -198q172 0 325 104l-340 461q-219 -161 -219 -367zM449 1020q0 -85 45 -173q26 -50 55 -79q115 86 161 147q89 120 89 240q0 125 -83 157q-23 9 -61 9t-79 -27.5t-69 -71.5q-58 -91 -58 -202z" />
<glyph unicode="'" horiz-adv-x="425" d="M209 799l37 553h205l-160 -553h-82z" />
<glyph unicode="(" horiz-adv-x="634" d="M39 322.5q0 148.5 50 307t140 296.5q164 253 502 487l17 -31q-256 -200 -398 -518q-135 -307 -135 -657q0 -382 217 -606l-26 -31q-274 237 -342 507q-25 97 -25 245.5z" />
<glyph unicode=")" horiz-adv-x="634" d="M-139 -399q251 198 395 519q135 301 135 665.5t-217 596.5l25 31q176 -152 272 -324t96 -375.5t-50 -362t-141 -297.5q-171 -260 -501 -484z" />
<glyph unicode="*" horiz-adv-x="870" d="M156 911l315 103l-278 102l106 144l197 -216l-7 308h164l-116 -308l274 216l57 -144l-315 -102l278 -103l-106 -143l-199 215l9 -307h-164l114 307l-272 -215z" />
<glyph unicode="+" horiz-adv-x="1083" d="M78 614l22 123h410l72 410h123l-72 -410h409l-22 -123h-410l-71 -409h-123l71 409h-409z" />
<glyph unicode="," horiz-adv-x="493" d="M-20 -287q183 113 213 277l-66 -21q-41 0 -67.5 27t-26.5 73.5t43 91t102 44.5q113 0 113 -107q0 -124 -90 -242q-80 -104 -207 -173z" />
<glyph unicode="-" horiz-adv-x="796" d="M121 471l24 143h523l-25 -143h-522z" />
<glyph unicode="." horiz-adv-x="460" d="M35 55.5q0 32.5 10 56t28.5 42t42 30t58.5 11.5t60.5 -27t25.5 -71t-40 -85t-87 -41t-72.5 26t-25.5 58.5z" />
<glyph unicode="/" horiz-adv-x="911" d="M-47 0l895 1352h149l-895 -1352h-149z" />
<glyph unicode="0" horiz-adv-x="1202" d="M102 412q0 344 138 628q102 213 287 306q95 47 218 47q392 0 392 -455q0 -346 -137 -628q-105 -214 -288 -304q-96 -47 -218 -47q-209 0 -300.5 121t-91.5 332zM295 360.5q0 -177.5 49 -248.5t164 -71q204 0 330 344q108 297 108 637q0 147 -49 218t-176 71t-235 -168 q-89 -140 -143 -387q-48 -218 -48 -395.5z" />
<glyph unicode="1" horiz-adv-x="626" d="M115 1065l368 287h103l-238 -1352h-184l201 1147l-222 -129z" />
<glyph unicode="2" horiz-adv-x="1089" d="M-10 0l16 102q127 115 238.5 205t204 167t165 145.5t122.5 138.5q104 147 104 323q0 117 -63.5 173.5t-172.5 56.5t-216 -89t-169 -259h-41q14 78 32.5 148.5t57.5 110.5t86 70.5t102 51.5q126 49 209.5 49t145 -11.5t113.5 -43.5q120 -74 120 -240q0 -275 -327 -571 q-137 -124 -313.5 -253t-256.5 -192h461q257 0 293 215h41l-22 -133q-14 -73 -45 -104q-60 -60 -158 -60h-727z" />
<glyph unicode="3" horiz-adv-x="1087" d="M14 178l39 37q123 -174 348 -174q162 0 269 125q104 121 104 289q0 111 -70 182q-58 59 -158 59t-239 -30l-39 86l647 518h-378q-255 0 -295 -215h-41l24 133q14 73 45 104q60 60 158 60h651l-14 -82l-639 -512q71 20 150 20t141.5 -12t121 -46t100.5 -96.5t42 -164.5 t-42 -194.5t-115 -160.5q-156 -145 -386 -145q-279 0 -424 219z" />
<glyph unicode="4" horiz-adv-x="1124" d="M0 348l16 82l838 922h164l-162 -922h184l-16 -82h-184l-60 -348h-184l59 348h-655zM139 430h533l127 725z" />
<glyph unicode="5" horiz-adv-x="1091" d="M18 174l45 35q123 -168 343 -168q170 0 275 125q99 118 99 295q0 235 -280 235q-86 0 -176 -10l-82 -10l-68 82l125 594h768l-14 -82h-600l-107 -502q155 10 218 10t138.5 -13t137.5 -48q145 -81 145 -254q0 -220 -169 -365q-160 -139 -394 -139q-154 0 -245 57.5 t-159 157.5z" />
<glyph unicode="6" horiz-adv-x="1101" d="M100 395q0 364 142 645q107 214 296 306q99 47 214 47q167 0 321 -62l-16 -41q-123 21 -239.5 21t-190.5 -37t-131 -106q-113 -137 -154 -380q145 93 323.5 93t259.5 -89.5t81 -218.5t-36 -235.5t-103.5 -190.5t-167 -136t-226.5 -52q-193 0 -283 109.5t-90 326.5z M293 375q0 -334 194 -334q82 0 143.5 53t101.5 131q81 158 81 326q0 248 -223 248q-78 0 -139.5 -28t-124.5 -75q-33 -198 -33 -321z" />
<glyph unicode="7" horiz-adv-x="976" d="M137 1055l25 133q14 73 45 104q60 60 158 60h716l-14 -82l-735 -1270h-185l736 1270h-410q-253 0 -295 -215h-41z" />
<glyph unicode="8" horiz-adv-x="1138" d="M45 246q0 78 32 143.5t86 119.5q94 94 283 177q-102 64 -142 112q-77 92 -77 190.5t39 174.5t106 127q134 103 341 103q260 0 339 -137q29 -49 29 -121q0 -250 -321 -408q45 -31 89 -62.5t78 -71.5q77 -91 77 -198.5t-46.5 -188.5t-121.5 -136q-151 -111 -375 -111 q-289 0 -383 155q-33 54 -33 132zM240 257q0 -62 18 -101t51 -64.5t76 -38t97 -12.5t111.5 20.5t103.5 59.5q102 86 102 215q0 140 -166 246q-49 32 -103 63q-200 -92 -266 -265q-24 -61 -24 -123zM432 1053q0 -149 246 -275q90 59 149.5 146.5t59.5 205.5q0 95 -61 142 q-49 39 -114 39q-121 0 -200.5 -73t-79.5 -185z" />
<glyph unicode="9" horiz-adv-x="1103" d="M68 20l18 41q112 -20 233 -20t195 37t130 106q112 137 155 379q-139 -92 -320.5 -92t-262.5 88t-81 240q0 231 139 405q68 84 167.5 136.5t226.5 52.5q193 0 282.5 -111t89.5 -330q0 -363 -141 -644q-108 -215 -298 -303q-99 -46 -212.5 -46t-187.5 19.5t-133 41.5z M328 799q0 -246 223 -246q132 0 264 102q33 198 33 349t-52.5 229t-138.5 78t-147 -53.5t-101 -131.5q-81 -159 -81 -327z" />
<glyph unicode=":" horiz-adv-x="497" d="M49 55.5q0 32.5 10.5 56t28.5 42t41.5 30t58.5 11.5t61.5 -27t26.5 -59t-11 -55t-29 -42q-42 -41 -89 -41t-72.5 26t-25.5 58.5zM182 807q0 33 11.5 55.5t30 41t41.5 29.5t58 11t60 -25.5t25 -70.5t-38 -85t-86.5 -40t-75 25.5t-26.5 58.5z" />
<glyph unicode=";" horiz-adv-x="530" d="M-6 -287q90 61 144.5 124t72.5 163q-39 -31 -79 -31t-61.5 25.5t-21.5 73.5t46 92.5t101 44.5q107 0 107 -117q0 -120 -89 -232q-68 -87 -204 -171zM203 819q0 45 39 85t87 40t74.5 -26.5t26.5 -58.5t-11 -54.5t-29 -39.5q-44 -40 -89 -40t-71.5 24.5t-26.5 69.5z" />
<glyph unicode="&#x3c;" horiz-adv-x="1269" d="M78 655l10 62l1147 461l-23 -123l-917 -369l788 -369l-22 -122z" />
<glyph unicode="=" horiz-adv-x="1355" d="M115 430l20 123h1075l-20 -123h-1075zM178 799l23 123h1075l-23 -123h-1075z" />
<glyph unicode="&#x3e;" horiz-adv-x="1269" d="M76 195l22 122l920 369l-791 369l23 123l983 -461l-10 -62z" />
<glyph unicode="?" horiz-adv-x="985" d="M133 963q14 78 32.5 148.5t58.5 110.5t87 70.5t103 51.5q125 49 208.5 49t145 -11.5t114.5 -43.5q119 -74 119 -240q0 -245 -229 -423q-162 -127 -222.5 -200.5t-86.5 -155.5h-82q29 132 140 271q46 57 95.5 110.5t89.5 110.5q91 132 91 259.5t-63.5 184t-172.5 56.5 t-217 -89t-170 -259h-41zM268 68.5q0 43.5 38 86t87 42.5t76 -27t27 -60t-11.5 -56t-30.5 -40q-42 -41 -89.5 -41t-72 26t-24.5 69.5z" />
<glyph unicode="@" horiz-adv-x="1751" d="M51 287q0 273 113 526q116 260 328 414q229 166 532 166q309 0 488 -167q182 -169 182 -474q0 -274 -112 -482q-86 -161 -230 -226q-76 -34 -167 -34t-135 28t-67 75h-10q-107 -113 -285 -113q-153 0 -233 102q-74 96 -74 252q0 98 31.5 212t93 211t153.5 162t207 65 q177 0 244 -113h10l88 92h103l-135 -768q-2 -10 -2 -31q0 -92 81 -92q116 0 203 123q107 151 142 407q10 68 10 119q0 276 -162 425q-159 145 -438 145q-211 0 -374 -86t-274.5 -228.5t-170 -325t-58.5 -351t42 -278.5t119 -182q156 -147 435 -147q383 0 666 174l30 -61 q-315 -195 -710 -195q-311 0 -484 167q-180 174 -180 489zM573 340q0 -113 42 -185.5t139 -72.5q115 0 196 87q23 24 41 46l103 584q-53 123 -172 123q-92 0 -159 -61.5t-109 -150.5q-81 -172 -81 -370z" />
<glyph unicode="A" horiz-adv-x="1298" d="M-47 0l811 1352h61l258 -1096q24 -116 55 -151t61 -47.5t71 -16.5l-6 -41q-37 -10 -78 -10t-85 8t-87 36q-103 65 -135 222l-29 133h-574l-231 -389h-92zM322 471h501l-141 594z" />
<glyph unicode="B" horiz-adv-x="1277" d="M121 0l194 1106q9 56 9 98.5t-25 74.5t-92 32h-41l8 41h533q495 0 495 -291q0 -194 -200 -309q-58 -33 -125 -56q162 -27 225 -92t63 -174t-54 -193.5t-143 -136.5q-169 -100 -438 -100h-409zM322 100q90 -28 179 -28t168 19.5t143 61.5q144 93 144 265q0 227 -344 227 h-194zM432 727h195q143 0 255 85q126 95 126 237q0 110 -106 175q-90 56 -218 56q-76 0 -158 -20z" />
<glyph unicode="C" horiz-adv-x="1363" d="M92 502q0 147 58.5 304t162 288t245.5 215t312 84q161 0 292 -51q73 -29 123 -81.5t50 -116t-24 -222.5h-41q-8 389 -352 389q-158 0 -274 -74t-193.5 -191.5t-115.5 -263t-38 -263t21.5 -199.5t69.5 -144q106 -135 306 -135q154 0 278 73.5t234 213.5l35 -31 q-192 -272 -446 -321q-84 -17 -194 -17t-207 41t-164 112q-138 146 -138 390z" />
<glyph unicode="D" horiz-adv-x="1466" d="M121 0l194 1106q9 56 9 98.5t-25 74.5t-92 32h-41l8 41h537q347 0 527 -140q173 -134 173 -383q0 -178 -66.5 -330.5t-184.5 -263t-280.5 -173t-353.5 -62.5h-405zM328 98q110 -26 228.5 -26t240 63.5t207.5 168t134 238.5t48 256.5t-31 209t-89 146.5q-122 126 -325 126 q-95 0 -211 -33z" />
<glyph unicode="E" horiz-adv-x="1214" d="M123 0q49 285 84 482.5t57.5 327.5t34.5 203.5t19 111.5q8 50 8 86t-25 68t-92 32h-41l8 41h873q88 0 118.5 -35t30.5 -69t-31 -214h-41q6 33 7 62q0 174 -222 174h-381l-94 -533h553l-14 -82h-553l-100 -573h358q139 0 229 51t158 174l39 -10l-107 -195 q-54 -102 -170 -102h-706z" />
<glyph unicode="F" horiz-adv-x="1087" d="M123 0q49 285 84 482.5t57.5 327.5t34.5 203.5t19 111.5q8 50 8 86t-25 68t-92 32h-41l8 41h817q88 0 119 -35t31 -84q0 -1 -31 -199h-41q6 33 6 62q0 92 -57 133t-164 41h-326l-96 -543h463l-14 -82h-463l-113 -645h-184z" />
<glyph unicode="G" horiz-adv-x="1474" d="M100 551q0 150 55.5 300t157 271t243.5 196t314 75q302 0 432 -129q54 -52 54 -128t-21 -184h-41q-11 359 -376 359q-158 0 -275 -77t-193.5 -196.5t-114.5 -266t-38 -279t30.5 -216t84.5 -136.5q101 -99 282 -99q186 0 330 72l63 356q20 107 83 162q89 78 298 78l-8 -41 q-92 0 -134 -52q-37 -45 -54 -143l-68 -385q-233 -129 -524 -129q-265 0 -425 169q-155 163 -155 423z" />
<glyph unicode="H" horiz-adv-x="1425" d="M121 0l194 1106q9 56 9 98.5t-25 74.5t-92 32h-41l8 41h184q82 0 118 -23.5t36 -86t-12 -136.5l-66 -369h615l108 615h184l-194 -1106q-10 -57 -10 -101t25.5 -74t90.5 -30h41l-6 -41h-184q-82 0 -119 24.5t-37 100.5q0 42 15 121l71 409h-614l-115 -655h-184z" />
<glyph unicode="I" horiz-adv-x="591" d="M115 125q0 35 14 121l195 1106h184l-195 -1106q-10 -57 -10 -101t25.5 -74t91.5 -30h41l-6 -41h-185q-82 0 -118.5 24.5t-36.5 100.5z" />
<glyph unicode="J" horiz-adv-x="540" d="M-164 -281l8 41q98 0 164 106.5t98 293.5l211 1192h185l-211 -1192q-42 -240 -137 -336q-104 -105 -318 -105z" />
<glyph unicode="K" horiz-adv-x="1388" d="M123 0q49 285 84 482.5t57.5 327.5t34.5 203.5t19 111.5q8 50 8 86t-25 68t-92 32h-41l8 41h184q82 0 119 -24.5t37 -100.5q0 -28 -11 -92t-27.5 -162.5t-47.5 -265.5l506 430q45 39 88 76.5t89 68.5q104 70 210 70h102l-10 -52q-90 0 -140 -22q-90 -41 -181 -121 l-469 -399l383 -492q68 -88 150.5 -152.5t158.5 -74.5l-6 -39q-63 -20 -121.5 -20t-104 9t-94.5 37q-108 60 -215 199l-350 451l-119 -676h-184z" />
<glyph unicode="L" horiz-adv-x="1140" d="M123 0q49 285 84 482.5t57.5 327.5t34.5 203.5t19 111.5q8 50 8 86t-25 68t-92 32h-41l8 41h184q82 0 118 -23.5t36 -87.5t-192 -1159h727l-15 -82h-911z" />
<glyph unicode="M" horiz-adv-x="1755" d="M78 0l237 1352h195l303 -1065l670 1065h184l-178 -1004q-18 -98 -19 -176q0 -223 144 -223l-6 -41q-176 0 -249 63.5t-73 204.5q0 74 19 172l139 789l-711 -1137h-41l-330 1157l-202 -1157h-82z" />
<glyph unicode="N" horiz-adv-x="1406" d="M127 0q49 283 84 477.5t56.5 323.5t33.5 200.5t19 107.5q8 47 8 62q0 66 -34 103t-122 37h-20l8 41h133q178 0 254 -123l561 -891l178 1014h82l-242 -1372h-41l-688 1095l-188 -1075h-82z" />
<glyph unicode="O" horiz-adv-x="1458" d="M98 530.5q0 137.5 54.5 293t155 282.5t243.5 207t294.5 80t250 -42t164.5 -117q137 -154 137 -400q0 -154 -54.5 -309.5t-156 -281.5t-244.5 -205t-295.5 -79t-250 42t-163 115.5t-100.5 175t-35 239zM299 473q0 -205 86 -318.5t258 -113.5t311 143q176 182 228 514 q14 93 14 176q0 205 -87 321t-251 116q-184 0 -320 -143q-173 -181 -224 -517q-15 -94 -15 -178z" />
<glyph unicode="P" horiz-adv-x="1136" d="M123 0q49 285 84 482.5t57.5 327.5t34.5 203.5t19 111.5q8 50 8 86t-25 68t-92 32h-41l8 41h533q288 0 400 -150q48 -65 48 -173t-43 -194.5t-114 -150.5q-149 -131 -371 -131h-226l-96 -553h-184zM420 645q72 -20 138 -20t132 23.5t124 72.5q136 115 136 301 q0 128 -95 200q-75 58 -169 58q-76 0 -158 -20z" />
<glyph unicode="Q" horiz-adv-x="1456" d="M98 493.5q0 174.5 54.5 330t155 282.5t243.5 207t294.5 80t250 -42t164.5 -116q135 -153 135 -397q0 -289 -157 -522q-168 -251 -445 -334q19 -147 157 -258q129 -103 267 -103l-9 -41q-376 0 -607 210q-87 79 -161 196q-166 51 -254 192t-88 315.5zM299 473 q0 -205 86 -318.5t258 -113.5t311 143q176 182 228 514q14 93 14 176q0 205 -87 321t-251 116q-184 0 -320 -143q-173 -181 -224 -517q-15 -94 -15 -178z" />
<glyph unicode="R" horiz-adv-x="1218" d="M123 0q49 285 84 482.5t57.5 327.5t34.5 203.5t19 111.5q8 50 8 86t-25 68t-92 32h-41l8 41h533q175 0 265.5 -41t138.5 -99.5t48 -149.5t-29.5 -159.5t-83.5 -120.5q-107 -106 -282 -147l152 -359q74 -182 166 -218q32 -13 69 -17l-6 -41q-40 -20 -110 -20t-113 14 t-81 49q-70 64 -141 233l-143 349h-143l-109 -625h-184zM432 717q76 -21 147 -21t137 26t120 72q120 101 120 244q0 120 -96 186q-80 56 -174 56q-76 0 -158 -20z" />
<glyph unicode="S" horiz-adv-x="1093" d="M47 190q0 24 41 244h37v-14q0 -199 87 -286t257 -87q118 0 208 65q101 72 101 187q0 72 -46 126t-134 114l-225 149q-98 66 -141.5 129.5t-43.5 152.5t37 165.5t99 132.5q134 121 329 121q150 0 273 -59q129 -61 129 -163l-41 -243h-37v14q0 199 -84 284t-254 85 q-108 0 -189 -68q-90 -75 -90 -178q0 -72 48.5 -121t136.5 -109l225 -149q100 -66 150.5 -128t50.5 -153t-41 -172.5t-110 -139.5q-146 -124 -347 -124q-167 0 -291 61q-135 65 -135 164z" />
<glyph unicode="T" horiz-adv-x="1198" d="M123 1034l27 154q14 74 45 105q59 59 157 59h953l-15 -82h-461l-223 -1270h-184l223 1270h-184q-255 0 -297 -236h-41z" />
<glyph unicode="U" horiz-adv-x="1406" d="M145 1311l9 41h184q82 0 119 -24.5t37 -100.5q0 -29 -15 -121l-104 -584q-17 -96 -17 -160q0 -143 69 -222t230 -79q229 0 347 127q112 118 161 396l135 768h82l-135 -768q-58 -319 -184 -453q-143 -151 -445 -151q-238 0 -338 96t-100 286q0 79 23 222l92 522 q8 50 8 95.5t-24.5 77.5t-92.5 32h-41z" />
<glyph unicode="V" horiz-adv-x="1308" d="M66 1327l6 41l71 4q103 0 159 -34.5t93 -86t58 -139.5l204 -825q72 119 119 194.5t78 126.5t51.5 86t41 69t45 75t62.5 106.5t96 162.5t146 245h99l-830 -1372h-37l-276 1132q-29 118 -57 152q-46 55 -129 63z" />
<glyph unicode="W" horiz-adv-x="1775" d="M61 1327l7 41l71 4q115 0 168 -34q106 -66 135 -226l136 -790l333 649l-24 141q-21 119 -50.5 152.5t-60.5 46t-76 16.5l7 41l71 4q115 0 168 -34q106 -66 135 -226l136 -790l532 1030h88l-711 -1372h-41l-151 862l-447 -862h-41l-198 1132q-21 119 -50.5 152.5t-60.5 46 t-76 16.5z" />
<glyph unicode="X" horiz-adv-x="1357" d="M-18 0l628 666l-213 419q-45 97 -86 138q-81 81 -202 88l8 41h245q123 0 206 -147q22 -40 40 -79l152 -307l504 533h102l-567 -604l241 -482q109 -213 258 -225l-6 -41h-215q-124 0 -207 146q-22 40 -41 79l-180 369l-565 -594h-102z" />
<glyph unicode="Y" horiz-adv-x="1288" d="M72 1311l8 41h184q145 0 226 -143q22 -40 40 -83l218 -460l548 686h93l-617 -779l-100 -573h-185l99 559l-256 526q-57 111 -92 148q-67 71 -166 78z" />
<glyph unicode="Z" horiz-adv-x="1216" d="M-45 0l6 41l1067 1229h-491q-255 0 -297 -236h-41l26 154q14 73 45 104q60 60 158 60h891l-1094 -1270h840l-14 -82h-1096z" />
<glyph unicode="[" horiz-adv-x="649" d="M-16 -410l317 1803h440l-14 -82h-276l-289 -1639h276l-14 -82h-440z" />
<glyph unicode="\" horiz-adv-x="901" d="M184 1352h150l420 -1352h-150z" />
<glyph unicode="]" horiz-adv-x="649" d="M-117 -410l15 82h274l289 1639h-277l15 82h440l-317 -1803h-439z" />
<glyph unicode="^" horiz-adv-x="1003" d="M78 676l565 717h41l315 -717h-137l-231 526l-416 -526h-137z" />
<glyph unicode="_" horiz-adv-x="880" d="M-84 -123l23 123h819l-23 -123h-819z" />
<glyph unicode="`" horiz-adv-x="409" d="M203 1393h205l51 -410h-103z" />
<glyph unicode="a" d="M66 334q0 236 122 421q139 209 371 228q106 0 159.5 -37t76.5 -76h10l88 93h102l-168 -963h-102l-57 92h-11q-37 -39 -104.5 -75.5t-167 -36.5t-155.5 27.5t-93 74.5q-71 90 -71 252zM260 322q0 -113 41 -187t135 -74t146.5 38t91.5 85l106 594q-31 59 -55 81 q-47 42 -130 42t-148.5 -61.5t-107.5 -150.5q-79 -167 -79 -367z" />
<glyph unicode="b" horiz-adv-x="1077" d="M51 0q49 285 84 482.5t57.5 327.5t35 203.5t18.5 111.5q8 51 8 86.5t-24.5 67.5t-92.5 32h-41l8 41h185q82 0 117.5 -23.5t35.5 -86t-12 -136.5l-33 -184q130 61 239.5 61t168.5 -26.5t98 -74.5q76 -94 76 -257q0 -225 -115 -419q-135 -226 -356 -226q-115 0 -174.5 36.5 t-83.5 75.5h-10l-86 -92h-103zM266 184q23 -47 67 -85t115.5 -38t118.5 29t83 76t61.5 108.5t42.5 125.5q30 117 30 237q0 264 -196 264q-69 0 -205 -61z" />
<glyph unicode="c" horiz-adv-x="991" d="M66 356q0 244 144 425q161 202 406 202q129 0 187.5 -18.5t92.5 -50t34 -76.5q0 -62 -23 -179l-2 -14h-41q2 12 2 23v22q0 109 -62.5 160t-161.5 51t-171 -53t-119 -134q-92 -159 -92 -364q0 -129 56.5 -209t172.5 -80t190.5 43t141.5 121l35 -30q-90 -117 -191.5 -166 t-212 -49t-181 28.5t-116.5 78.5q-89 97 -89 269z" />
<glyph unicode="d" d="M68 338q0 100 29.5 214t90 210t152.5 158.5t219 62.5t246 -61q41 240 41 282.5t-24.5 74.5t-92.5 32h-41l8 41h185q82 0 117.5 -23.5t35.5 -101t-207 -1227.5h-102l-57 92h-11q-37 -39 -104.5 -75.5t-167 -36.5t-154.5 26.5t-92 74.5q-71 92 -71 257zM262 322 q0 -261 176 -261q92 0 144.5 38t91.5 85l117 656q-114 61 -197.5 61t-150 -60.5t-106.5 -148.5q-75 -165 -75 -370z" />
<glyph unicode="e" horiz-adv-x="997" d="M66 354q0 106 34.5 218t102 203t167 149.5t254 58.5t234.5 -67.5t80 -158.5t-36 -154.5t-96 -106.5q-122 -86 -300 -86h-246q-8 -46 -8 -84q0 -111 56.5 -188t161.5 -77t179 43t142 121l34 -30q-90 -117 -189 -166t-202.5 -49t-170 28.5t-110.5 78.5q-87 99 -87 267z M274 492h236q98 4 165.5 73.5t67.5 179.5q0 72 -42 114t-119 42q-109 0 -191 -108.5t-117 -300.5z" />
<glyph unicode="f" horiz-adv-x="696" d="M-174 -389l8 41q191 0 262 399l146 830h-144l15 82h143l12 61q37 193 166 280q101 68 241 68t179 -30t57 -93l-69 -51q-45 92 -178 92q-70 0 -125.5 -57t-85.5 -209l-13 -61h287l-14 -82h-287l-145 -830q-41 -236 -139 -335q-102 -105 -316 -105z" />
<glyph unicode="g" horiz-adv-x="1073" d="M23 -195l45 31q41 -78 100 -121t172 -43t195.5 100.5t113.5 278.5l2 10q-135 -61 -241.5 -61t-166 27.5t-98.5 74.5q-75 92 -75 254q0 94 28.5 204t87 204t145.5 156.5t204 62.5t176 -37t82 -76h10l88 93h102l-159 -912q-36 -210 -162 -335q-129 -126 -310 -126 q-123 0 -206.5 49.5t-132.5 165.5zM262 344q0 -115 46 -188.5t153 -73.5q61 0 205 61l112 635q-23 45 -66.5 84t-129.5 39t-147.5 -59.5t-99.5 -145.5q-73 -165 -73 -352z" />
<glyph unicode="h" horiz-adv-x="1089" d="M51 0q49 285 84 482.5t57.5 327.5t35 203.5t18.5 111.5q8 51 8 86.5t-24.5 67.5t-92.5 32h-41l8 41h185q82 0 117.5 -23.5t35.5 -101.5q0 -46 -53 -346q123 102 285 102q293 0 293 -262q0 -59 -117 -721h-184q114 629 114 688t-15 97t-41 61q-49 45 -119 45 q-113 0 -232 -109l-137 -782h-185z" />
<glyph unicode="i" horiz-adv-x="514" d="M63 922l7 41h184q82 0 119 -25t37 -100q0 -32 -140 -838h-184q135 769 135 816q0 106 -117 106h-41zM260 1193q0 46 29.5 81t77 35t74 -31t26.5 -77t-29.5 -81t-77 -35t-74 31t-26.5 77z" />
<glyph unicode="j" horiz-adv-x="514" d="M-176 -389l8 41q191 0 262 399q31 174 52.5 297t36 205t21.5 130t11 73q6 39 6 72.5t-25.5 63.5t-91.5 30h-41l7 41h184q82 0 119 -25t37 -100q0 -21 -5.5 -54.5t-13.5 -84t-22.5 -134.5t-37 -210t-47.5 -272.5t-58 -230t-86 -136.5q-102 -105 -316 -105zM260 1193 q0 46 29.5 81t77 35t74 -31t26.5 -77t-29.5 -81t-77 -35t-74 31t-26.5 77z" />
<glyph unicode="k" horiz-adv-x="993" d="M49 0l195 1106q8 50 8 95.5t-24.5 77.5t-92.5 32h-41l8 41h185q82 0 117.5 -23.5t35.5 -86t-12 -136.5l-106 -604l313 327q57 59 122.5 96.5t166.5 37.5h61l-8 -52q-119 0 -211 -92l-277 -287l199 -327q47 -78 92 -117t105 -49l-6 -39q-40 -20 -113 -20q-168 0 -262 163 l-189 328l-82 -471h-184z" />
<glyph unicode="l" horiz-adv-x="499" d="M59 0q49 285 84 482.5t57.5 327.5t35 203.5t18.5 111.5q8 51 8 86.5t-24.5 67.5t-92.5 32h-41l9 41h184q82 0 118 -23.5t36 -89.5t-207 -1239h-185z" />
<glyph unicode="m" horiz-adv-x="1615" d="M63 922l7 41h184q143 0 160 -82h10q123 102 285 102q76 0 136 -29.5t85 -113.5q66 70 156 106.5t157.5 36.5t109.5 -10t73 -38q69 -61 69 -192q0 -62 -119 -743h-184q119 673 119 733q0 158 -127 158q-84 0 -190 -87q-29 -24 -48 -46v-15q0 -45 -123 -743h-184 q119 673 119 733q0 158 -127 158q-104 0 -223 -109l-138 -782h-184q135 769 135 816q0 106 -117 106h-41z" />
<glyph unicode="n" horiz-adv-x="1124" d="M63 922l7 41h184q143 0 160 -82h10q123 102 285 102q292 0 292 -262q0 -45 -24.5 -186.5t-44 -256t-47.5 -278.5h-185q115 634 115 690.5t-15.5 94.5t-41.5 61q-48 45 -118 45q-113 0 -232 -109l-138 -782h-184q135 769 135 816q0 106 -117 106h-41z" />
<glyph unicode="o" horiz-adv-x="1083" d="M66 379.5q0 96.5 37.5 206.5t109.5 198q163 199 401 199q178 0 279 -111q94 -102 94 -276q0 -109 -38 -219.5t-109.5 -198.5t-173 -143t-211 -55t-179 29.5t-116.5 80.5t-70.5 122t-23.5 167.5zM258 377.5q0 -152.5 50.5 -234.5t140.5 -82t154.5 58.5t106.5 142.5 q85 170 85 322.5t-50.5 234.5t-140.5 82t-154.5 -58.5t-106.5 -142.5q-85 -170 -85 -322.5z" />
<glyph unicode="p" horiz-adv-x="1112" d="M16 -389q69 400 117.5 671t61 345.5t18.5 112.5q8 51 8 86.5t-25.5 65.5t-91.5 30h-41l7 41h184q78 0 115 -22.5t43 -70.5h10q113 113 297 113q145 0 223 -101q72 -93 72 -257q0 -231 -120 -425q-137 -220 -377 -220q-132 0 -241 61l-75 -430h-185zM291 123 q108 -61 195 -61q86 0 152 60q125 112 164 338q17 101 17 181q0 260 -176 260q-86 0 -141.5 -38t-93.5 -85z" />
<glyph unicode="q" horiz-adv-x="1073" d="M66 338q0 94 28.5 207.5t87 210t146.5 162t206 65.5t177 -37t82 -76h10l88 93h102l-237 -1352h-185l76 430q-135 -61 -241.5 -61t-166 26.5t-98.5 74.5q-75 92 -75 257zM260 326q0 -265 197 -265q65 0 205 62l116 655q-23 45 -66.5 84t-115 39t-119 -28.5t-83.5 -75.5 t-61.5 -108.5t-42.5 -124.5q-30 -118 -30 -238z" />
<glyph unicode="r" horiz-adv-x="825" d="M72 922l6 41h164q78 0 114.5 -22.5t42.5 -70.5h11q39 39 106.5 76t159.5 37q79 0 117 -31q35 -25 57 -92l-94 -61q-31 61 -152 61q-128 0 -213 -102l-133 -758h-184q135 769 135 816q0 106 -117 106h-20z" />
<glyph unicode="s" horiz-adv-x="919" d="M35 154q0 26 16 122h41v-4q0 -98 60.5 -154.5t189.5 -56.5q89 0 145 28t81.5 60.5t25.5 82.5t-38 86t-116 71l-114 51q-201 88 -201 234q0 139 123 228q111 81 266 81q322 0 322 -170q0 -31 -5.5 -62.5t-9.5 -64.5h-41v4q0 98 -58 154.5t-181 56.5q-145 0 -209 -87 q-23 -32 -23 -78q0 -94 135 -152l113 -52q106 -47 163.5 -100t57.5 -134t-35.5 -139.5t-94.5 -98.5q-116 -80 -279 -80q-132 0 -197 20q-137 42 -137 154z" />
<glyph unicode="t" horiz-adv-x="688" d="M94 881l15 82h143l33 184l125 123h82l-56 -307h246l-14 -82h-246q-117 -662 -117 -697q0 -123 117 -123q75 0 160 41l14 -41q-35 -23 -98.5 -52t-163.5 -29q-213 0 -213 194q0 32 117 707h-144z" />
<glyph unicode="u" horiz-adv-x="1099" d="M51 922l6 41h164q82 0 119 -25t37 -100q0 -42 -21 -156.5t-35 -199.5t-21 -129q-9 -57 -9 -97.5t15.5 -78.5t41.5 -61q47 -44 117 -44q115 0 233 108l138 783h184l-168 -963h-102l-58 82h-10q-123 -102 -285 -102q-295 0 -295 266q0 33 25 175q61 346 61 394 q0 107 -116 107h-21z" />
<glyph unicode="v" horiz-adv-x="1019" d="M49 938l8 41l70 4q239 0 303 -256l107 -440l405 676h102l-591 -983h-41l-187 747q-28 115 -57 149.5t-55.5 47t-63.5 14.5z" />
<glyph unicode="w" horiz-adv-x="1533" d="M47 938l8 41l72 4q112 0 179 -51q82 -63 114 -205l98 -430l252 440q-29 106 -64.5 151.5t-105.5 49.5l8 41l72 4q112 0 179 -51q82 -63 114 -205l98 -430l383 666h102l-571 -983h-41l-145 634l-367 -634h-41l-166 747q-27 115 -64.5 161t-113.5 50z" />
<glyph unicode="x" horiz-adv-x="1003" d="M-20 0l407 461l-125 297q-61 147 -182 164l6 41h174q135 0 203 -164l90 -215l332 379h102l-407 -461l125 -297q61 -150 192 -164l-6 -41h-184q-136 0 -203 164l-90 215l-332 -379h-102z" />
<glyph unicode="y" horiz-adv-x="1052" d="M35 -410l12 62q100 0 152 32q98 61 161 183l62 113l-186 798q-34 147 -197 164l6 41h174q179 0 217 -164l133 -567l383 711h103l-592 -1096q-87 -163 -175 -223q-77 -54 -192 -54h-61z" />
<glyph unicode="z" horiz-adv-x="958" d="M-6 0l6 39l680 842h-236q-131 0 -201.5 -49.5t-86.5 -135.5h-41l18 103q14 73 45 104q60 60 158 60h625l-707 -881h553l-14 -82h-799z" />
<glyph unicode="{" horiz-adv-x="622" d="M2 461l10 61q119 16 175.5 83t72.5 153l49 286q25 139 118 230.5t286 138.5l-11 -61q-157 -44 -193 -145q-13 -36 -22 -81l-59 -348q-23 -123 -88.5 -189.5t-177.5 -96.5q86 -27 129 -76t43 -122.5t-12.5 -135.5t-25.5 -124q-38 -179 -38 -243.5t29.5 -99.5t111.5 -60 l-12 -61q-150 39 -215.5 110.5t-65.5 178.5q0 66 23 161q43 177 43 252q0 167 -170 189z" />
<glyph unicode="|" horiz-adv-x="495" d="M-12 -389l313 1782h184l-313 -1782h-184z" />
<glyph unicode="}" horiz-adv-x="622" d="M-117 -430l13 61q150 38 189 144q13 35 21 82l62 348q23 123 87 189.5t179 97.5q-86 27 -129 74.5t-43 121t12.5 135.5t25.5 123q38 180 38 245.5t-32 100.5t-109 60l10 61q150 -39 215 -111.5t65 -177.5q0 -66 -21 -164q-42 -189 -42 -260q0 -154 168 -178l-10 -61 q-119 -16 -174.5 -83t-71.5 -153l-51 -286q-25 -139 -117 -230.5t-285 -138.5z" />
<glyph unicode="~" horiz-adv-x="1294" d="M94 389q27 145 117 220q81 67 168.5 67t156 -25.5t133 -56.5t125 -56.5t130 -25.5t120 41t60.5 102h82q-26 -144 -117 -220q-80 -66 -197 -66q-61 0 -128.5 25.5t-132 56t-125 56t-130 25.5t-120 -40.5t-60.5 -102.5h-82z" />
<glyph unicode="&#xa1;" horiz-adv-x="454" d="M-39 -397l219 1034h119l-145 -1034h-193zM168 847q0 32 11 54.5t29 40.5q41 41 87.5 41t72 -25.5t25.5 -58.5t-10 -55.5t-28.5 -41t-42 -29.5t-57.5 -11t-60.5 26.5t-26.5 58.5z" />
<glyph unicode="&#xa2;" horiz-adv-x="993" d="M55 358q0 232 133 407q142 187 377 218l15 82h82l-15 -82q110 0 162.5 -22.5t81.5 -54.5t29 -76t-25 -185h-41q2 12 2 23v22q0 109 -62.5 160t-160.5 51l-148 -840q109 0 183.5 43t142.5 121l35 -30q-82 -106 -173 -156.5t-202 -58.5l-14 -82h-82l14 82q-166 12 -253 118 q-81 100 -81 260zM250 350q0 -106 38 -181t118 -97l143 819q-150 -47 -229 -215q-70 -151 -70 -326z" />
<glyph unicode="&#xa3;" horiz-adv-x="1087" d="M-29 0l9 51q93 25 148 111q60 95 95 289l37 204h-143l14 82h143l37 205q66 361 297 414q68 16 123 16t111.5 -3t106.5 -19q120 -40 120 -144q0 -28 -10 -90h-92q-6 100 -57.5 137t-118 37t-108.5 -14t-77 -52q-77 -83 -110 -282l-37 -205h286l-14 -82h-287l-36 -204 q-46 -270 -177 -369h379q255 0 297 235h41l-26 -153q-14 -73 -45 -104q-60 -60 -158 -60h-748z" />
<glyph unicode="&#xa4;" horiz-adv-x="1181" d="M104 410l15 82h123l18 102h-123l15 82h122l76 430q8 50 8 95.5t-24.5 77.5t-91.5 32h-41l8 41h532q313 0 416 -158q37 -57 37 -157.5t-49 -187.5t-130 -143q-160 -112 -407 -112h-164l-18 -102h532l-14 -82h-532l-72 -410h-184l71 410h-123zM459 676h164q152 4 259 108 q107 106 107 267q0 113 -78 173q-72 56 -192 56q-75 0 -158 -20z" />
<glyph unicode="&#xa5;" horiz-adv-x="1417" d="M178 1311l8 41h185q144 0 225 -143q22 -40 41 -83l217 -460l549 686h92l-616 -779l-7 -30h195l-14 -82h-195l-14 -82h194l-14 -82h-195l-51 -297h-184l51 297h-194l14 82h194l15 82h-195l15 82h194l4 16l-256 526q-58 114 -93 149q-66 70 -165 77z" />
<glyph unicode="&#xa6;" horiz-adv-x="509" d="M-6 -389l127 717h184l-127 -717h-184zM182 676l125 717h185l-125 -717h-185z" />
<glyph unicode="&#xa7;" horiz-adv-x="886" d="M-20 -254q0 37 16 141h41v-12q0 -96 47 -149.5t112.5 -53.5t108.5 15.5t77 44.5q73 64 73 168q0 95 -97 178q-41 35 -90 68.5t-90 70.5q-96 87 -96 202.5t78 203.5t194 135q-137 100 -137 250q0 152 109 258q110 106 270 106q180 0 252 -85q29 -34 29 -67.5t-17 -144.5 h-41v12q0 96 -47 149.5t-112.5 53.5t-108.5 -15t-77 -45q-73 -64 -73 -167q0 -95 97 -178q41 -35 90 -69t90 -70q96 -86 96 -203t-78 -205t-196 -133q139 -106 139 -250q0 -152 -109 -258q-111 -107 -270 -107q-179 0 -252 86q-28 33 -28 70zM248 496q0 -79 50 -136 t132 -108q74 23 126 80t52 136t-50 135.5t-132 107.5q-72 -20 -125 -78t-53 -137z" />
<glyph unicode="&#xa8;" horiz-adv-x="634" d="M223 1500q0 42 35 80t88 38q86 0 86 -87q0 -42 -35 -80t-82 -38t-69.5 22.5t-22.5 64.5zM571 1500q0 42 35 80t88 38q86 0 86 -87q0 -42 -34.5 -80t-82 -38t-70 22.5t-22.5 64.5z" />
<glyph unicode="&#xa9;" horiz-adv-x="1615" d="M88 535q0 166 66.5 322.5t183.5 278t275.5 194.5t319 73t273.5 -43t193 -120q168 -162 168 -423q0 -166 -67.5 -322.5t-184.5 -278.5t-275.5 -194.5t-319.5 -72.5t-273.5 43t-192.5 120q-166 158 -166 423zM170 565q0 -137 38 -231t108.5 -162t171 -104.5t241 -36.5 t279.5 61.5t245.5 165.5t169 245.5t62.5 280t-38 233.5t-109 163q-147 141 -398 141q-158 0 -297 -61.5t-244.5 -167t-167 -248t-61.5 -279.5zM408 569q0 94 36.5 197.5t103 188.5t160 140.5t203.5 55.5q185 0 269 -87q32 -34 32 -83t-14 -131l-2 -6h-27q-4 254 -227 254 q-187 0 -303 -174q-102 -152 -102 -357q0 -206 141 -273q49 -24 119 -24q187 0 331 187l23 -21q-86 -125 -185.5 -173t-201 -48t-163.5 26.5t-105 73.5q-88 96 -88 254z" />
<glyph unicode="&#xaa;" horiz-adv-x="657" d="M168 935q0 46 30.5 84t77.5 61q83 40 207 40h33q8 41 8 94q0 93 -90 93q-47 0 -81 -19.5t-56 -73.5h-51q4 29 12 52.5t33 46.5q42 39 172 39q118 0 153 -76q15 -31 15 -61.5t-62 -393.5h-61l-35 51q-61 -61 -166 -61q-89 0 -125 55q-14 23 -14 69zM276 928q0 -72 78 -72 q69 0 127 72l27 147h-33q-73 0 -116.5 -25.5t-63 -53t-19.5 -68.5z" />
<glyph unicode="&#xab;" horiz-adv-x="768" d="M55 461l389 399h82l-266 -399l125 -400h-82zM342 461l258 297h82l-176 -297l72 -297h-82z" />
<glyph unicode="&#xac;" horiz-adv-x="1343" d="M123 471l22 123h1065l-59 -328h-123l37 205h-942z" />
<glyph unicode="&#xad;" horiz-adv-x="796" d="M121 471l24 143h523l-25 -143h-522z" />
<glyph unicode="&#xae;" horiz-adv-x="1615" d="M88 535q0 166 66.5 322.5t183.5 278t275.5 194.5t319 73t273.5 -43t193 -120q168 -162 168 -423q0 -166 -67.5 -322.5t-184.5 -278.5t-275.5 -194.5t-319.5 -72.5t-273.5 43t-192.5 120q-166 158 -166 423zM170 565q0 -137 38 -231t108.5 -162t171 -104.5t241 -36.5 t279.5 61.5t245.5 165.5t169 245.5t62.5 280t-38 233.5t-109 163q-147 141 -398 141q-158 0 -297 -61.5t-244.5 -167t-167 -248t-61.5 -279.5zM496 256l125 715q6 33 6 65q0 68 -74 68h-27l4 26h344q189 0 262 -91q31 -38 31 -101q0 -111 -71.5 -179.5t-182.5 -88.5 l107 -238q37 -82 67.5 -113.5t79.5 -37.5l-4 -25q-23 -14 -73 -14t-75.5 9t-46.5 31q-44 46 -87 150l-99 230h-98l-70 -406h-118zM696 721q63 -14 100.5 -14t80.5 16t77 46q80 69 80 161q0 76 -62 118q-52 37 -112 37q-32 0 -102 -14z" />
<glyph unicode="&#xaf;" horiz-adv-x="512" />
<glyph unicode="&#xb0;" horiz-adv-x="843" d="M174 1006q0 151 116 267q54 54 124.5 87t141 33t122 -20.5t87.5 -56.5q77 -77 77 -192q0 -151 -116 -267q-120 -120 -275 -120q-123 0 -200 77t-77 192zM299 1036.5q0 -88.5 48 -137.5t110.5 -49t106.5 21.5t78 57.5q75 79 75 167t-48 136t-108.5 48t-105.5 -20.5 t-80 -56.5q-76 -78 -76 -166.5z" />
<glyph unicode="&#xb1;" horiz-adv-x="1177" d="M43 123l23 123h409l64 368h-410l23 123h409l72 410h123l-72 -410h410l-23 -123h-409l-64 -368h410l-23 -123h-942z" />
<glyph unicode="&#xb2;" horiz-adv-x="659" d="M160 772l8 47q43 37 106.5 85t123.5 106q143 142 143 260q0 51 -27 73.5t-68 22.5q-119 0 -176 -152h-24q6 35 14 68t35 59.5t79 48t92 21.5t69.5 -5t54.5 -20q57 -34 57 -109t-41 -139.5t-102.5 -122t-130 -106.5t-123.5 -92h186q115 0 133 90h25l-12 -61 q-10 -74 -93 -74h-329z" />
<glyph unicode="&#xb3;" horiz-adv-x="638" d="M156 852l22 18q55 -74 160 -73q68 0 114 54t46 118.5t-30 89t-82.5 24.5t-94.5 -12l-21 49l293 228h-172q-119 0 -133 -93h-18l10 62q10 76 92 76h309l-6 -37l-303 -236q36 8 75.5 8t71 -7t57.5 -25q60 -41 60 -103.5t-22.5 -105.5t-59.5 -73q-76 -62 -167 -62t-132 26.5 t-69 73.5z" />
<glyph unicode="&#xb4;" horiz-adv-x="358" d="M211 1434l129 266h195l-242 -266h-82z" />
<glyph unicode="&#xb5;" horiz-adv-x="1087" d="M-16 -389l237 1352h185l-84 -482q-15 -81 -15 -159q0 -261 176 -261q86 0 141.5 38t94.5 85l137 779h184l-168 -963h-102l-57 92h-11q-37 -39 -95 -75.5t-170.5 -36.5t-186.5 92l-82 -461h-184z" />
<glyph unicode="&#xb6;" horiz-adv-x="1234" d="M123 907q0 196 171 325q159 120 374 120h614l-14 -82h-113l-293 -1659h-184l293 1659h-133l-293 -1659h-185l175 983q-183 0 -297 83q-115 85 -115 230z" />
<glyph unicode="&#xb7;" horiz-adv-x="475" d="M141 649q0 33 10.5 56.5t29 42t41.5 29.5t58 11t61 -26.5t26 -70.5t-40 -85t-87.5 -41t-73 25.5t-25.5 58.5z" />
<glyph unicode="&#xb8;" horiz-adv-x="368" d="M-72 -401l15 84h102q37 0 66.5 20.5t29.5 60.5q0 51 -71 52h-93l33 184h92l-18 -102h20q61 0 100.5 -30t39.5 -98.5t-55.5 -119.5t-137.5 -51h-123z" />
<glyph unicode="&#xb9;" horiz-adv-x="432" d="M197 1262l155 131h80l-108 -621h-107l90 506l-94 -49z" />
<glyph unicode="&#xba;" horiz-adv-x="688" d="M186 971q0 177 78 301q86 139 225 139q191 0 191 -221q0 -175 -80 -302q-87 -136 -227 -136q-187 0 -187 219zM289 946q0 -149 92 -149q43 0 80 40t63 101q54 130 53.5 279t-96.5 149q-77 0 -138 -144q-54 -127 -54 -276z" />
<glyph unicode="&#xbb;" horiz-adv-x="768" d="M49 164l174 297l-69 297h82l151 -297l-256 -297h-82zM205 61l264 400l-123 399h82l246 -399l-387 -400h-82z" />
<glyph unicode="&#xbc;" horiz-adv-x="1222" d="M-39 0l1169 1352h134l-1170 -1352h-133zM233 1262l156 131h80l-109 -621h-106l90 506l-94 -49zM559 160l8 39l396 424h96l-74 -418h84l-8 -45h-84l-27 -160h-106l26 160h-311zM637 205h242l55 317z" />
<glyph unicode="&#xbd;" horiz-adv-x="1255" d="M-39 0l1169 1352h134l-1170 -1352h-133zM233 1262l156 131h80l-109 -621h-106l90 506l-94 -49zM645 0l8 47q86 80 156 135.5t117 103.5t72.5 97t25.5 107q0 104 -92 104q-125 0 -176 -152h-25q16 93 43 123q33 31 85 52.5t92.5 21.5t69 -5t53.5 -20q56 -36 56 -110 t-32.5 -129.5t-88 -106.5t-127 -103t-149.5 -120h187q57 0 89.5 20.5t43.5 69.5h24l-10 -61q-10 -74 -92 -74h-330z" />
<glyph unicode="&#xbe;" horiz-adv-x="1263" d="M20 0l1170 1352h133l-1169 -1352h-134zM137 852l23 18q55 -74 159 -73q61 0 110.5 49t49.5 118.5t-29.5 94t-81.5 24.5t-96 -12l-20 49l293 228h-172q-119 0 -133 -93h-19l10 62q10 76 93 76h309l-6 -37l-303 -236q36 8 75.5 8t71 -7t57.5 -25q60 -41 60 -112t-30 -116 t-72 -70q-75 -46 -157 -46t-122.5 26.5t-69.5 73.5zM596 160l8 39l395 424h97l-74 -418h84l-8 -45h-84l-27 -160h-106l26 160h-311zM674 205h241l56 317z" />
<glyph unicode="&#xbf;" horiz-adv-x="978" d="M-53 -141q0 187 121 319q53 58 118.5 107t127 100t113.5 110.5t81 143.5h82q-29 -137 -148 -271q-49 -57 -100 -109t-93 -109q-95 -131 -95 -259.5t63.5 -185.5t171 -57t217 89t168.5 259h41q0 -98 -59 -211q-34 -64 -120 -120q-90 -59 -184 -79t-152 -20t-119.5 11 t-114.5 44q-119 75 -119 238zM475 858q0 47 40 87t88 40t73.5 -26.5t25.5 -72.5t-41 -85t-87 -39t-72.5 24.5t-26.5 71.5z" />
<glyph unicode="&#xc0;" horiz-adv-x="1298" d="M-47 0l811 1352h61l258 -1096q24 -116 55 -151t61 -47.5t71 -16.5l-6 -41q-37 -10 -78 -10t-85 8t-87 36q-103 65 -135 222l-29 133h-574l-231 -389h-92zM322 471h501l-141 594zM620 1699h195l34 -266h-81z" />
<glyph unicode="&#xc1;" horiz-adv-x="1298" d="M-47 0l811 1352h61l258 -1096q24 -116 55 -151t61 -47.5t71 -16.5l-6 -41q-37 -10 -78 -10t-85 8t-87 36q-103 65 -135 222l-29 133h-574l-231 -389h-92zM322 471h501l-141 594zM778 1434l129 266h195l-242 -266h-82z" />
<glyph unicode="&#xc2;" horiz-adv-x="1298" d="M-47 0l811 1352h61l258 -1096q24 -116 55 -151t61 -47.5t71 -16.5l-6 -41q-37 -10 -78 -10t-85 8t-87 36q-103 65 -135 222l-29 133h-574l-231 -389h-92zM322 471h501l-141 594zM527 1403l204 235h226l123 -235h-103l-145 164l-203 -164h-102z" />
<glyph unicode="&#xc3;" horiz-adv-x="1298" d="M-47 0l811 1352h61l258 -1096q24 -116 55 -151t61 -47.5t71 -16.5l-6 -41q-37 -10 -78 -10t-85 8t-87 36q-103 65 -135 222l-29 133h-574l-231 -389h-92zM322 471h501l-141 594zM588 1434q20 109 58 151.5t85 42.5t71.5 -13t46.5 -28q56 -41 97 -41q21 0 40 21 q31 32 36 61h61q-18 -109 -57 -151.5t-86 -42.5t-70.5 12t-44.5 27q-59 43 -100 43q-33 0 -66 -55q-8 -15 -10 -27h-61z" />
<glyph unicode="&#xc4;" horiz-adv-x="1298" d="M-47 0l811 1352h61l258 -1096q24 -116 55 -151t61 -47.5t71 -16.5l-6 -41q-37 -10 -78 -10t-85 8t-87 36q-103 65 -135 222l-29 133h-574l-231 -389h-92zM322 471h501l-141 594zM545 1500q0 42 35 80t88 38q86 0 86 -87q0 -42 -35 -80t-82 -38t-69.5 22.5t-22.5 64.5z M893 1500q0 42 35 80t88 38q86 0 86 -87q0 -42 -34.5 -80t-82 -38t-70 22.5t-22.5 64.5z" />
<glyph unicode="&#xc5;" horiz-adv-x="1298" d="M-47 0l768 1280q-33 14 -60.5 45t-27.5 77t17.5 83t45.5 67q65 66 136 66t113 -44t42 -105.5t-41 -110.5t-102 -78l239 -1024q24 -116 55 -151t61 -47.5t71 -16.5l-6 -41q-37 -10 -78 -10t-85 8t-87 36q-103 65 -135 222l-29 133h-574l-231 -389h-92zM322 471h501 l-141 594zM717 1425.5q0 -47.5 37 -73.5h82q69 38 69 114q0 37 -20.5 58.5t-60.5 21.5t-73.5 -36.5t-33.5 -84z" />
<glyph unicode="&#xc6;" horiz-adv-x="1781" d="M-119 0l996 1352h739q88 0 118.5 -35t30.5 -84q0 -7 -30 -199h-41q6 33 6 62q0 174 -221 174h-381l-94 -533h552l-14 -82h-553l-100 -573h358q139 0 229.5 51t157.5 174l39 -10l-106 -195q-54 -102 -170 -102h-707l68 389h-492l-282 -389h-103zM332 471h440l139 789z" />
<glyph unicode="&#xc7;" horiz-adv-x="1363" d="M92 502q0 147 58.5 304t162 288t245.5 215t312 84q161 0 292 -51q73 -29 123 -81.5t50 -116t-24 -222.5h-41q-8 389 -352 389q-158 0 -274 -74t-193.5 -191.5t-115.5 -263t-38 -263t21.5 -199.5t69.5 -144q106 -135 306 -135q154 0 278 73.5t234 213.5l35 -31 q-177 -253 -419 -315q-77 -19 -163 -23l-10 -61h21q61 0 100 -30t39 -99.5t-55.5 -117.5t-137.5 -52h-122l14 84h102q37 0 67 20.5t30 60.5q0 51 -72 52h-92l24 143q-222 12 -351 166q-124 149 -124 377z" />
<glyph unicode="&#xc8;" horiz-adv-x="1214" d="M123 0q49 285 84 482.5t57.5 327.5t34.5 203.5t19 111.5q8 50 8 86t-25 68t-92 32h-41l8 41h873q88 0 118.5 -35t30.5 -69t-31 -214h-41q6 33 7 62q0 174 -222 174h-381l-94 -533h553l-14 -82h-553l-100 -573h358q139 0 229 51t158 174l39 -10l-107 -195 q-54 -102 -170 -102h-706zM606 1699h195l34 -266h-81z" />
<glyph unicode="&#xc9;" horiz-adv-x="1214" d="M123 0q49 285 84 482.5t57.5 327.5t34.5 203.5t19 111.5q8 50 8 86t-25 68t-92 32h-41l8 41h873q88 0 118.5 -35t30.5 -69t-31 -214h-41q6 33 7 62q0 174 -222 174h-381l-94 -533h553l-14 -82h-553l-100 -573h358q139 0 229 51t158 174l39 -10l-107 -195 q-54 -102 -170 -102h-706zM723 1434l129 266h195l-242 -266h-82z" />
<glyph unicode="&#xca;" horiz-adv-x="1214" d="M123 0q49 285 84 482.5t57.5 327.5t34.5 203.5t19 111.5q8 50 8 86t-25 68t-92 32h-41l8 41h873q88 0 118.5 -35t30.5 -69t-31 -214h-41q6 33 7 62q0 174 -222 174h-381l-94 -533h553l-14 -82h-553l-100 -573h358q139 0 229 51t158 174l39 -10l-107 -195 q-54 -102 -170 -102h-706zM506 1477l204 235h226l123 -235h-103l-145 164l-203 -164h-102z" />
<glyph unicode="&#xcb;" horiz-adv-x="1214" d="M123 0q49 285 84 482.5t57.5 327.5t34.5 203.5t19 111.5q8 50 8 86t-25 68t-92 32h-41l8 41h873q88 0 118.5 -35t30.5 -69t-31 -214h-41q6 33 7 62q0 174 -222 174h-381l-94 -533h553l-14 -82h-553l-100 -573h358q139 0 229 51t158 174l39 -10l-107 -195 q-54 -102 -170 -102h-706zM506 1582q0 42 35 80t88 38q86 0 86 -87q0 -42 -35 -80t-82 -38t-69.5 22.5t-22.5 64.5zM854 1582q0 42 35 80t88 38q86 0 86 -87q0 -42 -34.5 -80t-82 -38t-70 22.5t-22.5 64.5z" />
<glyph unicode="&#xcc;" horiz-adv-x="591" d="M115 125q0 35 14 121l195 1106h184l-195 -1106q-10 -57 -10 -101t25.5 -74t91.5 -30h41l-6 -41h-185q-82 0 -118.5 24.5t-36.5 100.5zM264 1699h195l34 -266h-81z" />
<glyph unicode="&#xcd;" horiz-adv-x="591" d="M115 125q0 35 14 121l195 1106h184l-195 -1106q-10 -57 -10 -101t25.5 -74t91.5 -30h41l-6 -41h-185q-82 0 -118.5 24.5t-36.5 100.5zM379 1434l129 266h195l-242 -266h-82z" />
<glyph unicode="&#xce;" horiz-adv-x="591" d="M115 125q0 35 14 121l195 1106h184l-195 -1106q-10 -57 -10 -101t25.5 -74t91.5 -30h41l-6 -41h-185q-82 0 -118.5 24.5t-36.5 100.5zM154 1424l204 235h226l123 -235h-103l-145 164l-203 -164h-102z" />
<glyph unicode="&#xcf;" horiz-adv-x="591" d="M115 125q0 35 14 121l195 1106h184l-195 -1106q-10 -57 -10 -101t25.5 -74t91.5 -30h41l-6 -41h-185q-82 0 -118.5 24.5t-36.5 100.5zM190 1551q0 42 35 80t88 38q86 0 86 -85q0 -42 -32.5 -81t-80.5 -39t-72 22.5t-24 64.5zM506 1551q0 42 34.5 80t88.5 38q86 0 86 -85 q0 -42 -33 -81t-81 -39t-71.5 22.5t-23.5 64.5z" />
<glyph unicode="&#xd0;" horiz-adv-x="1466" d="M78 635l14 82h154l69 389q9 56 9 98.5t-25 74.5t-92 32h-41l8 41h537q347 0 527 -140q173 -134 173 -383q0 -178 -66.5 -330.5t-184.5 -263t-280.5 -173t-353.5 -62.5h-405l110 635h-153zM328 98q110 -26 228.5 -26t240 63.5t207.5 168t134 238.5t48 256.5t-31 209 t-89 146.5q-122 126 -325 126q-95 0 -211 -33l-94 -530h178l-14 -82h-178z" />
<glyph unicode="&#xd1;" horiz-adv-x="1406" d="M127 0q49 283 84 477.5t56.5 323.5t33.5 200.5t19 107.5q8 47 8 62q0 66 -34 103t-122 37h-20l8 41h133q178 0 254 -123l561 -891l178 1014h82l-242 -1372h-41l-688 1095l-188 -1075h-82zM637 1422q20 109 58 151.5t85 42.5t71.5 -13t46.5 -28q56 -41 97 -41q21 0 40 21 q31 32 36 61h61q-18 -109 -57 -151.5t-86 -42.5t-70.5 12t-44.5 27q-59 43 -100 43q-33 0 -66 -55q-8 -15 -10 -27h-61z" />
<glyph unicode="&#xd2;" horiz-adv-x="1458" d="M98 530.5q0 137.5 54.5 293t155 282.5t243.5 207t294.5 80t250 -42t164.5 -117q137 -154 137 -400q0 -154 -54.5 -309.5t-156 -281.5t-244.5 -205t-295.5 -79t-250 42t-163 115.5t-100.5 175t-35 239zM299 473q0 -205 86 -318.5t258 -113.5t311 143q176 182 228 514 q14 93 14 176q0 205 -87 321t-251 116q-184 0 -320 -143q-173 -181 -224 -517q-15 -94 -15 -178zM711 1749h195l34 -266h-81z" />
<glyph unicode="&#xd3;" horiz-adv-x="1458" d="M98 530.5q0 137.5 54.5 293t155 282.5t243.5 207t294.5 80t250 -42t164.5 -117q137 -154 137 -400q0 -154 -54.5 -309.5t-156 -281.5t-244.5 -205t-295.5 -79t-250 42t-163 115.5t-100.5 175t-35 239zM299 473q0 -205 86 -318.5t258 -113.5t311 143q176 182 228 514 q14 93 14 176q0 205 -87 321t-251 116q-184 0 -320 -143q-173 -181 -224 -517q-15 -94 -15 -178zM844 1475l129 266h195l-242 -266h-82z" />
<glyph unicode="&#xd4;" horiz-adv-x="1458" d="M98 530.5q0 137.5 54.5 293t155 282.5t243.5 207t294.5 80t250 -42t164.5 -117q137 -154 137 -400q0 -154 -54.5 -309.5t-156 -281.5t-244.5 -205t-295.5 -79t-250 42t-163 115.5t-100.5 175t-35 239zM299 473q0 -205 86 -318.5t258 -113.5t311 143q176 182 228 514 q14 93 14 176q0 205 -87 321t-251 116q-184 0 -320 -143q-173 -181 -224 -517q-15 -94 -15 -178zM600 1475l204 235h226l123 -235h-103l-145 164l-203 -164h-102z" />
<glyph unicode="&#xd5;" horiz-adv-x="1458" d="M98 530.5q0 137.5 54.5 293t155 282.5t243.5 207t294.5 80t250 -42t164.5 -117q137 -154 137 -400q0 -154 -54.5 -309.5t-156 -281.5t-244.5 -205t-295.5 -79t-250 42t-163 115.5t-100.5 175t-35 239zM299 473q0 -205 86 -318.5t258 -113.5t311 143q176 182 228 514 q14 93 14 176q0 205 -87 321t-251 116q-184 0 -320 -143q-173 -181 -224 -517q-15 -94 -15 -178zM662 1512q20 109 58 151.5t85 42.5t71.5 -13t46.5 -28q56 -41 97 -41q21 0 40 21q31 32 36 61h61q-18 -109 -57 -151.5t-86 -42.5t-70.5 12t-44.5 27q-59 43 -100 43 q-33 0 -66 -55q-8 -15 -10 -27h-61z" />
<glyph unicode="&#xd6;" horiz-adv-x="1458" d="M98 530.5q0 137.5 54.5 293t155 282.5t243.5 207t294.5 80t250 -42t164.5 -117q137 -154 137 -400q0 -154 -54.5 -309.5t-156 -281.5t-244.5 -205t-295.5 -79t-250 42t-163 115.5t-100.5 175t-35 239zM299 473q0 -205 86 -318.5t258 -113.5t311 143q176 182 228 514 q14 93 14 176q0 205 -87 321t-251 116q-184 0 -320 -143q-173 -181 -224 -517q-15 -94 -15 -178zM633 1592q0 42 35 80t88 38q86 0 86 -87q0 -42 -35 -80t-82 -38t-69.5 22.5t-22.5 64.5zM981 1592q0 42 35 80t88 38q86 0 86 -87q0 -42 -34.5 -80t-82 -38t-70 22.5 t-22.5 64.5z" />
<glyph unicode="&#xd7;" horiz-adv-x="964" d="M74 393l340 289l-238 291l103 86l239 -291l340 291l70 -88l-340 -289l237 -291l-100 -86l-240 291l-340 -291z" />
<glyph unicode="&#xd8;" horiz-adv-x="1458" d="M98 514q0 154 54.5 309.5t155 282.5t243.5 207t304.5 80t281.5 -62l45 62h149l-96 -133q162 -158 162 -426q0 -154 -54.5 -309.5t-156 -281.5t-244.5 -205t-312 -79t-284 66l-47 -66h-149l100 139q-152 156 -152 416zM297 489q0 -159 45 -262l727 1010q-84 74 -196.5 74 t-192.5 -39t-142.5 -104.5t-107.5 -151.5t-74 -180q-59 -188 -59 -347zM416 121q86 -80 200.5 -80t194.5 39t142.5 103.5t108.5 148.5t76 176q58 182 58 350t-51 277z" />
<glyph unicode="&#xd9;" horiz-adv-x="1406" d="M145 1311l9 41h184q82 0 119 -24.5t37 -100.5q0 -29 -15 -121l-104 -584q-17 -96 -17 -160q0 -143 69 -222t230 -79q229 0 347 127q112 118 161 396l135 768h82l-135 -768q-58 -319 -184 -453q-143 -151 -445 -151q-238 0 -338 96t-100 286q0 79 23 222l92 522 q8 50 8 95.5t-24.5 77.5t-92.5 32h-41zM739 1658h195l34 -266h-81z" />
<glyph unicode="&#xda;" horiz-adv-x="1406" d="M145 1311l9 41h184q82 0 119 -24.5t37 -100.5q0 -29 -15 -121l-104 -584q-17 -96 -17 -160q0 -143 69 -222t230 -79q229 0 347 127q112 118 161 396l135 768h82l-135 -768q-58 -319 -184 -453q-143 -151 -445 -151q-238 0 -338 96t-100 286q0 79 23 222l92 522 q8 50 8 95.5t-24.5 77.5t-92.5 32h-41zM815 1395l129 266h195l-242 -266h-82z" />
<glyph unicode="&#xdb;" horiz-adv-x="1406" d="M145 1311l9 41h184q82 0 119 -24.5t37 -100.5q0 -29 -15 -121l-104 -584q-17 -96 -17 -160q0 -143 69 -222t230 -79q229 0 347 127q112 118 161 396l135 768h82l-135 -768q-58 -319 -184 -453q-143 -151 -445 -151q-238 0 -338 96t-100 286q0 79 23 222l92 522 q8 50 8 95.5t-24.5 77.5t-92.5 32h-41zM629 1375l204 235h226l123 -235h-103l-145 164l-203 -164h-102z" />
<glyph unicode="&#xdc;" horiz-adv-x="1406" d="M145 1311l9 41h184q82 0 119 -24.5t37 -100.5q0 -29 -15 -121l-104 -584q-17 -96 -17 -160q0 -143 69 -222t230 -79q229 0 347 127q112 118 161 396l135 768h82l-135 -768q-58 -319 -184 -453q-143 -151 -445 -151q-238 0 -338 96t-100 286q0 79 23 222l92 522 q8 50 8 95.5t-24.5 77.5t-92.5 32h-41zM637 1482q0 42 35 80t88 38q86 0 86 -87q0 -42 -35 -80t-82 -38t-69.5 22.5t-22.5 64.5zM985 1482q0 42 35 80t88 38q86 0 86 -87q0 -42 -34.5 -80t-82 -38t-70 22.5t-22.5 64.5z" />
<glyph unicode="&#xdd;" horiz-adv-x="1288" d="M72 1311l8 41h184q145 0 226 -143q22 -40 40 -83l218 -460l548 686h93l-617 -779l-100 -573h-185l99 559l-256 526q-57 111 -92 148q-67 71 -166 78zM780 1375l129 266h195l-242 -266h-82z" />
<glyph unicode="&#xde;" horiz-adv-x="1099" d="M117 -61q57 328 97 553t65.5 372.5t40 228.5t20.5 121q8 52 8 62q0 96 -121 96h-41l7 41h184q86 0 123 -23.5t37 -86.5q0 -12 -27 -177q559 0 559 -381q0 -286 -216 -437q-192 -135 -511 -144l-41 -225h-184zM356 246q226 0 364 130q144 135 144 367q0 137 -86 219 t-282 82z" />
<glyph unicode="&#xdf;" horiz-adv-x="1134" d="M49 0l180 1024q48 284 305 334q76 14 156 14q156 0 235 -49t79 -127q0 -116 -156 -240q-93 -74 -124.5 -127t-31.5 -101t24.5 -83t62.5 -64.5t81 -58t81 -61.5q87 -76 87 -159t-27.5 -139.5t-75.5 -96.5q-101 -86 -245 -86q-170 0 -244 88q-28 32 -28 78.5t8 78.5h41v-6 q0 -62 54 -109q57 -49 142 -49q75 0 131 45q60 50 60 130q0 77 -87 146q-38 30 -81 58.5t-81 61.5q-87 76 -87 172q0 99 82 183q35 36 76 68.5t76 67.5q81 83 81 172q0 59 -39 92t-128.5 33t-152.5 -56t-89 -210l-181 -1024h-184z" />
<glyph unicode="&#xe0;" d="M66 334q0 236 122 421q139 209 371 228q106 0 159.5 -37t76.5 -76h10l88 93h102l-168 -963h-102l-57 92h-11q-37 -39 -104.5 -75.5t-167 -36.5t-155.5 27.5t-93 74.5q-71 90 -71 252zM260 322q0 -113 41 -187t135 -74t146.5 38t91.5 85l106 594q-31 59 -55 81 q-47 42 -130 42t-148.5 -61.5t-107.5 -150.5q-79 -167 -79 -367zM448 1341h195l34 -266h-81z" />
<glyph unicode="&#xe1;" d="M66 334q0 236 122 421q139 209 371 228q106 0 159.5 -37t76.5 -76h10l88 93h102l-168 -963h-102l-57 92h-11q-37 -39 -104.5 -75.5t-167 -36.5t-155.5 27.5t-93 74.5q-71 90 -71 252zM260 322q0 -113 41 -187t135 -74t146.5 38t91.5 85l106 594q-31 59 -55 81 q-47 42 -130 42t-148.5 -61.5t-107.5 -150.5q-79 -167 -79 -367zM576 1078l129 266h195l-242 -266h-82z" />
<glyph unicode="&#xe2;" d="M66 334q0 236 122 421q139 209 371 228q106 0 159.5 -37t76.5 -76h10l88 93h102l-168 -963h-102l-57 92h-11q-37 -39 -104.5 -75.5t-167 -36.5t-155.5 27.5t-93 74.5q-71 90 -71 252zM260 322q0 -113 41 -187t135 -74t146.5 38t91.5 85l106 594q-31 59 -55 81 q-47 42 -130 42t-148.5 -61.5t-107.5 -150.5q-79 -167 -79 -367zM367 1088l204 235h226l123 -235h-103l-145 164l-203 -164h-102z" />
<glyph unicode="&#xe3;" d="M66 334q0 236 122 421q139 209 371 228q106 0 159.5 -37t76.5 -76h10l88 93h102l-168 -963h-102l-57 92h-11q-37 -39 -104.5 -75.5t-167 -36.5t-155.5 27.5t-93 74.5q-71 90 -71 252zM260 322q0 -113 41 -187t135 -74t146.5 38t91.5 85l106 594q-31 59 -55 81 q-47 42 -130 42t-148.5 -61.5t-107.5 -150.5q-79 -167 -79 -367zM404 1098q20 109 58 151.5t85 42.5t71.5 -13t46.5 -28q56 -41 97 -41q21 0 40 21q31 32 36 61h61q-18 -109 -57 -151.5t-86 -42.5t-70.5 12t-44.5 27q-59 43 -100 43q-33 0 -66 -55q-8 -15 -10 -27h-61z" />
<glyph unicode="&#xe4;" d="M66 334q0 236 122 421q139 209 371 228q106 0 159.5 -37t76.5 -76h10l88 93h102l-168 -963h-102l-57 92h-11q-37 -39 -104.5 -75.5t-167 -36.5t-155.5 27.5t-93 74.5q-71 90 -71 252zM260 322q0 -113 41 -187t135 -74t146.5 38t91.5 85l106 594q-31 59 -55 81 q-47 42 -130 42t-148.5 -61.5t-107.5 -150.5q-79 -167 -79 -367zM389 1173.5q0 36.5 31.5 71.5t72.5 35t62.5 -21.5t21.5 -58.5t-32.5 -70.5t-72.5 -33.5t-61.5 20.5t-21.5 57zM737 1173.5q0 36.5 31.5 71.5t73 35t62.5 -21.5t21 -58.5t-32.5 -70.5t-72.5 -33.5t-61.5 20.5 t-21.5 57z" />
<glyph unicode="&#xe5;" d="M66 334q0 236 122 421q139 209 371 228q106 0 159.5 -37t76.5 -76h10l88 93h102l-168 -963h-102l-57 92h-11q-37 -39 -104.5 -75.5t-167 -36.5t-155.5 27.5t-93 74.5q-71 90 -71 252zM260 322q0 -113 41 -187t135 -74t146.5 38t91.5 85l106 594q-31 59 -55 81 q-47 42 -130 42t-148.5 -61.5t-107.5 -150.5q-79 -167 -79 -367zM484 1222q0 48 17 83.5t46 64.5q64 64 134 64t112.5 -44t42.5 -92.5t-17.5 -84t-45.5 -64.5q-63 -64 -134 -64t-113 44.5t-42 92.5zM565 1237q0 -80 82 -80q41 0 74 37t33 81q0 87 -76 87q-47 0 -80 -37 t-33 -88z" />
<glyph unicode="&#xe6;" horiz-adv-x="1540" d="M20 218q0 83 54.5 147.5t138.5 101.5q148 65 383 65h61q58 324 -81 361q-31 8 -92.5 8t-126 -37t-105.5 -137h-92q10 53 24.5 99t48.5 74.5t68.5 43t77.5 22.5q83 17 188 17t169.5 -53t80.5 -131q45 78 132 131t183.5 53t159 -18.5t102.5 -48.5q74 -57 74 -153.5 t-35.5 -157t-96.5 -99.5q-117 -76 -300 -76h-213q-6 -49 -6 -92q0 -125 55.5 -201t159.5 -76t178 43t142 121l34 -30q-90 -117 -189 -166t-216 -49q-240 0 -317 174q-61 -84 -143.5 -129t-215.5 -45q-185 0 -258 113q-27 42 -27 125zM217 216q0 -71 49 -107.5t122 -36.5 t122 37.5t88 85.5l45 256h-61q-230 0 -328 -119q-37 -45 -37 -116zM838 512h202q98 0 166 61.5t68 171.5q0 72 -34 109t-95.5 37t-106.5 -27.5t-84 -75.5q-83 -101 -112 -256z" />
<glyph unicode="&#xe7;" horiz-adv-x="995" d="M68 334q0 135 36.5 246.5t107.5 200.5q161 202 406 202q129 0 187.5 -18.5t92.5 -50t34 -80t-25 -189.5h-41q2 12 2 23v22q0 109 -62.5 160t-161.5 51t-171 -53t-119 -134q-92 -159 -92 -364q0 -129 56.5 -209t172.5 -80t190.5 43t141.5 121l35 -30q-86 -111 -182 -159 t-213 -56l-12 -64q68 -4 105.5 -26.5t37.5 -78.5t-23.5 -91t-62.5 -56q-68 -35 -189 -35l11 62q120 0 160 43q20 20 20 56t-34 50.5t-118 14.5l23 125q-157 15 -239 122q-74 97 -74 232z" />
<glyph unicode="&#xe8;" horiz-adv-x="997" d="M66 354q0 106 34.5 218t102 203t167 149.5t254 58.5t234.5 -67.5t80 -158.5t-36 -154.5t-96 -106.5q-122 -86 -300 -86h-246q-8 -46 -8 -84q0 -111 56.5 -188t161.5 -77t179 43t142 121l34 -30q-90 -117 -189 -166t-202.5 -49t-170 28.5t-110.5 78.5q-87 99 -87 267z M274 492h236q98 4 165.5 73.5t67.5 179.5q0 72 -42 114t-119 42q-109 0 -191 -108.5t-117 -300.5zM414 1341h195l34 -266h-81z" />
<glyph unicode="&#xe9;" horiz-adv-x="997" d="M66 354q0 106 34.5 218t102 203t167 149.5t254 58.5t234.5 -67.5t80 -158.5t-36 -154.5t-96 -106.5q-122 -86 -300 -86h-246q-8 -46 -8 -84q0 -111 56.5 -188t161.5 -77t179 43t142 121l34 -30q-90 -117 -189 -166t-202.5 -49t-170 28.5t-110.5 78.5q-87 99 -87 267z M274 492h236q98 4 165.5 73.5t67.5 179.5q0 72 -42 114t-119 42q-109 0 -191 -108.5t-117 -300.5zM551 1080l129 266h195l-242 -266h-82z" />
<glyph unicode="&#xea;" horiz-adv-x="997" d="M66 354q0 106 34.5 218t102 203t167 149.5t254 58.5t234.5 -67.5t80 -158.5t-36 -154.5t-96 -106.5q-122 -86 -300 -86h-246q-8 -46 -8 -84q0 -111 56.5 -188t161.5 -77t179 43t142 121l34 -30q-90 -117 -189 -166t-202.5 -49t-170 28.5t-110.5 78.5q-87 99 -87 267z M274 492h236q98 4 165.5 73.5t67.5 179.5q0 72 -42 114t-119 42q-109 0 -191 -108.5t-117 -300.5zM347 1078l204 235h226l123 -235h-103l-145 164l-203 -164h-102z" />
<glyph unicode="&#xeb;" horiz-adv-x="997" d="M66 354q0 106 34.5 218t102 203t167 149.5t254 58.5t234.5 -67.5t80 -158.5t-36 -154.5t-96 -106.5q-122 -86 -300 -86h-246q-8 -46 -8 -84q0 -111 56.5 -188t161.5 -77t179 43t142 121l34 -30q-90 -117 -189 -166t-202.5 -49t-170 28.5t-110.5 78.5q-87 99 -87 267z M274 492h236q98 4 165.5 73.5t67.5 179.5q0 72 -42 114t-119 42q-109 0 -191 -108.5t-117 -300.5zM359 1191.5q0 36.5 31.5 71.5t72.5 35t62.5 -21.5t21.5 -58.5t-32.5 -70.5t-72.5 -33.5t-61.5 20.5t-21.5 57zM707 1191.5q0 36.5 31.5 71.5t73 35t62.5 -21.5t21 -58.5 t-32.5 -70.5t-72.5 -33.5t-61.5 20.5t-21.5 57z" />
<glyph unicode="&#xec;" horiz-adv-x="514" d="M63 922l7 41h184q82 0 119 -25t37 -100q0 -32 -140 -838h-184q135 769 135 816q0 106 -117 106h-41zM188 1341h195l34 -266h-81z" />
<glyph unicode="&#xed;" horiz-adv-x="514" d="M63 922l7 41h184q82 0 119 -25t37 -100q0 -32 -140 -838h-184q135 769 135 816q0 106 -117 106h-41zM285 1078l129 266h195l-242 -266h-82z" />
<glyph unicode="&#xee;" horiz-adv-x="514" d="M63 922l7 41h184q82 0 119 -25t37 -100q0 -32 -140 -838h-184q135 769 135 816q0 106 -117 106h-41zM95 1088l204 235h226l123 -235h-103l-145 164l-203 -164h-102z" />
<glyph unicode="&#xef;" horiz-adv-x="514" d="M63 922l7 41h184q82 0 119 -25t37 -100q0 -32 -140 -838h-184q135 769 135 816q0 106 -117 106h-41zM115 1213q0 46 29.5 81t76.5 35t74 -30.5t27 -76.5t-30 -81t-77 -35t-73.5 30.5t-26.5 76.5zM430 1213q0 46 29.5 81t77 35t74 -30.5t26.5 -76.5t-29.5 -81t-77 -35 t-74 30.5t-26.5 76.5z" />
<glyph unicode="&#xf0;" horiz-adv-x="1099" d="M66 367q0 109 37.5 219t109.5 198q163 199 401 199q86 0 149.5 -43t88.5 -121q-8 215 -86 328l-96 -82l-52 61l99 82q-39 47 -86 69.5t-111 22.5t-106 -12l-8 39q73 45 195.5 45t221.5 -82l86 82l49 -61l-84 -72q138 -163 138 -451q0 -178 -54 -356q-96 -313 -330 -416 q-83 -36 -182.5 -36t-169 29.5t-116.5 80.5q-94 102 -94 277zM258 377.5q0 -152.5 50.5 -234.5t140.5 -82t154.5 58.5t106.5 142.5q85 170 85 322.5t-50.5 234.5t-140.5 82t-154.5 -58.5t-106.5 -142.5q-85 -170 -85 -322.5z" />
<glyph unicode="&#xf1;" horiz-adv-x="1124" d="M63 922l7 41h184q143 0 160 -82h10q123 102 285 102q292 0 292 -262q0 -45 -24.5 -186.5t-44 -256t-47.5 -278.5h-185q115 634 115 690.5t-15.5 94.5t-41.5 61q-48 45 -118 45q-113 0 -232 -109l-138 -782h-184q135 769 135 816q0 106 -117 106h-41zM449 1117 q20 109 58 151.5t85 42.5t71.5 -13t46.5 -28q56 -41 97 -41q21 0 40 21q31 32 36 61h61q-18 -109 -57 -151.5t-86 -42.5t-70.5 12t-44.5 27q-59 43 -100 43q-33 0 -66 -55q-8 -15 -10 -27h-61z" />
<glyph unicode="&#xf2;" horiz-adv-x="1083" d="M66 379.5q0 96.5 37.5 206.5t109.5 198q163 199 401 199q178 0 279 -111q94 -102 94 -276q0 -109 -38 -219.5t-109.5 -198.5t-173 -143t-211 -55t-179 29.5t-116.5 80.5t-70.5 122t-23.5 167.5zM258 377.5q0 -152.5 50.5 -234.5t140.5 -82t154.5 58.5t106.5 142.5 q85 170 85 322.5t-50.5 234.5t-140.5 82t-154.5 -58.5t-106.5 -142.5q-85 -170 -85 -322.5zM463 1341h195l34 -266h-81z" />
<glyph unicode="&#xf3;" horiz-adv-x="1083" d="M66 379.5q0 96.5 37.5 206.5t109.5 198q163 199 401 199q178 0 279 -111q94 -102 94 -276q0 -109 -38 -219.5t-109.5 -198.5t-173 -143t-211 -55t-179 29.5t-116.5 80.5t-70.5 122t-23.5 167.5zM258 377.5q0 -152.5 50.5 -234.5t140.5 -82t154.5 58.5t106.5 142.5 q85 170 85 322.5t-50.5 234.5t-140.5 82t-154.5 -58.5t-106.5 -142.5q-85 -170 -85 -322.5zM559 1078l129 266h195l-242 -266h-82z" />
<glyph unicode="&#xf4;" horiz-adv-x="1083" d="M66 379.5q0 96.5 37.5 206.5t109.5 198q163 199 401 199q178 0 279 -111q94 -102 94 -276q0 -109 -38 -219.5t-109.5 -198.5t-173 -143t-211 -55t-179 29.5t-116.5 80.5t-70.5 122t-23.5 167.5zM258 377.5q0 -152.5 50.5 -234.5t140.5 -82t154.5 58.5t106.5 142.5 q85 170 85 322.5t-50.5 234.5t-140.5 82t-154.5 -58.5t-106.5 -142.5q-85 -170 -85 -322.5zM355 1078l204 235h226l123 -235h-103l-145 164l-203 -164h-102z" />
<glyph unicode="&#xf5;" horiz-adv-x="1083" d="M66 379.5q0 96.5 37.5 206.5t109.5 198q163 199 401 199q178 0 279 -111q94 -102 94 -276q0 -109 -38 -219.5t-109.5 -198.5t-173 -143t-211 -55t-179 29.5t-116.5 80.5t-70.5 122t-23.5 167.5zM258 377.5q0 -152.5 50.5 -234.5t140.5 -82t154.5 58.5t106.5 142.5 q85 170 85 322.5t-50.5 234.5t-140.5 82t-154.5 -58.5t-106.5 -142.5q-85 -170 -85 -322.5zM404 1098q20 109 58 151.5t85 42.5t71.5 -13t46.5 -28q56 -41 97 -41q21 0 40 21q31 32 36 61h61q-18 -109 -57 -151.5t-86 -42.5t-70.5 12t-44.5 27q-59 43 -100 43q-33 0 -66 -55 q-8 -15 -10 -27h-61z" />
<glyph unicode="&#xf6;" horiz-adv-x="1083" d="M66 379.5q0 96.5 37.5 206.5t109.5 198q163 199 401 199q178 0 279 -111q94 -102 94 -276q0 -109 -38 -219.5t-109.5 -198.5t-173 -143t-211 -55t-179 29.5t-116.5 80.5t-70.5 122t-23.5 167.5zM258 377.5q0 -152.5 50.5 -234.5t140.5 -82t154.5 58.5t106.5 142.5 q85 170 85 322.5t-50.5 234.5t-140.5 82t-154.5 -58.5t-106.5 -142.5q-85 -170 -85 -322.5zM383 1173.5q0 36.5 31.5 71.5t72.5 35t62.5 -21.5t21.5 -58.5t-32.5 -70.5t-72.5 -33.5t-61.5 20.5t-21.5 57zM731 1173.5q0 36.5 31.5 71.5t73 35t62.5 -21.5t21 -58.5 t-32.5 -70.5t-72.5 -33.5t-61.5 20.5t-21.5 57z" />
<glyph unicode="&#xf7;" horiz-adv-x="1157" d="M131 614l23 123h901l-23 -123h-901zM449 377q0 37 32.5 70.5t72.5 33.5t61.5 -21t21.5 -58t-33 -71t-73 -34t-61 21.5t-21 58.5zM549 950q0 37 32.5 71t72.5 34t61.5 -20.5t21.5 -57.5t-31.5 -72t-72.5 -35t-62.5 21.5t-21.5 58.5z" />
<glyph unicode="&#xf8;" horiz-adv-x="1081" d="M33 0l102 119q-70 104 -69.5 230.5t38 236.5t109.5 198q163 199 401 199q131 0 222 -61l34 41h150l-105 -121q72 -100 72 -230.5t-39 -239t-110.5 -196.5t-173 -142t-228 -54t-221.5 61l-33 -41h-149zM258 384q0 -70 8 -116l479 549q-55 84 -143 84t-151.5 -57.5 t-106.5 -140t-64.5 -177t-21.5 -142.5zM307 145q50 -84 141 -84t154.5 57.5t106.5 140.5t64.5 177t21.5 142q0 76 -9 116z" />
<glyph unicode="&#xf9;" horiz-adv-x="1099" d="M51 922l6 41h164q82 0 119 -25t37 -100q0 -42 -21 -156.5t-35 -199.5t-21 -129q-9 -57 -9 -97.5t15.5 -78.5t41.5 -61q47 -44 117 -44q115 0 233 108l138 783h184l-168 -963h-102l-58 82h-10q-123 -102 -285 -102q-295 0 -295 266q0 33 25 175q61 346 61 394 q0 107 -116 107h-21zM457 1292h195l34 -266h-81z" />
<glyph unicode="&#xfa;" horiz-adv-x="1099" d="M51 922l6 41h164q82 0 119 -25t37 -100q0 -42 -21 -156.5t-35 -199.5t-21 -129q-9 -57 -9 -97.5t15.5 -78.5t41.5 -61q47 -44 117 -44q115 0 233 108l138 783h184l-168 -963h-102l-58 82h-10q-123 -102 -285 -102q-295 0 -295 266q0 33 25 175q61 346 61 394 q0 107 -116 107h-21zM573 1026l129 266h195l-242 -266h-82z" />
<glyph unicode="&#xfb;" horiz-adv-x="1099" d="M51 922l6 41h164q82 0 119 -25t37 -100q0 -42 -21 -156.5t-35 -199.5t-21 -129q-9 -57 -9 -97.5t15.5 -78.5t41.5 -61q47 -44 117 -44q115 0 233 108l138 783h184l-168 -963h-102l-58 82h-10q-123 -102 -285 -102q-295 0 -295 266q0 33 25 175q61 346 61 394 q0 107 -116 107h-21zM344 1078l204 235h226l123 -235h-103l-145 164l-203 -164h-102z" />
<glyph unicode="&#xfc;" horiz-adv-x="1099" d="M51 922l6 41h164q82 0 119 -25t37 -100q0 -42 -21 -156.5t-35 -199.5t-21 -129q-9 -57 -9 -97.5t15.5 -78.5t41.5 -61q47 -44 117 -44q115 0 233 108l138 783h184l-168 -963h-102l-58 82h-10q-123 -102 -285 -102q-295 0 -295 266q0 33 25 175q61 346 61 394 q0 107 -116 107h-21zM367 1144.5q0 36.5 31.5 71.5t72.5 35t62.5 -21.5t21.5 -58.5t-32.5 -70.5t-72.5 -33.5t-61.5 20.5t-21.5 57zM715 1144.5q0 36.5 31.5 71.5t73 35t62.5 -21.5t21 -58.5t-32.5 -70.5t-72.5 -33.5t-61.5 20.5t-21.5 57z" />
<glyph unicode="&#xfd;" horiz-adv-x="1052" d="M35 -410l12 62q100 0 152 32q98 61 161 183l62 113l-186 798q-34 147 -197 164l6 41h174q179 0 217 -164l133 -567l383 711h103l-592 -1096q-87 -163 -175 -223q-77 -54 -192 -54h-61zM606 1026l129 266h195l-242 -266h-82z" />
<glyph unicode="&#xfe;" horiz-adv-x="1077" d="M-18 -389q272 1524 272 1580t-24.5 88t-92.5 32h-31l9 41h174q82 0 117.5 -23.5t35.5 -101.5q0 -42 -18.5 -146.5t-36.5 -210.5q113 113 297 113q145 0 223 -101q72 -93 72 -257q0 -234 -119 -425q-61 -96 -153.5 -158t-224 -62t-240.5 61l-76 -430h-184zM256 123 q215 -121 347 -1q127 114 164 338q17 101 17 181q0 260 -176 260q-86 0 -141 -38t-94 -85z" />
<glyph unicode="&#xff;" horiz-adv-x="1052" d="M35 -410l12 62q100 0 152 32q98 61 161 183l62 113l-186 798q-34 147 -197 164l6 41h174q179 0 217 -164l133 -567l383 711h103l-592 -1096q-87 -163 -175 -223q-77 -54 -192 -54h-61zM422 1144.5q0 36.5 31.5 71.5t72.5 35t62.5 -21.5t21.5 -58.5t-32.5 -70.5 t-72.5 -33.5t-61.5 20.5t-21.5 57zM770 1144.5q0 36.5 31.5 71.5t73 35t62.5 -21.5t21 -58.5t-32.5 -70.5t-72.5 -33.5t-61.5 20.5t-21.5 57z" />
<glyph unicode="&#x152;" horiz-adv-x="1935" d="M98 514q0 154 54.5 309.5t155 282.5t243.5 207t295.5 80t245.5 -41h677q88 0 119 -35t31 -84q0 -1 -31 -199h-41q6 33 6 62q0 92 -57 133t-164 41h-381l-94 -533h553l-14 -82h-553l-101 -573h359q139 0 229 51t158 174l39 -10l-107 -195q-54 -102 -170 -102h-696 q-105 -41 -232.5 -41t-225 42t-162.5 115q-136 153 -136 398zM299 459q0 -191 86 -304.5t250 -113.5q127 0 227 65l201 1143q-80 61 -191.5 61.5t-191.5 -38.5t-141.5 -103.5t-107.5 -150.5t-75 -180q-57 -188 -57 -379z" />
<glyph unicode="&#x153;" horiz-adv-x="1611" d="M66 367q0 109 37.5 219t109.5 198q163 199 401 199q199 0 289 -121q125 121 295 121q267 0 324 -141q18 -43 18 -109.5t-36 -127t-96 -99.5q-117 -76 -300 -76h-213q-6 -43 -6 -92q0 -125 55 -201t159.5 -76t178.5 43t141 121l35 -30q-90 -117 -189.5 -166t-215.5 -49 q-183 0 -287 122q-145 -122 -328 -122q-177 0 -278 110q-94 102 -94 277zM258 377.5q0 -152.5 50.5 -234.5t136.5 -82t149 51.5t119 143.5q-13 75 -13 113q0 169 91 338q-16 86 -64.5 140t-130.5 54t-146.5 -58.5t-106.5 -142.5q-85 -170 -85 -322.5zM909 512h203 q98 0 166 61.5t68 171.5q0 72 -34 109t-95.5 37t-106.5 -27.5t-84 -75.5q-82 -99 -117 -276z" />
<glyph unicode="&#x178;" horiz-adv-x="1288" d="M72 1311l8 41h184q145 0 226 -143q22 -40 40 -83l218 -460l548 686h93l-617 -779l-100 -573h-185l99 559l-256 526q-57 111 -92 148q-67 71 -166 78zM598 1500q0 42 35 80t88 38q86 0 86 -87q0 -42 -35 -80t-82 -38t-69.5 22.5t-22.5 64.5zM946 1500q0 42 35 80t88 38 q86 0 86 -87q0 -42 -34.5 -80t-82 -38t-70 22.5t-22.5 64.5z" />
<glyph unicode="&#x2c6;" horiz-adv-x="634" d="M197 1352l204 235h226l123 -235h-103l-145 164l-203 -164h-102z" />
<glyph unicode="&#x2dc;" horiz-adv-x="542" d="M203 1393q20 109 58 151.5t85 42.5t71.5 -13t46.5 -28q56 -41 97 -41q21 0 40 21q31 32 36 61h61q-18 -109 -57 -151.5t-86 -42.5t-70.5 12t-44.5 27q-59 43 -100 43q-33 0 -66 -55q-8 -15 -10 -27h-61z" />
<glyph unicode="&#x2000;" horiz-adv-x="874" />
<glyph unicode="&#x2001;" horiz-adv-x="1749" />
<glyph unicode="&#x2002;" horiz-adv-x="874" />
<glyph unicode="&#x2003;" horiz-adv-x="1749" />
<glyph unicode="&#x2004;" horiz-adv-x="583" />
<glyph unicode="&#x2005;" horiz-adv-x="437" />
<glyph unicode="&#x2006;" horiz-adv-x="291" />
<glyph unicode="&#x2007;" horiz-adv-x="291" />
<glyph unicode="&#x2008;" horiz-adv-x="218" />
<glyph unicode="&#x2009;" horiz-adv-x="349" />
<glyph unicode="&#x200a;" horiz-adv-x="97" />
<glyph unicode="&#x2010;" horiz-adv-x="796" d="M121 471l24 143h523l-25 -143h-522z" />
<glyph unicode="&#x2011;" horiz-adv-x="796" d="M121 471l24 143h523l-25 -143h-522z" />
<glyph unicode="&#x2012;" horiz-adv-x="796" d="M121 471l24 143h523l-25 -143h-522z" />
<glyph unicode="&#x2013;" horiz-adv-x="1255" d="M127 471l23 123h962l-22 -123h-963z" />
<glyph unicode="&#x2014;" horiz-adv-x="1808" d="M127 471l23 123h1515l-23 -123h-1515z" />
<glyph unicode="&#x2018;" horiz-adv-x="468" d="M180 985.5q0 59.5 23.5 119.5t64.5 113q79 103 207 175l17 -31q-86 -53 -141.5 -118.5t-71.5 -158.5l65 21q41 0 67.5 -26.5t26.5 -74.5t-44 -91.5t-100 -43.5t-85 28t-29 87.5z" />
<glyph unicode="&#x2019;" horiz-adv-x="471" d="M184 901q86 53 141.5 118.5t71.5 158.5l-65 -21q-41 0 -67.5 26.5t-26.5 74.5t43 91.5t102 43.5q113 0 113 -107q0 -122 -90 -242q-78 -102 -207 -174z" />
<glyph unicode="&#x201a;" horiz-adv-x="493" d="M-20 -287q183 113 213 277l-66 -21q-41 0 -67.5 27t-26.5 73.5t43 91t102 44.5q113 0 113 -107q0 -124 -90 -242q-80 -104 -207 -173z" />
<glyph unicode="&#x201c;" horiz-adv-x="837" d="M180 985.5q0 59.5 23.5 119.5t64.5 113q79 103 207 175l17 -31q-86 -53 -141.5 -118.5t-71.5 -158.5l65 21q41 0 67.5 -26.5t26.5 -74.5t-44 -91.5t-100 -43.5t-85 28t-29 87.5zM549 977q0 188 182 339q53 44 113 77l16 -31q-86 -53 -141 -118.5t-72 -158.5l66 21 q41 0 67.5 -26.5t26.5 -74.5t-44 -91.5t-101 -43.5q-113 0 -113 107z" />
<glyph unicode="&#x201d;" horiz-adv-x="839" d="M184 901q86 53 141.5 118.5t71.5 158.5l-65 -21q-41 0 -67.5 26.5t-26.5 74.5t43 91.5t102 43.5q113 0 113 -107q0 -122 -90 -242q-78 -102 -207 -174zM553 901q86 53 141.5 118.5t71.5 158.5l-66 -21q-41 0 -67.5 26.5t-26.5 74.5t43 91.5t103 43.5q112 0 112 -107 q0 -124 -90 -242q-80 -104 -207 -174z" />
<glyph unicode="&#x201e;" horiz-adv-x="862" d="M-20 -287q183 113 213 277l-66 -21q-41 0 -67.5 27t-26.5 73.5t43 91t102 44.5q113 0 113 -107q0 -124 -90 -242q-80 -104 -207 -173zM348 -287q185 114 213 277l-65 -21q-41 0 -68 27t-27 73.5t43 91t103 44.5q112 0 112 -107q0 -124 -90 -242q-82 -106 -207 -173z" />
<glyph unicode="&#x2022;" horiz-adv-x="694" d="M115 609.5q0 72.5 22.5 125.5t61.5 94t92.5 67t133 26t134.5 -54.5t55 -127t-22.5 -126t-61.5 -94.5q-84 -90 -193 -90t-165.5 53.5t-56.5 126z" />
<glyph unicode="&#x2026;" horiz-adv-x="1320" d="M35 55.5q0 32.5 10 56t28.5 42t42 30t58.5 11.5t60.5 -27t25.5 -71t-40 -85t-87 -41t-72.5 26t-25.5 58.5zM465 55.5q0 32.5 10 56t28.5 42t42 30t58.5 11.5t60.5 -27t25.5 -71t-40 -85t-87 -41t-72.5 26t-25.5 58.5zM895 55.5q0 32.5 10 56t28.5 42t42 30t58.5 11.5 t60.5 -27t25.5 -71t-40 -85t-87 -41t-72.5 26t-25.5 58.5z" />
<glyph unicode="&#x202f;" horiz-adv-x="349" />
<glyph unicode="&#x2039;" horiz-adv-x="624" d="M53 461l430 399h82l-297 -399l156 -400h-82z" />
<glyph unicode="&#x203a;" horiz-adv-x="620" d="M20 61l295 400l-153 399h82l286 -399l-428 -400h-82z" />
<glyph unicode="&#x205f;" horiz-adv-x="437" />
<glyph unicode="&#x20ac;" horiz-adv-x="1497" d="M51 522l37 82h123l20 123h-112l35 82h106q90 250 293 417t430 167q160 0 292 -51q73 -29 123 -81.5t50 -135t-23 -189.5l-2 -14h-41q-8 389 -352 389q-302 0 -470 -267q-60 -96 -101 -235h411l-34 -82h-400l-20 -123h389l-37 -82h-360v-26q0 -313 214 -418 q76 -37 208 -37q261 0 489 287l35 -31q-192 -271 -447 -321q-84 -17 -193.5 -17t-207.5 41t-165 114q-136 150 -136 394v14h-154z" />
<glyph unicode="&#x2122;" horiz-adv-x="1812" d="M207 1137l16 92q10 47 39 85t98 38h560l-11 -62h-268l-117 -661h-137l117 661h-78q-70 0 -122 -39t-66 -114h-31zM862 629l127 723h146l139 -508l319 508h138q-93 -522 -93 -577t21.5 -100.5t66.5 -45.5l-6 -31q-123 0 -172 47t-49 133q0 58 66 414l-351 -563h-30 l-160 577l-100 -577h-62z" />
<glyph unicode="&#xe000;" horiz-adv-x="962" d="M0 0v963h963v-963h-963z" />
</font>
</defs>
</svg>
