<?xml version="1.0" standalone="no"?>
<!DOCTYPE svg PUBLIC "-//W3C//DTD SVG 1.1//EN" "http://www.w3.org/Graphics/SVG/1.1/DTD/svg11.dtd" >
<svg xmlns="http://www.w3.org/2000/svg">
<metadata></metadata>
<defs>
<font id="PhilosopherBoldItalic" horiz-adv-x="1126" >
<font-face units-per-em="2048" ascent="1638" descent="-410" />
<missing-glyph horiz-adv-x="512" />
<glyph horiz-adv-x="0" />
<glyph horiz-adv-x="2048" />
<glyph unicode="&#xd;" horiz-adv-x="552" />
<glyph unicode=" "  horiz-adv-x="512" />
<glyph unicode="&#x09;" horiz-adv-x="512" />
<glyph unicode="&#xa0;" horiz-adv-x="512" />
<glyph unicode="!" horiz-adv-x="507" d="M43 66q0 61 40 108t110 47q104 0 104 -96q0 -59 -41 -106.5t-100 -47.5q-113 0 -113 95zM113 317l143 1035h272l-223 -1035h-192z" />
<glyph unicode="&#x22;" horiz-adv-x="802" d="M193 799l36 553h267l-160 -553h-143zM541 799l37 553h266l-160 -553h-143z" />
<glyph unicode="#" horiz-adv-x="1437" d="M25 352l22 133h279l139 361h-232l25 133h260l156 403h203l-156 -403h260l156 403h202l-155 -403h262l-25 -133h-291l-137 -361h242l-23 -133h-270l-135 -352h-203l135 352h-260l-135 -352h-203l135 352h-251zM530 485h258l140 361h-260z" />
<glyph unicode="$" horiz-adv-x="1130" d="M23 176.5q0 39.5 43 274.5h57v-17q0 -184 66.5 -271t203.5 -104l92 529l-125 84q-104 68 -149 138.5t-45 159.5t38 162.5t100 127.5q123 104 323 126l20 119h144l-21 -121q230 -20 316 -134q28 -38 28 -83q0 -5 -45 -264h-57v17q0 184 -66.5 271t-191.5 101l-88 -493 l153 -101q106 -72 158.5 -138t52.5 -160t-43 -171t-115 -131q-142 -109 -352 -131l-24 -131h-144l25 133q-240 20 -325 131q-29 37 -29 76.5zM420 1075.5q0 -71.5 31.5 -110.5t87.5 -80l69 401q-76 -23 -132 -81t-56 -129.5zM537 63q85 16 151 77q68 62 68 141.5t-38 126.5 t-104 94z" />
<glyph unicode="%" horiz-adv-x="1552" d="M74 0l1229 1352h217l-1229 -1352h-217zM147 1022q0 147 114 246q109 94 255.5 94t220.5 -57.5t74 -148.5t-29.5 -154.5t-81.5 -108.5q-109 -96 -256 -96t-222 58t-75 167zM311 1018q0 -139 133 -139q94 0 153 83q50 71 50 181q0 137 -133 137q-93 0 -150 -84 q-53 -76 -53 -178zM780 215q0 147 114 246q109 94 255.5 94t220.5 -58.5t74 -150.5t-30 -154.5t-81 -107.5q-107 -94 -255 -94t-223 58t-75 167zM944 211q0 -139 133 -139q92 0 149 80q54 73 54 160.5t-34.5 124t-92 36.5t-95.5 -23.5t-64 -60.5q-50 -73 -50 -178z" />
<glyph unicode="&#x26;" horiz-adv-x="1296" d="M10 221q0 211 256 367q70 43 142 80q-92 92 -140 226q-20 58 -20 135t40 147.5t106 118.5q133 98 311 98t262 -65.5t84 -159t-37 -160t-96 -122.5q-90 -88 -263 -190l308 -409q117 107 217 248l67 -52q-93 -148 -227 -272l162 -211h-279l-65 78l-29 -18q-76 -49 -172 -75 t-197.5 -26t-188.5 20.5t-141 55.5q-100 66 -100 186zM279 244q0 -203 219 -203q156 0 290 106l-315 422q-76 -59 -135 -143t-59 -182zM512 1022q0 -152 84 -242q209 166 209 385q0 80 -32 113t-78 33t-83 -30t-60 -76q-40 -83 -40 -183z" />
<glyph unicode="'" horiz-adv-x="454" d="M193 799l36 553h267l-160 -553h-143z" />
<glyph unicode="(" horiz-adv-x="657" d="M20 303q0 345 212 647q189 269 530 484l20 -41q-248 -197 -386 -551q-126 -320 -126 -683t195 -569l-35 -41q-410 311 -410 754z" />
<glyph unicode=")" horiz-adv-x="657" d="M-152 -410q250 199 388 549q124 318 124 681.5t-196 572.5l37 41q409 -310 409 -756q0 -507 -446 -908q-135 -122 -293 -221z" />
<glyph unicode="*" horiz-adv-x="892" d="M137 905l314 103l-277 102l131 176l170 -182l-6 248h229l-92 -248l232 182l69 -176l-313 -102l276 -103l-131 -176l-170 184l9 -249h-230l92 247l-233 -182z" />
<glyph unicode="+" horiz-adv-x="1120" d="M72 604l24 144h404l69 399h185l-70 -399h403l-24 -144h-404l-71 -399h-185l72 399h-403z" />
<glyph unicode="," horiz-adv-x="471" d="M-53 -279q114 68 180 171q25 40 33 85l-33 -6q-51 0 -77.5 26t-26.5 78t39.5 99t103 47t90.5 -35.5t27 -96.5t-26 -122t-69 -115q-76 -95 -215 -180z" />
<glyph unicode="-" horiz-adv-x="813" d="M98 444l35 195h572l-35 -195h-572z" />
<glyph unicode="." horiz-adv-x="462" d="M23 66q0 61 39.5 108t109.5 47q104 0 104 -96q0 -59 -40.5 -106.5t-99.5 -47.5q-113 0 -113 95z" />
<glyph unicode="/" horiz-adv-x="983" d="M-51 0l895 1352h229l-895 -1352h-229z" />
<glyph unicode="0" horiz-adv-x="1247" d="M86 426q0 216 64 427q70 233 214 377q165 163 404 163q432 0 432 -469q0 -353 -152 -631q-112 -206 -304 -290q-101 -44 -228 -44q-430 0 -430 467zM360 306.5q0 -117.5 42 -186.5t130 -69q111 0 208 168q81 141 136 383q50 217 50 412q0 286 -174 286q-165 0 -285 -346 q-68 -195 -95 -422q-12 -108 -12 -225.5z" />
<glyph unicode="1" horiz-adv-x="663" d="M102 1059l367 293h178l-237 -1352h-267l195 1110l-199 -115z" />
<glyph unicode="2" horiz-adv-x="1105" d="M-12 0l22 133q59 49 140 113.5t169.5 140.5t175.5 161t155 174q153 198 153 365q0 111 -54.5 162t-125.5 51q-275 0 -398 -358h-71q12 78 32.5 159t65.5 128q68 68 183.5 116t244.5 48q270 0 370 -151q40 -60 40 -161.5t-55.5 -207t-141.5 -204t-191.5 -186.5 t-207 -162.5t-185.5 -133t-129 -95.5h424q123 0 200 58.5t97 166.5h62l-27 -153q-14 -73 -45 -104q-60 -60 -158 -60h-745z" />
<glyph unicode="3" horiz-adv-x="1112" d="M-14 180l67 60q70 -96 157 -142.5t172 -46.5t149.5 35t109.5 94q94 122 94 287q0 229 -233 229q-111 0 -203 -39l-35 78l651 525h-366q-123 0 -200 -58.5t-95 -167.5h-61l26 154q14 73 45 104q60 60 158 60h692l-16 -92l-594 -480q56 8 125 8t137 -17t125 -56 q131 -90 131 -256q0 -214 -173 -359q-167 -141 -390 -141q-267 0 -398 131q-41 41 -75 90z" />
<glyph unicode="4" horiz-adv-x="1175" d="M-18 348l16 82l870 922h213l-161 -912h184l-17 -92h-184l-59 -348h-266l59 348h-655zM139 440h514l119 672z" />
<glyph unicode="5" horiz-adv-x="1124" d="M8 180l70 53q61 -96 150 -139t174.5 -43t150.5 36t111 95q92 118 92 287q0 236 -277 236q-98 0 -264 -48l-68 80l132 615h796l-16 -90h-559l-103 -474q171 11 213 11t123.5 -15.5t150.5 -53.5q158 -88 158 -263q0 -239 -181 -379q-165 -129 -425 -129q-229 0 -355 129 q-40 41 -73 92z" />
<glyph unicode="6" horiz-adv-x="1148" d="M86 426q0 379 158 646q117 197 324 279q106 42 208 42q140 0 224.5 -25.5t123.5 -44.5l-22 -57q-183 34 -268 34q-154 0 -267.5 -124.5t-160.5 -387.5q73 53 156 76t165 23t150.5 -22.5t112.5 -64.5q83 -79 83 -239q0 -242 -157 -418q-74 -84 -181.5 -134t-238.5 -50 q-410 0 -410 467zM354 346q0 -295 158 -295q78 0 133 59.5t89 142.5q65 159 65 327q0 215 -166 215q-77 0 -168 -51q-35 -19 -55.5 -35.5t-20.5 -18.5q-35 -202 -35 -344z" />
<glyph unicode="7" horiz-adv-x="974" d="M96 0l733 1260h-348q-123 0 -199.5 -58.5t-95.5 -167.5h-61l27 154q14 74 45 105q59 59 157 59h740l-17 -92l-733 -1260h-248z" />
<glyph unicode="8" horiz-adv-x="1187" d="M29 254q0 82 36.5 149.5t96.5 119.5q100 88 282 163q-113 67 -154 114q-79 90 -79 190.5t44 177.5t117 128q142 97 365 97q290 0 378 -141q32 -52 32 -126q0 -246 -340 -393q124 -75 172 -127q90 -97 90 -211.5t-51 -197t-133 -135.5q-157 -103 -400 -103 q-317 0 -421 159q-35 54 -35 136zM305 259.5q0 -115.5 53.5 -162t127 -46.5t126 22.5t90.5 60.5q82 84 82 206q0 135 -148 238q-44 30 -93 59q-111 -57 -174.5 -159.5t-63.5 -218zM496 1052q0 -92 63.5 -155t149.5 -111q80 55 120.5 148.5t40.5 169t-14 108.5t-35.5 52.5 t-48 27.5t-63.5 8t-78 -22.5t-71 -57.5q-64 -76 -64 -168z" />
<glyph unicode="9" horiz-adv-x="1148" d="M59 29l23 57q150 -35 268 -35q154 0 267.5 125t160.5 387q-142 -98 -321 -98t-261.5 87t-82.5 221.5t40 242.5t115 192q164 185 420 185q412 0 412 -469q0 -370 -161 -644q-117 -200 -325 -280q-106 -41 -208 -41q-156 0 -259 35q-49 14 -88 35zM387 802.5 q0 -138.5 39 -192t125 -53.5q77 0 168 51q35 19 55.5 35t20.5 19q37 209 36 344q0 294 -159 294q-80 0 -134.5 -59t-87.5 -143q-63 -157 -63 -295.5z" />
<glyph unicode=":" horiz-adv-x="489" d="M35 66q0 61 40 108t109 47q105 0 105 -96q0 -59 -41 -106.5t-100 -47.5q-113 0 -113 95zM162 791q0 59 41 106t108 47q105 0 105 -96q0 -59 -41 -106.5t-109 -47.5q-104 0 -104 97z" />
<glyph unicode=";" horiz-adv-x="514" d="M-31 -279q117 69 181 171q24 40 32 85l-32 -6q-51 0 -78 26t-27 78t40 99t103 47q117 0 117 -123q0 -190 -193 -344q-57 -45 -116 -82zM172 791q0 59 41 106t109 47q104 0 104 -96q0 -59 -41 -106.5t-109 -47.5q-104 0 -104 97z" />
<glyph unicode="&#x3c;" horiz-adv-x="1251" d="M68 614l26 144l1147 463l-33 -187l-864 -348l741 -348l-32 -186z" />
<glyph unicode="=" horiz-adv-x="1372" d="M96 420l25 143h1124l-24 -143h-1125zM160 788l26 144h1125l-27 -144h-1124z" />
<glyph unicode="&#x3e;" horiz-adv-x="1249" d="M51 152l33 186l864 348l-741 348l33 187l983 -463l-27 -144z" />
<glyph unicode="?" horiz-adv-x="1024" d="M121 915q2 4 2 8.5t9 49.5t29.5 125t67.5 129q118 111 311 153q64 13 137 13t142.5 -20.5t119.5 -60.5q105 -84 105 -235q0 -224 -222 -401q-155 -123 -219 -199t-93 -158h-139q28 119 133 261q43 59 89 115.5t83 118.5q84 142 84 272.5t-47 172t-123 41.5 q-267 0 -408 -385h-61zM274 75q0 52 40 99t110 47q104 0 104 -96q0 -59 -41 -106.5t-100 -47.5t-86 26t-27 78z" />
<glyph unicode="@" horiz-adv-x="1796" d="M41 293q0 209 67.5 407.5t195.5 352t315.5 247t427.5 93.5q322 0 511 -168q191 -169 191 -480q0 -280 -123 -485q-65 -108 -169.5 -179t-254.5 -71q-84 0 -124 14q-87 29 -111 99q-106 -113 -256 -113q-177 0 -269 105q-86 98 -86 260q0 106 35 220t102.5 207t167 152.5 t237.5 59.5t206 -113h10l88 92h174l-139 -784q-2 -10 -2 -31q0 -74 63 -74t109.5 34t80.5 89.5t56.5 125t35.5 139.5q26 142 26 265t-40 226.5t-115 174.5q-150 142 -421 142q-207 0 -364.5 -85t-265 -225t-162 -321.5t-54.5 -350t40 -275t114 -177.5q148 -142 416 -142 q368 0 682 194l39 -82q-330 -205 -738 -205q-323 0 -507 168q-189 174 -189 494zM627 322q0 -220 141 -220q73 0 150 66q33 29 59 68l96 552q-22 69 -83 112q-30 22 -80 22t-92 -33t-74.5 -85t-54 -117.5t-35.5 -132.5q-27 -122 -27 -232z" />
<glyph unicode="A" horiz-adv-x="1325" d="M-76 0l842 1352h92l266 -1094q48 -190 176 -205l-8 -51q-40 -10 -94.5 -10t-109 9t-103.5 37q-114 65 -149 220l-27 115h-545l-233 -373h-107zM324 465h462l-131 534z" />
<glyph unicode="B" horiz-adv-x="1323" d="M98 0q49 281 83 474.5t56.5 322.5t35 201.5t18.5 110.5q8 51 8 86.5t-25.5 65t-91.5 29.5h-20l10 62h553q232 0 363 -48q184 -69 184 -243q0 -134 -102 -233q-93 -89 -240 -130q295 -29 295 -254q0 -236 -215 -350q-178 -94 -461 -94h-451zM381 102q53 -20 141 -20h10 q165 0 279 86q125 94 125 262q0 217 -305 217h-154zM494 739h153q146 0 239 85q101 92 101 237q0 109 -85 163q-71 46 -159 46t-114 -6t-43 -9z" />
<glyph unicode="C" horiz-adv-x="1392" d="M78 504q0 158 60.5 316.5t170 285.5t260 207t328.5 80q302 0 428 -135q51 -54 51 -133.5t-24 -209.5h-62q-4 186 -91 285.5t-249 99.5t-272.5 -77.5t-180 -199.5t-102.5 -267.5t-33 -258t19.5 -189.5t62.5 -134q93 -123 279 -123q141 0 275.5 75t232.5 218l61 -55 q-186 -254 -449 -311q-91 -19 -214 -19t-229.5 41t-177.5 112q-144 144 -144 392z" />
<glyph unicode="D" horiz-adv-x="1509" d="M98 0l191 1085q10 57 10 101q0 104 -117 104h-20l10 62h557q371 0 555 -140.5t184 -388.5q0 -184 -71.5 -336.5t-196.5 -260t-294 -167t-361 -59.5h-447zM381 96q70 -14 151 -14h21q141 0 254 66.5t192.5 172t121.5 238.5t42 266q0 205 -107.5 325t-297.5 120h-17 q-64 0 -98.5 -6t-56.5 -9z" />
<glyph unicode="E" horiz-adv-x="1232" d="M98 0q49 281 83 474.5t56.5 322.5t35 201.5t18.5 110.5q8 51 8 86.5t-25.5 65t-91.5 29.5h-20l10 62h903q88 0 119 -35t31 -68.5t-35 -234.5h-62q6 37 7 67q0 179 -220 179h-329l-90 -512h532l-16 -93h-533l-100 -563h350q113 0 201 50.5t166 183.5l51 -21l-88 -162 q-35 -66 -77 -104.5t-126 -38.5h-758z" />
<glyph unicode="F" horiz-adv-x="1110" d="M98 0l191 1085q10 57 10 101q0 104 -117 104h-20l10 62h858q88 0 119 -35t31 -68.5t-35 -234.5h-62q6 37 7 67q0 96 -56.5 137.5t-163.5 41.5h-284l-92 -523h450l-16 -92h-451l-112 -645h-267z" />
<glyph unicode="G" horiz-adv-x="1503" d="M82 559q0 158 61.5 307.5t169 266t256 188.5t324.5 72q310 0 439 -137q52 -56 52 -136t-20 -178h-61q-6 188 -96.5 273t-268.5 85q-196 0 -334 -136q-181 -178 -232 -515q-14 -96 -14 -186q0 -422 359 -422q159 0 287 53l63 365q20 110 98 167q113 83 344 83l-10 -52 q-130 0 -166 -194l-63 -367q-249 -137 -568 -137q-279 0 -451 170q-169 167 -169 430z" />
<glyph unicode="H" horiz-adv-x="1480" d="M98 0l191 1085q10 57 10 101q0 104 -117 104h-20l10 62h246q80 0 115.5 -30t35.5 -97.5t-14 -139.5l-59 -337h553l106 604h266l-192 -1086q-8 -50 -8 -95.5t24.5 -77.5t91.5 -32h21l-10 -61h-246q-82 0 -117 30.5t-35 96t13 139.5l69 389h-553l-114 -655h-267z" />
<glyph unicode="I" horiz-adv-x="628" d="M98 126.5q0 65.5 13 139.5l192 1086h266l-192 -1086q-8 -50 -8 -95.5t24.5 -77.5t91.5 -32h21l-10 -61h-246q-82 0 -117 30.5t-35 96z" />
<glyph unicode="J" horiz-adv-x="573" d="M-184 -281l12 62q99 13 154 91q68 95 102 298l209 1182h266l-209 -1182q-23 -133 -57.5 -219t-95 -138.5t-152.5 -73t-229 -20.5z" />
<glyph unicode="K" horiz-adv-x="1421" d="M100 0q199 1141 199 1186q0 104 -117 104h-20l10 62h246q82 0 117.5 -31t35.5 -109q0 -47 -27.5 -198.5t-56.5 -317.5l433 441q205 215 401 215h143l-12 -72q-117 0 -216 -29.5t-185 -115.5l-371 -377l385 -492q59 -77 123 -127q106 -82 166 -90l-8 -49 q-62 -20 -136.5 -20t-131 9t-112.5 37q-124 59 -231 199l-268 344l-100 -569h-267z" />
<glyph unicode="L" horiz-adv-x="1161" d="M98 0l191 1085q10 57 10 101q0 104 -117 104h-20l10 62h246q80 0 115.5 -30t35.5 -97.5t-14 -139.5l-176 -993h706l-14 -92h-973z" />
<glyph unicode="M" horiz-adv-x="1779" d="M53 0l238 1352h250l317 -1006l598 1006h268l-178 -1004q-22 -134 -22 -205q0 -164 104 -184l-8 -51q-186 0 -270 71.5t-84 225.5q0 47 14 143l129 725l-637 -1073h-67l-355 1114l-194 -1114h-103z" />
<glyph unicode="N" horiz-adv-x="1423" d="M104 0q201 1153 201 1159q0 131 -158 131h-10l10 62h144q117 0 183.5 -31t103.5 -92l561 -819l166 942h102l-240 -1358h-94l-688 1020l-178 -1014h-103z" />
<glyph unicode="O" horiz-adv-x="1505" d="M82 542.5q0 141.5 59.5 297t167 278.5t258 199t307 76t261 -42t177.5 -117q148 -154 148 -407q0 -160 -59.5 -315.5t-167 -278t-258 -198.5t-307 -76t-261 42t-177 117t-110.5 179t-38 245.5zM360 453q0 -193 77.5 -297.5t224.5 -104.5q176 0 306 149q158 183 204 524 q12 93 12 173q0 195 -78 299t-225 104q-177 0 -305 -150q-158 -187 -204 -526q-12 -94 -12 -171z" />
<glyph unicode="P" horiz-adv-x="1187" d="M98 0q49 281 83 474.5t56.5 322.5t35 201.5t18.5 110.5q8 51 8 86.5t-25.5 65t-91.5 29.5h-20l10 62h563q313 0 437 -152q53 -65 53 -178t-48.5 -202t-128.5 -150q-162 -123 -393 -123h-194l-96 -547h-267zM475 629h123q160 0 254 127q88 120 88 291q0 117 -68 175 q-54 48 -130.5 48t-106 -6t-49.5 -9z" />
<glyph unicode="Q" horiz-adv-x="1509" d="M84 556q0 128 59.5 283.5t167 278.5t258 199t307 76t261 -42t177.5 -117q148 -154 148 -407q0 -282 -166 -515q-173 -243 -450 -326q23 -142 154 -251q122 -102 255 -102l-10 -53q-385 0 -640 219q-91 78 -165 193q-168 53 -263 196q-93 141 -93 368zM362 453 q0 -193 77.5 -297.5t224.5 -104.5q176 0 306 149q158 183 204 524q12 93 12 173q0 195 -78 299t-225 104q-177 0 -305 -150q-158 -187 -204 -526q-12 -94 -12 -171z" />
<glyph unicode="R" horiz-adv-x="1261" d="M98 0q49 281 83 474.5t56.5 322.5t35 201.5t18.5 110.5q8 51 8 86.5t-25.5 65t-91.5 29.5h-20l10 62h565q194 0 291.5 -42t149 -102.5t51.5 -153.5t-32 -161t-86 -118q-104 -96 -280 -140l152 -359q82 -201 215 -225l-8 -51q-40 -20 -118 -20t-125.5 14t-90.5 49 q-82 67 -156 233l-143 342h-82l-108 -618h-269zM489 700h123q144 0 239 104q93 101 93 253q0 161 -142 201q-40 12 -72 12q-63 0 -92.5 -6t-49.5 -9z" />
<glyph unicode="S" horiz-adv-x="1150" d="M33 186q0 30 43 265h57v-15q0 -205 82 -292t252 -87q114 0 201 57q98 65 98 181q0 72 -46 122t-124 103l-225 152q-104 68 -149.5 138.5t-45.5 163.5t44 172t118 133q151 110 364 110q165 0 292 -59q59 -27 94.5 -69t35.5 -78t-45 -280h-57v23q0 201 -81 285.5t-232 84.5 q-110 0 -190 -60q-89 -67 -89 -175q0 -70 47 -115t125 -98l227 -150q106 -72 158.5 -138t52.5 -165.5t-52 -182.5t-135 -138q-167 -109 -398 -109q-165 0 -291 59q-131 60 -131 162z" />
<glyph unicode="T" horiz-adv-x="1181" d="M109 1014l30 174q14 73 45 104q60 60 158 60h963l-17 -92h-428l-221 -1260h-266l221 1260h-145q-109 0 -181.5 -54.5t-97.5 -191.5h-61z" />
<glyph unicode="U" horiz-adv-x="1427" d="M176 399q0 68 35 270.5t58.5 337.5t23.5 179q0 104 -117 104l10 62h226q80 0 115.5 -30t35.5 -97.5t-20.5 -181.5t-39 -224t-30.5 -187t-20.5 -125t-11.5 -77q-5 -48 -5 -74q0 -141 57.5 -218t178.5 -77t206 32t146 97q113 119 164 400l135 762h102l-135 -762 q-52 -302 -196 -450q-154 -160 -453 -160q-242 0 -353.5 104t-111.5 315z" />
<glyph unicode="V" horiz-adv-x="1304" d="M59 1327l7 41l88 4q131 0 195.5 -34.5t102 -86t60.5 -139.5l188 -766l611 1006h104l-831 -1372h-82l-279 1132q-29 115 -66.5 161t-97.5 54z" />
<glyph unicode="W" horiz-adv-x="1853" d="M47 1327l6 41l88 4q138 0 200 -33.5t101 -86t58 -140.5l151 -706l279 524l-41 182q-25 117 -72 162t-106 53l6 41l82 4q140 0 202 -33.5t100 -86t56 -140.5l162 -745l524 985h99l-728 -1370h-81l-175 802l-421 -802h-82l-244 1130q-25 117 -65 162t-99 53z" />
<glyph unicode="X" horiz-adv-x="1320" d="M-66 0l615 637l-211 448q-37 80 -85 131q-83 87 -151 95l9 41h225q183 0 293 -226l131 -274l483 500h133l-573 -592l233 -494q36 -78 85 -129q84 -88 151 -96l-6 -41h-226q-102 0 -186 74q-62 54 -109 151l-151 320l-526 -545h-134z" />
<glyph unicode="Y" horiz-adv-x="1308" d="M59 1311l9 41h223q183 0 293 -226l204 -419l512 645h134l-598 -756l-105 -596h-266l94 541l-266 544q-37 80 -85 131q-83 87 -149 95z" />
<glyph unicode="Z" horiz-adv-x="1226" d="M-35 0l10 66l973 1196h-444q-109 0 -181.5 -54.5t-97.5 -193.5h-61l31 174q14 74 45 105q59 59 157 59h932l-1026 -1260h793l-15 -92h-1116z" />
<glyph unicode="[" horiz-adv-x="679" d="M-35 -410l318 1803h501l-16 -93h-256l-285 -1617h256l-16 -93h-502z" />
<glyph unicode="\" horiz-adv-x="972" d="M180 1352h230l419 -1352h-229z" />
<glyph unicode="]" horiz-adv-x="679" d="M-131 -410l16 93h254l285 1617h-256l16 93h502l-317 -1803h-500z" />
<glyph unicode="^" horiz-adv-x="1052" d="M57 676l566 717h90l315 -717h-201l-202 465l-367 -465h-201z" />
<glyph unicode="_" horiz-adv-x="888" d="M-104 -143l26 143h860l-26 -143h-860z" />
<glyph unicode="`" horiz-adv-x="464" d="M182 1393h256l56 -416h-152z" />
<glyph unicode="a" d="M49 348q0 106 36 219t103.5 205t167 151.5t237.5 59.5t204 -113h10l88 93h174l-168 -963h-174l-57 92h-11q-98 -112 -253 -112q-175 0 -270 106q-87 97 -87 262zM319 295q0 -223 144 -223q73 0 149 65q33 29 58 68l98 553q-22 69 -84 112q-31 21 -81 21t-92 -33 t-73.5 -84t-54.5 -116.5t-37 -131.5q-27 -129 -27 -231z" />
<glyph unicode="b" d="M27 0q200 1147 200 1189t-25.5 71.5t-90.5 29.5h-21l10 62h246q80 0 116 -30t36 -108q0 -36 -6.5 -73t-14.5 -88.5t-22 -130.5q111 61 215 61t172.5 -27.5t113.5 -77.5q88 -99 88 -270q0 -238 -136 -423q-66 -91 -165.5 -148t-228.5 -57q-110 0 -170 55q-31 25 -47 57 h-10l-86 -92h-174zM328 205q23 -74 83 -113q31 -20 82 -20t94.5 31.5t74 84t53 117t35.5 131.5q24 130 24 232t-33.5 162.5t-117.5 60.5q-57 0 -108.5 -22.5t-76.5 -39.5z" />
<glyph unicode="c" horiz-adv-x="1019" d="M51 369q0 256 161 432q167 182 429 182q138 0 199 -18.5t97 -51t36 -89.5t-27 -199h-61q2 12 2 25v24q0 217 -232 217q-92 0 -155.5 -60.5t-103.5 -148.5q-74 -163 -74 -360q0 -250 200 -250q106 0 181 49t141 121l55 -47q-80 -96 -144 -136q-131 -79 -290 -79 q-204 0 -313 111q-101 101 -101 278z" />
<glyph unicode="d" d="M51 354q0 241 139 425q68 91 169.5 147.5t225.5 56.5t212 -61q12 74 20 119.5t13 72.5q6 39 6 64q0 112 -117 112h-21l11 62h245q80 0 116 -30t36 -108q0 -51 -43 -292q-104 -584 -162 -922h-174l-57 92h-11q-98 -112 -253 -112q-176 0 -268 105q-87 99 -87 269zM322 295 q0 -102 31.5 -162.5t109.5 -60.5q73 0 149 65q33 29 58 68l110 624q-18 16 -42 29q-64 33 -136 33t-129 -67.5t-91 -163.5q-60 -168 -60 -365z" />
<glyph unicode="e" horiz-adv-x="1040" d="M51 373q0 244 154 421q165 189 416 189q182 0 282.5 -66.5t100.5 -183.5q0 -163 -149 -250q-125 -73 -314 -73h-215q-12 -66 -13 -115q0 -113 48.5 -168t142.5 -55t169 49t140 121l55 -47q-79 -95 -142 -135q-128 -80 -282 -80q-184 0 -290 109q-103 107 -103 284z M342 502h215q77 0 127 80q43 69 43 153t-38 120t-83 36t-84 -19.5t-72 -65.5q-75 -102 -108 -304z" />
<glyph unicode="f" horiz-adv-x="706" d="M-197 -389l9 51q98 17 152 98q60 90 95 291l144 819h-123l16 93h123l10 55q63 354 463 354q131 0 179 -33t65 -90l-94 -71q-50 102 -156 102q-70 0 -117 -56.5t-73 -205.5l-11 -55h267l-17 -93h-266l-143 -819q-46 -256 -158 -347q-115 -93 -365 -93z" />
<glyph unicode="g" d="M6 -195l72 48q49 -85 88 -115q74 -55 175.5 -55t185 91t120.5 298l2 10q-93 -62 -227 -62q-188 0 -277.5 99.5t-89.5 259.5q0 106 35 214.5t101.5 194.5t165 140.5t236.5 54.5t204 -113h10l88 93h174l-156 -891q-36 -217 -183 -348q-149 -134 -374 -134q-149 0 -243 73 q-59 46 -107 142zM326 331.5q0 -105.5 34.5 -162t118.5 -56.5q71 0 131 30q29 12 54 31l104 584q-22 69 -84 112q-31 21 -82 21t-93 -30t-72.5 -79t-52.5 -110.5t-35 -123.5q-23 -111 -23 -216.5z" />
<glyph unicode="h" horiz-adv-x="1118" d="M25 0l190 1085q10 57 10 101.5t-25.5 74t-90.5 29.5h-21l10 62h246q80 0 116 -30t36 -97.5t-15 -139.5l-32 -180q129 78 239 78q229 0 304 -143q28 -54 28 -130t-115 -710h-266q41 238 64.5 373t34.5 203q16 90 16 120q0 102 -43 143.5t-91 41.5q-97 0 -188 -72 l-141 -809h-266z" />
<glyph unicode="i" horiz-adv-x="555" d="M61 901l11 62h245q80 0 116 -30t36 -108q0 -38 -14 -129l-121 -696h-266l120 696q10 57 11 92q0 113 -117 113h-21zM260 1198q0 53 36 99t100.5 46t96 -35.5t31.5 -90.5t-31.5 -99.5t-100.5 -44.5t-100.5 36t-31.5 89z" />
<glyph unicode="j" horiz-adv-x="552" d="M-180 -389l8 51q99 17 152 98q62 94 93.5 277.5t52.5 302.5t34.5 198.5t21.5 126t12 71.5q5 41 5 52q0 113 -117 113h-21l11 62h245q80 0 116 -30t36 -108q0 -32 -13.5 -110t-27.5 -161t-34.5 -206t-47.5 -273.5t-63.5 -235.5t-98.5 -135q-114 -93 -364 -93zM260 1198 q0 53 36 99t100.5 46t96 -35.5t31.5 -88.5t-35.5 -99.5t-100.5 -46.5t-96.5 36t-31.5 89z" />
<glyph unicode="k" horiz-adv-x="1038" d="M27 0q200 1147 200 1189t-25.5 71.5t-90.5 29.5h-21l10 62h246q80 0 116 -30t36 -108q0 -67 -117 -712l301 303q84 84 133 111q88 47 189 47h40l-8 -54q-121 0 -223 -102l-242 -242l209 -360q78 -137 164 -156l-8 -49q-40 -20 -135.5 -20t-165.5 35.5t-121 127.5 l-152 258l-69 -401h-266z" />
<glyph unicode="l" horiz-adv-x="534" d="M35 0q201 1153 201 1178q0 112 -117 112h-21l11 62h245q80 0 116 -30t36 -108q0 -51 -43 -292q-104 -584 -162 -922h-266z" />
<glyph unicode="m" horiz-adv-x="1693" d="M61 901l11 62h202q137 0 162 -78h8q122 98 275 98q95 0 178 -45q57 -31 84 -72q122 117 311 117q303 0 303 -270q0 -60 -116 -713h-267q117 654 117 729.5t-36 113.5t-92 38t-106.5 -22.5t-80.5 -55.5q10 -40 10 -85t-119 -718h-266q117 654 117 729.5t-36 113.5t-87 38 t-101.5 -28t-74.5 -54v-11l2 -26q0 -4 -1 -12l-4 -34q-16 -140 -122 -716h-266q131 769 131 806.5t-25 66t-90 28.5h-21z" />
<glyph unicode="n" horiz-adv-x="1181" d="M61 901l11 62h202q70 0 107 -17.5t53 -58.5q112 96 297 96t268.5 -64.5t83.5 -205.5q0 -35 -10 -107l-106 -606h-267l107 608q8 47 8 94q0 98 -43 138.5t-111 40.5q-127 0 -200 -64q2 -22 2 -43q0 -35 -6 -65l-125 -709h-266l120 696q10 57 10 105q0 100 -114 100h-21z " />
<glyph unicode="o" horiz-adv-x="1132" d="M49 392q0 100 44 209.5t123 194.5q174 187 423 187q199 0 308 -113q106 -109 106 -284q0 -115 -44 -224.5t-123 -194.5q-174 -187 -423 -187q-198 0 -309 112q-105 107 -105 300zM322 322q0 -250 157 -250q84 0 141.5 63.5t93.5 152.5q66 163 66 353q0 250 -157 250 q-84 0 -141.5 -63.5t-93.5 -152.5q-66 -163 -66 -353z" />
<glyph unicode="p" horiz-adv-x="1165" d="M-4 -389q201 1153 201 1193t-25 68.5t-90 28.5h-21l11 62h202q70 0 108 -18.5t50 -67.5q132 106 297 106q175 0 267 -105q87 -100 87 -270q0 -253 -146 -434q-157 -194 -394 -194q-85 0 -134 21t-71 40l-76 -430h-266zM354 133q61 -61 164 -61q108 0 180 118 q85 136 109 376q6 61 6 132.5t-31.5 132t-109.5 60.5q-120 0 -213 -84v-10l2 -29v-11q0 -30 -107 -624z" />
<glyph unicode="q" horiz-adv-x="1124" d="M49 354q0 236 137 423q150 206 404 206q139 0 205 -113h10l88 93h174l-238 -1352h-266l76 430q-98 -61 -208.5 -61t-179.5 27.5t-114 77.5q-88 98 -88 269zM319 291q0 -98 34 -158.5t118 -60.5q71 0 131 30q29 12 53 31l111 625q-22 69 -84 112q-31 21 -82 21t-94 -32 t-74 -84t-53.5 -116.5t-34.5 -130.5q-25 -139 -25 -237z" />
<glyph unicode="r" horiz-adv-x="860" d="M61 901l11 62h202q70 0 107 -17.5t53 -58.5q125 96 275 96q138 0 180 -101q6 -14 12 -32l-119 -80q-40 80 -116 80q-132 0 -205 -64q-2 -14 -3 -29t-1 -32.5t-4 -36.5l-121 -688h-266q131 769 131 806.5t-25 66t-90 28.5h-21z" />
<glyph unicode="s" horiz-adv-x="960" d="M27 151q0 59 18 156h72v-6q0 -96 52 -162.5t173 -66.5q147 0 208 80q23 30 23 78t-46 82t-111 65l-99 45q-100 47 -157.5 104.5t-57.5 139.5q0 153 144 241q123 76 297 76q137 0 201 -21q139 -43 139 -153q0 -52 -19 -154h-71v7q0 96 -52.5 162.5t-173.5 66.5 q-76 0 -120 -30t-62 -59.5t-18 -73.5t31.5 -73.5t88.5 -54.5l115 -51q115 -51 175.5 -106.5t60.5 -141.5q0 -159 -156 -248q-127 -73 -315 -73q-136 0 -201.5 20t-102 56t-36.5 95z" />
<glyph unicode="t" horiz-adv-x="727" d="M98 870l17 93h123l32 184l125 123h164l-55 -307h225l-16 -93h-226q-116 -640 -116 -694q0 -104 84 -104q89 0 170 55l18 -57q-112 -90 -281 -90q-121 0 -186 56t-65 167q0 49 42 280.5t68 386.5h-123z" />
<glyph unicode="u" horiz-adv-x="1161" d="M39 901l10 62h246q80 0 115.5 -30t35.5 -97.5t-19.5 -176t-33.5 -194.5t-21 -133q-12 -81 -12 -99q0 -90 36 -125.5t92.5 -35.5t93.5 20q80 46 123 113l133 758h266l-168 -963h-174l-57 92h-11q-119 -112 -278.5 -112t-239.5 62t-80 202q0 52 40 280.5t40 272.5t-25.5 74 t-91.5 30h-20z" />
<glyph unicode="v" horiz-adv-x="1028" d="M35 938l8 41l76 4q139 0 214 -48q91 -58 134 -208l111 -393l389 629h110l-608 -983h-74l-215 747q-33 113 -63.5 160t-81.5 51z" />
<glyph unicode="w" horiz-adv-x="1589" d="M29 940l8 39l46 2l52 2q133 0 208 -53q80 -57 120 -203l104 -391l197 328l-19 63q-31 113 -64.5 161t-78.5 52l8 39l78 4q144 0 220 -52q91 -62 128 -204l117 -412l363 648h108l-549 -983h-94l-166 575l-338 -575h-92l-203 747q-31 115 -65.5 162t-87.5 51z" />
<glyph unicode="x" horiz-adv-x="1017" d="M-51 0l420 428l-138 330q-31 74 -73.5 114.5t-87.5 49.5l6 41h194q100 0 151.5 -44.5t82.5 -119.5l69 -166l326 330h137l-420 -426l140 -332q61 -146 162 -164l-7 -41h-194q-100 0 -151.5 44t-82.5 120l-71 166l-326 -330h-137z" />
<glyph unicode="y" horiz-adv-x="1042" d="M8 -410l12 72q112 0 169 32t92.5 69.5t70.5 97.5l62 110l-226 807q-44 148 -161 164l6 41h180q92 0 153.5 -44t84.5 -120l145 -516l365 660h108l-606 -1096q-91 -162 -178 -221q-82 -56 -195 -56h-82z" />
<glyph unicode="z" horiz-adv-x="1013" d="M-16 0l10 63l680 807h-242q-131 0 -191.5 -47t-76.5 -147h-62l21 123q14 73 45 104q60 60 158 60h729l-736 -871h539l-14 -92h-860z" />
<glyph unicode="{" horiz-adv-x="638" d="M-14 459l12 65q117 16 173 83t73 151l49 286q41 237 266 330q80 33 189 41l-13 -72q-72 -12 -107.5 -66t-52.5 -147l-61 -352q-20 -117 -91 -184t-206 -102q201 -57 201 -222q0 -74 -25.5 -194.5t-38 -183t-12.5 -123.5q0 -110 92 -129l-12 -72q-170 11 -257 96 q-75 73 -75 197q0 57 21.5 159.5t32 153.5t10.5 105q0 157 -168 180z" />
<glyph unicode="|" horiz-adv-x="540" d="M-31 -389l314 1782h266l-313 -1782h-267z" />
<glyph unicode="}" horiz-adv-x="638" d="M-135 -432l12 72q72 12 107.5 66t52.5 147l61 352q20 117 91 184.5t206 102.5q-201 57 -200 221q0 77 25.5 193t37.5 178.5t12 127.5q0 113 -94 131l12 72q172 -11 258 -96q74 -74 74 -197q0 -66 -21.5 -164t-31.5 -150t-10 -108q0 -153 170 -176l-13 -65 q-119 -16 -175 -83t-70 -151l-52 -286q-41 -238 -264 -330q-80 -33 -188 -41z" />
<glyph unicode="~" horiz-adv-x="1257" d="M74 383q29 160 102.5 239.5t200.5 79.5q76 0 145.5 -25.5t134 -56t125 -56t119.5 -25.5q164 0 184 123h82q-29 -160 -101.5 -240t-199.5 -80q-78 0 -146.5 25.5t-133 56.5t-125 56.5t-119.5 25.5q-162 0 -186 -123h-82z" />
<glyph unicode="&#xa1;" horiz-adv-x="493" d="M-59 -397l221 1034h192l-141 -1034h-272zM170 831q0 59 42 105.5t107 46.5q105 0 105 -102q0 -51 -39 -99.5t-101 -48.5q-114 0 -114 98z" />
<glyph unicode="&#xa2;" horiz-adv-x="1015" d="M37 369q0 230 143 401q148 178 385 209l15 86h122l-14 -84q121 -6 168 -25.5t74.5 -50.5t27.5 -87t-26 -193h-62q2 12 2 25v22q0 201 -200 217l-144 -817q96 4 167 53t134 117l56 -47q-80 -92 -133 -126q-115 -75 -240 -85l-14 -86h-123l14 86q-180 16 -266 122.5 t-86 262.5zM307 316q0 -175 101 -224l137 776q-126 -63 -187 -236q-51 -141 -51 -316z" />
<glyph unicode="&#xa3;" horiz-adv-x="1097" d="M-25 0l11 61q82 25 122 107q43 84 78 283l37 204h-123l17 93h123l34 194q41 235 202 345q125 85 294 85q136 0 195 -19.5t93 -53t34 -95.5q0 -24 -13 -108h-112q-6 100 -50.5 142t-102.5 42t-96 -15.5t-72 -54.5q-72 -82 -105 -268l-35 -194h266l-16 -93h-267l-36 -204 q-42 -241 -207 -359h389q123 0 190.5 61.5t89.5 184.5h62l-31 -174q-14 -73 -45 -104q-60 -60 -158 -60h-768z" />
<glyph unicode="&#xa4;" horiz-adv-x="1243" d="M104 389l17 92h102l19 103h-103l17 92h102q82 444 82 498.5t-24.5 85t-92.5 30.5h-20l10 62h563q214 0 344 -74q140 -79 140 -231q0 -221 -203 -351q-176 -112 -426 -112h-123l-19 -103h512l-16 -92h-512l-67 -389h-267l68 389h-103zM524 676h123q146 4 238 114 q88 106 88 261q0 107 -69 167q-58 52 -142 52q-95 0 -135 -10z" />
<glyph unicode="&#xa5;" horiz-adv-x="1466" d="M174 1311l8 41h224q188 0 292 -226l205 -419l512 645h133l-598 -756l-10 -53h176l-16 -92h-176l-15 -82h176l-16 -93h-176l-47 -276h-266l47 276h-172l16 93h172l14 82h-172l17 92h170l-264 542q-38 82 -86 131q-84 87 -148 95z" />
<glyph unicode="&#xa6;" horiz-adv-x="546" d="M-29 -389l127 723h267l-127 -723h-267zM158 670l127 723h266l-127 -723h-266z" />
<glyph unicode="&#xa7;" horiz-adv-x="925" d="M-31 -223q0 18 17 123h65v-13q0 -96 46 -150t138 -54t146.5 64.5t54.5 160.5q0 85 -97 166q-28 24 -58.5 50t-69.5 53.5t-73 60.5q-79 78 -79 178q0 110 89 207q79 85 198 135q-149 111 -149 250q0 160 125 263q124 101 292 101q196 0 276 -92q32 -37 32 -80.5 t-15 -136.5h-65v6q0 98 -45.5 154.5t-138.5 56.5t-146 -64.5t-53 -151.5t48 -135t99 -85t89 -66.5t69 -64.5q70 -79 70 -153t-24 -125.5t-64 -93.5q-78 -83 -203 -136q153 -109 153 -252q0 -157 -126 -263q-120 -100 -291 -100q-199 0 -278 90q-32 37 -32 97zM295 490 q0 -123 180 -234q59 23 90 85t31 133t-51 127t-127 104q-57 -23 -90 -83.5t-33 -131.5z" />
<glyph unicode="&#xa8;" horiz-adv-x="577" d="M164 1513q0 47 40 88t97 41q96 0 96 -97q0 -46 -39 -89t-92 -43t-77.5 26.5t-24.5 73.5zM512 1513q0 47 40 88t97 41q96 0 96 -97q0 -46 -38.5 -89t-92 -43t-78 26.5t-24.5 73.5z" />
<glyph unicode="&#xa9;" horiz-adv-x="1650" d="M74 537q0 172 70.5 329.5t192.5 278.5t286 192.5t329.5 71.5t284.5 -44t203 -122q174 -162 174 -430q0 -172 -70.5 -328.5t-193.5 -277.5t-287 -192.5t-328.5 -71.5t-283.5 44t-203 121q-174 161 -174 429zM217 560q0 -134 36 -227t102.5 -158.5t160.5 -102.5t230.5 -37 t270.5 63.5t235.5 170t159.5 246.5t58 273.5t-35.5 227.5t-102.5 160q-140 141 -376 141q-154 0 -289 -63.5t-235 -171t-157.5 -248t-57.5 -274.5zM393 573q0 100 40 205t111.5 189t169 137t214.5 53q212 0 296 -95q33 -38 33 -96t-14 -128h-63q-2 131 -54.5 192.5 t-160 61.5t-177 -51.5t-114.5 -130.5q-88 -154 -88 -353q0 -196 123 -261q43 -22 104 -22q176 0 330 197l45 -37q-88 -123 -191.5 -174t-214 -51t-179 27.5t-115.5 75.5q-95 99 -95 261z" />
<glyph unicode="&#xaa;" horiz-adv-x="661" d="M150 924q0 104 104 156q81 40 209 40h33q8 50 8 80q0 100 -72 100q-57 0 -89 -28.5t-52 -77.5h-60q12 85 52 119q39 39 180 39q140 0 174 -76q14 -31 14 -80l-61 -375h-94l-35 51q-70 -61 -154 -61q-157 0 -157 113zM297 928q0 -37 18.5 -51.5t46.5 -14.5q49 0 101 70 l24 137h-32q-57 0 -107.5 -36t-50.5 -105z" />
<glyph unicode="&#xab;" horiz-adv-x="876" d="M47 461l395 399h131l-270 -397l129 -402h-131zM406 461l262 297h131l-181 -297l76 -297h-131z" />
<glyph unicode="&#xac;" horiz-adv-x="1361" d="M100 451l27 143h1116l-63 -358h-185l37 215h-932z" />
<glyph unicode="&#xad;" horiz-adv-x="813" d="M98 444l35 195h572l-35 -195h-572z" />
<glyph unicode="&#xae;" horiz-adv-x="1650" d="M74 537q0 172 70.5 328.5t192.5 276.5t285 190.5t328.5 70.5t284.5 -43t203 -121q176 -163 176 -426q0 -172 -70.5 -328.5t-193.5 -275.5t-287 -189.5t-328.5 -70.5t-283.5 43t-203 120q-174 161 -174 425zM217 562q0 -134 36 -226t102.5 -157.5t161.5 -101.5t231.5 -36 t270.5 62.5t234.5 168t158.5 244.5t58 272.5t-35.5 226.5t-102.5 159q-142 137 -378 137q-154 0 -288 -62.5t-234 -168t-157.5 -245t-57.5 -273.5zM469 256l127 721q8 40 8 67q0 59 -47 60h-37l4 33h355q323 0 323 -199q0 -109 -71.5 -175.5t-182.5 -94.5l101 -226 q33 -74 64.5 -112.5t78.5 -44.5l-4 -29q-2 -2 -30 -8t-93.5 -6t-112.5 42t-94 150l-98 221h-41l-70 -399h-180zM729 719q24 -4 40 -4h30q96 0 153.5 65.5t57.5 163.5q0 133 -148 133l-49 -2q-10 -2 -20 -2z" />
<glyph unicode="&#xaf;" horiz-adv-x="512" />
<glyph unicode="&#xb0;" horiz-adv-x="856" d="M160 980q0 97 29.5 170t82.5 126q119 117 282.5 117t238.5 -73t75 -170t-29.5 -170t-82.5 -126q-119 -117 -282.5 -117t-238.5 73t-75 170zM326 1034q0 -86 42 -130t98 -44t97 19.5t72 53.5q67 73 67 161t-42.5 132t-97 44t-95.5 -19.5t-71 -53.5q-70 -77 -70 -163z" />
<glyph unicode="&#xb1;" horiz-adv-x="1193" d="M25 113l26 143h404l61 348h-403l24 144h404l69 399h185l-70 -399h403l-24 -144h-404l-61 -348h403l-26 -143h-991z" />
<glyph unicode="&#xb2;" horiz-adv-x="653" d="M143 772l9 47q88 80 155.5 136.5t113.5 104.5t69.5 98t23.5 120q0 78 -76 78q-118 0 -178 -162h-33q19 113 49.5 143.5t84 52t100.5 21.5t80.5 -6t60.5 -21q60 -35 60 -109.5t-33 -127.5t-86.5 -102.5t-125 -99.5t-147.5 -118h166q57 0 90 20.5t41 70.5h31l-12 -72 q-10 -74 -92 -74h-351z" />
<glyph unicode="&#xb3;" horiz-adv-x="624" d="M137 856l33 25q55 -74 158 -74q82 0 124 99q13 32 13 73q0 94 -103 94q-46 0 -90 -12l-22 57l280 219h-159q-104 0 -119 -88h-27l13 68q10 76 92 76h313l-6 -37l-303 -236q36 8 77.5 8t76 -8t62.5 -26q62 -41 62 -111t-29.5 -114t-71.5 -69q-78 -48 -164.5 -48 t-132.5 28.5t-77 75.5z" />
<glyph unicode="&#xb4;" horiz-adv-x="411" d="M190 1434l138 286h243l-268 -286h-113z" />
<glyph unicode="&#xb5;" horiz-adv-x="1130" d="M-39 -389l238 1352h266l-84 -482q-18 -109 -19 -186q0 -223 142 -223q116 0 196 133l134 758h266l-168 -963h-174l-58 92h-10q-92 -112 -221 -112t-201 92l-82 -461h-225z" />
<glyph unicode="&#xb6;" horiz-adv-x="1302" d="M115 887q0 100 46 186t121 147q162 132 382 132h696l-17 -92h-112l-291 -1649h-246l291 1649h-92l-291 -1649h-246l166 942q-178 0 -294 93q-113 92 -113 241z" />
<glyph unicode="&#xb7;" horiz-adv-x="464" d="M123 649q0 59 41 106.5t108 47.5q105 0 105 -96q0 -59 -41 -106.5t-109 -47.5q-104 0 -104 96z" />
<glyph unicode="&#xb8;" horiz-adv-x="409" d="M-96 -422l16 94h103q39 0 64.5 20.5t27.5 50.5q4 62 -68 62h-92l35 195h133l-19 -102q76 0 117 -35t41 -88t-19.5 -88t-50.5 -59q-61 -50 -145 -50h-143z" />
<glyph unicode="&#xb9;" horiz-adv-x="436" d="M180 1262l162 131h111l-109 -621h-147l86 485l-78 -40z" />
<glyph unicode="&#xba;" horiz-adv-x="692" d="M168 971q0 84 18.5 158.5t58.5 137t101.5 103.5t160 41t146 -66.5t47.5 -149.5t-18 -158.5t-58 -138.5q-94 -146 -249 -146q-113 0 -160 67.5t-47 151.5zM309 928q0 -125 76 -125q90 0 139 174q35 127 35 255t-76 128q-89 0 -137 -176q-37 -131 -37 -256z" />
<glyph unicode="&#xbb;" horiz-adv-x="874" d="M41 164l178 297l-74 297h131l156 -297l-260 -297h-131zM266 61l269 402l-127 397h131l252 -399l-394 -400h-131z" />
<glyph unicode="&#xbc;" horiz-adv-x="1267" d="M-45 0l1169 1352h195l-1169 -1352h-195zM252 1262l162 131h110l-108 -621h-148l86 485l-78 -40zM586 150l10 49l381 424h137l-74 -418h70l-10 -55h-70l-24 -150h-148l25 150h-297zM676 205h217l53 299z" />
<glyph unicode="&#xbd;" horiz-adv-x="1296" d="M-45 0l1169 1352h195l-1169 -1352h-195zM252 1262l162 131h110l-108 -621h-148l86 485l-78 -40zM664 0l8 47q45 39 106.5 88t117.5 107q136 143 136 266q0 76 -74 76q-118 0 -178 -162h-32q20 114 50 144t83 51.5t100 21.5t80 -6t59 -23q60 -37 60 -109.5t-41 -135 t-101.5 -116.5t-128 -102.5t-121.5 -91.5h166q115 0 133 90h31l-12 -71q-10 -74 -92 -74h-350z" />
<glyph unicode="&#xbe;" horiz-adv-x="1284" d="M-6 0l1169 1352h195l-1170 -1352h-194zM127 856l33 25q55 -74 157 -74q90 0 127 109q11 30 11 63q0 94 -103 94q-46 0 -90 -12l-22 57l280 219h-160q-104 0 -118 -88h-27l12 68q10 76 92 76h314l-6 -37l-303 -236q36 8 77.5 8t76 -8t62.5 -26q62 -43 62 -104.5 t-22.5 -103.5t-59.5 -72q-76 -62 -173 -62t-143 28.5t-77 75.5zM604 150l10 49l381 424h138l-74 -418h69l-10 -55h-69l-25 -150h-147l24 150h-297zM694 205h217l54 299z" />
<glyph unicode="&#xbf;" horiz-adv-x="1007" d="M-61 -119q0 169 123 303q55 60 119.5 110t124.5 101q140 120 169 244h139q-29 -115 -93 -203t-130.5 -174t-117 -183t-50.5 -217.5t47 -162t123 -41.5q119 0 225.5 89t182.5 296h61q-16 -90 -37.5 -174t-63.5 -127t-90 -72.5t-107 -53.5q-121 -50 -227 -50t-174.5 20.5 t-118.5 60.5q-105 84 -105 234zM457 839q0 51 39 99.5t100 48.5q115 0 115 -98q0 -59 -42 -105.5t-108 -46.5q-104 0 -104 102z" />
<glyph unicode="&#xc0;" horiz-adv-x="1325" d="M-76 0l842 1352h92l266 -1094q48 -190 176 -205l-8 -51q-40 -10 -94.5 -10t-109 9t-103.5 37q-114 65 -149 220l-27 115h-545l-233 -373h-107zM324 465h462l-131 534zM598 1720h244l35 -287h-113z" />
<glyph unicode="&#xc1;" horiz-adv-x="1325" d="M-76 0l842 1352h92l266 -1094q48 -190 176 -205l-8 -51q-40 -10 -94.5 -10t-109 9t-103.5 37q-114 65 -149 220l-27 115h-545l-233 -373h-107zM324 465h462l-131 534zM776 1434l138 286h243l-268 -286h-113z" />
<glyph unicode="&#xc2;" horiz-adv-x="1325" d="M-76 0l842 1352h92l266 -1094q48 -190 176 -205l-8 -51q-40 -10 -94.5 -10t-109 9t-103.5 37q-114 65 -149 220l-27 115h-545l-233 -373h-107zM324 465h462l-131 534zM518 1403l209 256h266l119 -256h-123l-145 164l-203 -164h-123z" />
<glyph unicode="&#xc3;" horiz-adv-x="1325" d="M-76 0l842 1352h92l266 -1094q48 -190 176 -205l-8 -51q-40 -10 -94.5 -10t-109 9t-103.5 37q-114 65 -149 220l-27 115h-545l-233 -373h-107zM324 465h462l-131 534zM590 1434q23 123 69 163.5t94 40.5t71.5 -13t41.5 -28q48 -40 78.5 -40t54 25.5t27.5 55.5h82 q-23 -123 -67.5 -163.5t-93 -40.5t-72 12t-42.5 27.5t-36.5 29t-45.5 13.5t-50.5 -26t-28.5 -56h-82z" />
<glyph unicode="&#xc4;" horiz-adv-x="1325" d="M-76 0l842 1352h92l266 -1094q48 -190 176 -205l-8 -51q-40 -10 -94.5 -10t-109 9t-103.5 37q-114 65 -149 220l-27 115h-545l-233 -373h-107zM324 465h462l-131 534zM549 1513q0 47 40 88t97 41q96 0 96 -97q0 -46 -39 -89t-92 -43t-77.5 26.5t-24.5 73.5zM897 1513 q0 47 40 88t97 41q96 0 96 -97q0 -46 -38.5 -89t-92 -43t-78 26.5t-24.5 73.5z" />
<glyph unicode="&#xc5;" horiz-adv-x="1325" d="M-76 0l789 1268q-29 16 -56.5 52t-27.5 85t18.5 90t50.5 73q70 70 154 70t129 -42.5t45 -111.5t-41 -126.5t-106 -89.5l245 -1010q48 -190 176 -205l-8 -51q-40 -10 -94.5 -10t-109 9t-103.5 37q-114 65 -149 220l-27 115h-545l-233 -373h-107zM324 465h462l-131 534z M733 1424q0 -46 33 -72h92q64 35 64 114q0 37 -20.5 58.5t-61.5 21.5t-74 -38t-33 -84z" />
<glyph unicode="&#xc6;" horiz-adv-x="1787" d="M-135 0l995 1352h770q88 0 119 -35t31 -68.5t-35 -234.5h-62q6 37 7 67q0 179 -220 179h-329l-90 -512h532l-16 -93h-533l-100 -563h350q113 0 201 50.5t166 183.5l51 -21l-88 -162q-35 -66 -77 -104.5t-126 -38.5h-758l68 389h-447l-286 -389h-123zM342 481h395l125 705 z" />
<glyph unicode="&#xc7;" horiz-adv-x="1392" d="M78 504q0 158 60.5 316.5t170 285.5t260 207t328.5 80q302 0 428 -135q51 -54 51 -133.5t-24 -209.5h-62q-4 186 -91 285.5t-249 99.5t-272.5 -77.5t-180 -199.5t-102.5 -267.5t-33 -258t19.5 -189.5t62.5 -134q93 -123 279 -123q141 0 275.5 75t232.5 218l61 -55 q-121 -164 -264 -243t-342 -85l-10 -63q76 0 117 -35t41 -107.5t-63.5 -125t-152.5 -52.5h-143l17 94h102q39 0 64.5 20.5t27.5 50.5q4 62 -68 62h-92l29 160q-230 24 -357 173q-120 143 -120 366z" />
<glyph unicode="&#xc8;" horiz-adv-x="1232" d="M98 0q49 281 83 474.5t56.5 322.5t35 201.5t18.5 110.5q8 51 8 86.5t-25.5 65t-91.5 29.5h-20l10 62h903q88 0 119 -35t31 -68.5t-35 -234.5h-62q6 37 7 67q0 179 -220 179h-329l-90 -512h532l-16 -93h-533l-100 -563h350q113 0 201 50.5t166 183.5l51 -21l-88 -162 q-35 -66 -77 -104.5t-126 -38.5h-758zM598 1720h244l35 -287h-113z" />
<glyph unicode="&#xc9;" horiz-adv-x="1232" d="M98 0q49 281 83 474.5t56.5 322.5t35 201.5t18.5 110.5q8 51 8 86.5t-25.5 65t-91.5 29.5h-20l10 62h903q88 0 119 -35t31 -68.5t-35 -234.5h-62q6 37 7 67q0 179 -220 179h-329l-90 -512h532l-16 -93h-533l-100 -563h350q113 0 201 50.5t166 183.5l51 -21l-88 -162 q-35 -66 -77 -104.5t-126 -38.5h-758zM731 1434l138 286h243l-268 -286h-113z" />
<glyph unicode="&#xca;" horiz-adv-x="1232" d="M98 0q49 281 83 474.5t56.5 322.5t35 201.5t18.5 110.5q8 51 8 86.5t-25.5 65t-91.5 29.5h-20l10 62h903q88 0 119 -35t31 -68.5t-35 -234.5h-62q6 37 7 67q0 179 -220 179h-329l-90 -512h532l-16 -93h-533l-100 -563h350q113 0 201 50.5t166 183.5l51 -21l-88 -162 q-35 -66 -77 -104.5t-126 -38.5h-758zM493 1479l209 256h266l119 -256h-123l-145 164l-203 -164h-123z" />
<glyph unicode="&#xcb;" horiz-adv-x="1232" d="M98 0q49 281 83 474.5t56.5 322.5t35 201.5t18.5 110.5q8 51 8 86.5t-25.5 65t-91.5 29.5h-20l10 62h903q88 0 119 -35t31 -68.5t-35 -234.5h-62q6 37 7 67q0 179 -220 179h-329l-90 -512h532l-16 -93h-533l-100 -563h350q113 0 201 50.5t166 183.5l51 -21l-88 -162 q-35 -66 -77 -104.5t-126 -38.5h-758zM504 1592q0 46 39 89t98 43q96 0 96 -100q0 -47 -39.5 -88t-92 -41t-77 25.5t-24.5 71.5zM873 1592q0 46 38.5 89t98.5 43q96 0 96 -100q0 -47 -40 -88t-92 -41t-76.5 25.5t-24.5 71.5z" />
<glyph unicode="&#xcc;" horiz-adv-x="628" d="M98 126.5q0 65.5 13 139.5l192 1086h266l-192 -1086q-8 -50 -8 -95.5t24.5 -77.5t91.5 -32h21l-10 -61h-246q-82 0 -117 30.5t-35 96zM250 1720h244l35 -287h-113z" />
<glyph unicode="&#xcd;" horiz-adv-x="628" d="M98 126.5q0 65.5 13 139.5l192 1086h266l-192 -1086q-8 -50 -8 -95.5t24.5 -77.5t91.5 -32h21l-10 -61h-246q-82 0 -117 30.5t-35 96zM385 1434l138 286h243l-268 -286h-113z" />
<glyph unicode="&#xce;" horiz-adv-x="628" d="M98 126.5q0 65.5 13 139.5l192 1086h266l-192 -1086q-8 -50 -8 -95.5t24.5 -77.5t91.5 -32h21l-10 -61h-246q-82 0 -117 30.5t-35 96zM149 1403l209 256h266l119 -256h-123l-145 164l-203 -164h-123z" />
<glyph unicode="&#xcf;" horiz-adv-x="628" d="M98 126.5q0 65.5 13 139.5l192 1086h266l-192 -1086q-8 -50 -8 -95.5t24.5 -77.5t91.5 -32h21l-10 -61h-246q-82 0 -117 30.5t-35 96zM184 1564q0 47 40 88t97 41q96 0 96 -97q0 -46 -39 -89t-92 -43t-77.5 26.5t-24.5 73.5zM532 1564q0 47 40 88t97 41q96 0 96 -97 q0 -46 -38.5 -89t-92 -43t-78 26.5t-24.5 73.5z" />
<glyph unicode="&#xd0;" horiz-adv-x="1509" d="M63 625l19 102h143q74 403 74 453q0 110 -117 110h-20l10 62h557q371 0 555 -140.5t184 -388.5q0 -184 -71.5 -336.5t-196.5 -260t-294 -167t-361 -59.5h-447l109 625h-144zM381 96q70 -14 151 -14h21q141 0 254 66.5t192.5 172t121.5 238.5t42 266q0 205 -107.5 325 t-297.5 120h-17q-64 0 -98.5 -6t-56.5 -9l-94 -528h153l-18 -102h-154z" />
<glyph unicode="&#xd1;" horiz-adv-x="1423" d="M104 0q201 1153 201 1159q0 131 -158 131h-10l10 62h144q117 0 183.5 -31t103.5 -92l561 -819l166 942h102l-240 -1358h-94l-688 1020l-178 -1014h-103zM637 1422q23 123 69 163.5t94 40.5t71.5 -13t41.5 -28q48 -40 78.5 -40t54 25.5t27.5 55.5h82 q-23 -123 -67.5 -163.5t-93 -40.5t-72 12t-42.5 27.5t-36.5 29t-45.5 13.5t-50.5 -26t-28.5 -56h-82z" />
<glyph unicode="&#xd2;" horiz-adv-x="1505" d="M82 542.5q0 141.5 59.5 297t167 278.5t258 199t307 76t261 -42t177.5 -117q148 -154 148 -407q0 -160 -59.5 -315.5t-167 -278t-258 -198.5t-307 -76t-261 42t-177 117t-110.5 179t-38 245.5zM360 453q0 -193 77.5 -297.5t224.5 -104.5q176 0 306 149q158 183 204 524 q12 93 12 173q0 195 -78 299t-225 104q-177 0 -305 -150q-158 -187 -204 -526q-12 -94 -12 -171zM700 1770h244l35 -287h-113z" />
<glyph unicode="&#xd3;" horiz-adv-x="1505" d="M82 542.5q0 141.5 59.5 297t167 278.5t258 199t307 76t261 -42t177.5 -117q148 -154 148 -407q0 -160 -59.5 -315.5t-167 -278t-258 -198.5t-307 -76t-261 42t-177 117t-110.5 179t-38 245.5zM360 453q0 -193 77.5 -297.5t224.5 -104.5q176 0 306 149q158 183 204 524 q12 93 12 173q0 195 -78 299t-225 104q-177 0 -305 -150q-158 -187 -204 -526q-12 -94 -12 -171zM854 1483l138 286h243l-268 -286h-113z" />
<glyph unicode="&#xd4;" horiz-adv-x="1505" d="M82 542.5q0 141.5 59.5 297t167 278.5t258 199t307 76t261 -42t177.5 -117q148 -154 148 -407q0 -160 -59.5 -315.5t-167 -278t-258 -198.5t-307 -76t-261 42t-177 117t-110.5 179t-38 245.5zM360 453q0 -193 77.5 -297.5t224.5 -104.5q176 0 306 149q158 183 204 524 q12 93 12 173q0 195 -78 299t-225 104q-177 0 -305 -150q-158 -187 -204 -526q-12 -94 -12 -171zM629 1495l209 256h266l119 -256h-123l-145 164l-203 -164h-123z" />
<glyph unicode="&#xd5;" horiz-adv-x="1505" d="M82 542.5q0 141.5 59.5 297t167 278.5t258 199t307 76t261 -42t177.5 -117q148 -154 148 -407q0 -160 -59.5 -315.5t-167 -278t-258 -198.5t-307 -76t-261 42t-177 117t-110.5 179t-38 245.5zM360 453q0 -193 77.5 -297.5t224.5 -104.5q176 0 306 149q158 183 204 524 q12 93 12 173q0 195 -78 299t-225 104q-177 0 -305 -150q-158 -187 -204 -526q-12 -94 -12 -171zM678 1512q23 123 69 163.5t94 40.5t71.5 -13t41.5 -28q48 -40 78.5 -40t54 25.5t27.5 55.5h82q-23 -123 -67.5 -163.5t-93 -40.5t-72 12t-42.5 27.5t-36.5 29t-45.5 13.5 t-50.5 -26t-28.5 -56h-82z" />
<glyph unicode="&#xd6;" horiz-adv-x="1505" d="M82 542.5q0 141.5 59.5 297t167 278.5t258 199t307 76t261 -42t177.5 -117q148 -154 148 -407q0 -160 -59.5 -315.5t-167 -278t-258 -198.5t-307 -76t-261 42t-177 117t-110.5 179t-38 245.5zM360 453q0 -193 77.5 -297.5t224.5 -104.5q176 0 306 149q158 183 204 524 q12 93 12 173q0 195 -78 299t-225 104q-177 0 -305 -150q-158 -187 -204 -526q-12 -94 -12 -171zM637 1603q0 46 39 89t98 43q96 0 96 -100q0 -47 -39.5 -88t-92 -41t-77 25.5t-24.5 71.5zM1006 1603q0 46 38.5 89t98.5 43q96 0 96 -100q0 -47 -40 -88t-92 -41t-76.5 25.5 t-24.5 71.5z" />
<glyph unicode="&#xd7;" horiz-adv-x="1003" d="M57 399l334 285l-231 283l153 131l234 -283l334 285l108 -129l-338 -287l234 -283l-154 -129l-231 283l-336 -285z" />
<glyph unicode="&#xd8;" horiz-adv-x="1503" d="M82 520q0 160 59.5 316.5t167 279.5t257 200t320.5 77t294 -64l47 64h188l-115 -150q158 -154 158 -418q0 -160 -59.5 -314.5t-167 -277t-257 -198.5t-323 -76t-297.5 68l-53 -68h-188l118 156q-149 149 -149 405zM360 446q0 -62 15 -149l715 917q-80 86 -192.5 86 t-188.5 -40.5t-133.5 -109.5t-98.5 -158t-67 -184q-50 -188 -50 -362zM444 143q77 -92 218 -92q176 0 306 149q158 183 204 524q12 93 12 182t-19 163z" />
<glyph unicode="&#xd9;" horiz-adv-x="1427" d="M176 399q0 68 35 270.5t58.5 337.5t23.5 179q0 104 -117 104l10 62h226q80 0 115.5 -30t35.5 -97.5t-20.5 -181.5t-39 -224t-30.5 -187t-20.5 -125t-11.5 -77q-5 -48 -5 -74q0 -141 57.5 -218t178.5 -77t206 32t146 97q113 119 164 400l135 762h102l-135 -762 q-52 -302 -196 -450q-154 -160 -453 -160q-242 0 -353.5 104t-111.5 315zM735 1679h244l35 -287h-113z" />
<glyph unicode="&#xda;" horiz-adv-x="1427" d="M176 399q0 68 35 270.5t58.5 337.5t23.5 179q0 104 -117 104l10 62h226q80 0 115.5 -30t35.5 -97.5t-20.5 -181.5t-39 -224t-30.5 -187t-20.5 -125t-11.5 -77q-5 -48 -5 -74q0 -141 57.5 -218t178.5 -77t206 32t146 97q113 119 164 400l135 762h102l-135 -762 q-52 -302 -196 -450q-154 -160 -453 -160q-242 0 -353.5 104t-111.5 315zM837 1395l138 286h243l-268 -286h-113z" />
<glyph unicode="&#xdb;" horiz-adv-x="1427" d="M176 399q0 68 35 270.5t58.5 337.5t23.5 179q0 104 -117 104l10 62h226q80 0 115.5 -30t35.5 -97.5t-20.5 -181.5t-39 -224t-30.5 -187t-20.5 -125t-11.5 -77q-5 -48 -5 -74q0 -141 57.5 -218t178.5 -77t206 32t146 97q113 119 164 400l135 762h102l-135 -762 q-52 -302 -196 -450q-154 -160 -453 -160q-242 0 -353.5 104t-111.5 315zM645 1395l209 256h266l119 -256h-123l-145 164l-203 -164h-123z" />
<glyph unicode="&#xdc;" horiz-adv-x="1427" d="M176 399q0 68 35 270.5t58.5 337.5t23.5 179q0 104 -117 104l10 62h226q80 0 115.5 -30t35.5 -97.5t-20.5 -181.5t-39 -224t-30.5 -187t-20.5 -125t-11.5 -77q-5 -48 -5 -74q0 -141 57.5 -218t178.5 -77t206 32t146 97q113 119 164 400l135 762h102l-135 -762 q-52 -302 -196 -450q-154 -160 -453 -160q-242 0 -353.5 104t-111.5 315zM647 1490q0 46 39 89t98 43q96 0 96 -100q0 -47 -39.5 -88t-92 -41t-77 25.5t-24.5 71.5zM1016 1490q0 46 38.5 89t98.5 43q96 0 96 -100q0 -47 -40 -88t-92 -41t-76.5 25.5t-24.5 71.5z" />
<glyph unicode="&#xdd;" horiz-adv-x="1308" d="M59 1311l9 41h223q183 0 293 -226l204 -419l512 645h134l-598 -756l-105 -596h-266l94 541l-266 544q-37 80 -85 131q-83 87 -149 95zM784 1375l138 286h243l-268 -286h-113z" />
<glyph unicode="&#xde;" horiz-adv-x="1140" d="M92 -61q223 1261 223 1307q0 106 -116 106h-21l10 61h246q80 0 116 -29.5t36 -93t-19 -164.5q559 -12 559 -383q0 -285 -218 -435q-183 -126 -509 -144l-41 -225h-266zM416 256q194 16 309 150q115 135 115 337q0 270 -289 289z" />
<glyph unicode="&#xdf;" horiz-adv-x="1175" d="M25 0l180 1024q34 202 173 282q117 66 316 66t283 -48t84 -119.5t-24.5 -119t-61.5 -85t-80 -68.5t-80 -62q-86 -70 -86 -141q0 -101 178 -205.5t178 -236.5q0 -141 -133 -230q-116 -77 -276 -77q-175 0 -244 90q-26 34 -26 81t10 95h61v-8q0 -110 97 -152 q32 -14 87.5 -14t106.5 45t51 105.5t-23.5 95t-58.5 65.5t-75.5 58.5t-75.5 60.5q-82 77 -82 170q0 124 147 250q88 77 118 133.5t30 111.5t-33 84t-94.5 29t-117.5 -55.5t-83 -200.5l-180 -1024h-266z" />
<glyph unicode="&#xe0;" d="M49 348q0 106 36 219t103.5 205t167 151.5t237.5 59.5t204 -113h10l88 93h174l-168 -963h-174l-57 92h-11q-98 -112 -253 -112q-175 0 -270 106q-87 97 -87 262zM319 295q0 -223 144 -223q73 0 149 65q33 29 58 68l98 553q-22 69 -84 112q-31 21 -81 21t-92 -33 t-73.5 -84t-54.5 -116.5t-37 -131.5q-27 -129 -27 -231zM446 1362h244l35 -287h-113z" />
<glyph unicode="&#xe1;" d="M49 348q0 106 36 219t103.5 205t167 151.5t237.5 59.5t204 -113h10l88 93h174l-168 -963h-174l-57 92h-11q-98 -112 -253 -112q-175 0 -270 106q-87 97 -87 262zM319 295q0 -223 144 -223q73 0 149 65q33 29 58 68l98 553q-22 69 -84 112q-31 21 -81 21t-92 -33 t-73.5 -84t-54.5 -116.5t-37 -131.5q-27 -129 -27 -231zM593 1078l138 286h243l-268 -286h-113z" />
<glyph unicode="&#xe2;" d="M49 348q0 106 36 219t103.5 205t167 151.5t237.5 59.5t204 -113h10l88 93h174l-168 -963h-174l-57 92h-11q-98 -112 -253 -112q-175 0 -270 106q-87 97 -87 262zM319 295q0 -223 144 -223q73 0 149 65q33 29 58 68l98 553q-22 69 -84 112q-31 21 -81 21t-92 -33 t-73.5 -84t-54.5 -116.5t-37 -131.5q-27 -129 -27 -231zM356 1088l209 256h266l119 -256h-123l-145 164l-203 -164h-123z" />
<glyph unicode="&#xe3;" d="M49 348q0 106 36 219t103.5 205t167 151.5t237.5 59.5t204 -113h10l88 93h174l-168 -963h-174l-57 92h-11q-98 -112 -253 -112q-175 0 -270 106q-87 97 -87 262zM319 295q0 -223 144 -223q73 0 149 65q33 29 58 68l98 553q-22 69 -84 112q-31 21 -81 21t-92 -33 t-73.5 -84t-54.5 -116.5t-37 -131.5q-27 -129 -27 -231zM446 1098q23 123 69 163.5t94 40.5t71.5 -13t41.5 -28q48 -40 78.5 -40t54 25.5t27.5 55.5h82q-23 -123 -67.5 -163.5t-93 -40.5t-72 12t-42.5 27.5t-36.5 29t-45.5 13.5t-50.5 -26t-28.5 -56h-82z" />
<glyph unicode="&#xe4;" d="M49 348q0 106 36 219t103.5 205t167 151.5t237.5 59.5t204 -113h10l88 93h174l-168 -963h-174l-57 92h-11q-98 -112 -253 -112q-175 0 -270 106q-87 97 -87 262zM319 295q0 -223 144 -223q73 0 149 65q33 29 58 68l98 553q-22 69 -84 112q-31 21 -81 21t-92 -33 t-73.5 -84t-54.5 -116.5t-37 -131.5q-27 -129 -27 -231zM373 1193q0 46 39 89t98 43q96 0 96 -100q0 -47 -39.5 -88t-92 -41t-77 25.5t-24.5 71.5zM742 1193q0 46 38.5 89t98.5 43q96 0 96 -100q0 -47 -40 -88t-92 -41t-76.5 25.5t-24.5 71.5z" />
<glyph unicode="&#xe5;" d="M49 348q0 106 36 219t103.5 205t167 151.5t237.5 59.5t204 -113h10l88 93h174l-168 -963h-174l-57 92h-11q-98 -112 -253 -112q-175 0 -270 106q-87 97 -87 262zM319 295q0 -223 144 -223q73 0 149 65q33 29 58 68l98 553q-22 69 -84 112q-31 21 -81 21t-92 -33 t-73.5 -84t-54.5 -116.5t-37 -131.5q-27 -129 -27 -231zM514 1208.5q0 57.5 18.5 99.5t48.5 74q68 72 154 72t131 -43t45 -100.5t-18.5 -99.5t-49.5 -75q-67 -71 -153 -71t-131 43t-45 100.5zM618 1237q0 -80 82 -80q41 0 74 37t33 81q0 87 -76 87q-47 0 -80 -37t-33 -88z " />
<glyph unicode="&#xe6;" horiz-adv-x="1622" d="M0 205q0 105 60.5 171t152.5 102q151 59 405 59h31q14 78 15 147q0 207 -158 207q-79 0 -120 -27q-75 -50 -118 -157h-112q10 53 26.5 108t50.5 85.5t66.5 44t71.5 21.5q76 17 179 17t185 -50t113 -136q150 186 360 186q180 0 275.5 -68.5t95.5 -173t-38 -162t-101 -91.5 q-109 -58 -307 -58h-215l-3 -6q-12 -72 -12 -127q0 -121 48 -173t141 -52t168 49t141 121l55 -47q-79 -96 -143 -135q-128 -80 -281 -80q-227 0 -315 184q-131 -184 -391 -184q-166 0 -246 60t-80 165zM276 205q0 -53 28 -88t79 -35q83 0 156 65q31 29 53 68l41 229h-31 q-147 0 -224 -44q-102 -59 -102 -195zM932 522h215q82 0 124 61.5t42 144.5t-37 123t-80 40t-82 -20.5t-74 -64.5q-74 -96 -108 -284z" />
<glyph unicode="&#xe7;" horiz-adv-x="1019" d="M51 351.5q0 134.5 42 245t120 196.5q172 190 428 190q138 0 199 -18.5t97 -51t36 -89.5t-27 -199h-61q2 12 2 25v24q0 217 -232 217q-92 0 -155.5 -60.5t-103.5 -148.5q-74 -163 -74 -360q0 -250 200 -250q106 0 181 49t141 121l55 -47q-72 -88 -132 -127 q-122 -79 -263 -86l-8 -48q70 0 110.5 -33.5t40.5 -83t-16.5 -84t-44.5 -61.5q-59 -57 -148 -57h-123l17 94h82q39 0 64.5 20.5t27.5 50.5q4 62 -68 62h-80l25 144q-170 23 -251 127t-81 238.5z" />
<glyph unicode="&#xe8;" horiz-adv-x="1040" d="M51 373q0 244 154 421q165 189 416 189q182 0 282.5 -66.5t100.5 -183.5q0 -163 -149 -250q-125 -73 -314 -73h-215q-12 -66 -13 -115q0 -113 48.5 -168t142.5 -55t169 49t140 121l55 -47q-79 -95 -142 -135q-128 -80 -282 -80q-184 0 -290 109q-103 107 -103 284z M342 502h215q77 0 127 80q43 69 43 153t-38 120t-83 36t-84 -19.5t-72 -65.5q-75 -102 -108 -304zM397 1362h244l35 -287h-113z" />
<glyph unicode="&#xe9;" horiz-adv-x="1040" d="M51 373q0 244 154 421q165 189 416 189q182 0 282.5 -66.5t100.5 -183.5q0 -163 -149 -250q-125 -73 -314 -73h-215q-12 -66 -13 -115q0 -113 48.5 -168t142.5 -55t169 49t140 121l55 -47q-79 -95 -142 -135q-128 -80 -282 -80q-184 0 -290 109q-103 107 -103 284z M342 502h215q77 0 127 80q43 69 43 153t-38 120t-83 36t-84 -19.5t-72 -65.5q-75 -102 -108 -304zM561 1078l138 286h243l-268 -286h-113z" />
<glyph unicode="&#xea;" horiz-adv-x="1040" d="M51 373q0 244 154 421q165 189 416 189q182 0 282.5 -66.5t100.5 -183.5q0 -163 -149 -250q-125 -73 -314 -73h-215q-12 -66 -13 -115q0 -113 48.5 -168t142.5 -55t169 49t140 121l55 -47q-79 -95 -142 -135q-128 -80 -282 -80q-184 0 -290 109q-103 107 -103 284z M342 502h215q77 0 127 80q43 69 43 153t-38 120t-83 36t-84 -19.5t-72 -65.5q-75 -102 -108 -304zM352 1078l209 256h266l119 -256h-123l-145 164l-203 -164h-123z" />
<glyph unicode="&#xeb;" horiz-adv-x="1040" d="M51 373q0 244 154 421q165 189 416 189q182 0 282.5 -66.5t100.5 -183.5q0 -163 -149 -250q-125 -73 -314 -73h-215q-12 -66 -13 -115q0 -113 48.5 -168t142.5 -55t169 49t140 121l55 -47q-79 -95 -142 -135q-128 -80 -282 -80q-184 0 -290 109q-103 107 -103 284z M342 502h215q77 0 127 80q43 69 43 153t-38 120t-83 36t-84 -19.5t-72 -65.5q-75 -102 -108 -304zM350 1193q0 46 39 89t98 43q96 0 96 -100q0 -47 -39.5 -88t-92 -41t-77 25.5t-24.5 71.5zM719 1193q0 46 38.5 89t98.5 43q96 0 96 -100q0 -47 -40 -88t-92 -41t-76.5 25.5 t-24.5 71.5z" />
<glyph unicode="&#xec;" horiz-adv-x="555" d="M61 901l11 62h245q80 0 116 -30t36 -101t-135 -832h-266q131 769 131 788q0 113 -117 113h-21zM166 1362h244l35 -287h-113z" />
<glyph unicode="&#xed;" horiz-adv-x="555" d="M61 901l11 62h245q80 0 116 -30t36 -101t-135 -832h-266q131 769 131 788q0 113 -117 113h-21zM288 1078l138 286h243l-268 -286h-113z" />
<glyph unicode="&#xee;" horiz-adv-x="555" d="M61 901l11 62h245q80 0 116 -30t36 -101t-135 -832h-266q131 769 131 788q0 113 -117 113h-21zM76 1090l209 256h266l119 -256h-123l-145 164l-203 -164h-123z" />
<glyph unicode="&#xef;" horiz-adv-x="555" d="M61 901l11 62h245q80 0 116 -30t36 -101t-135 -832h-266q131 769 131 788q0 113 -117 113h-21zM100 1218.5q0 53.5 36 99.5t101 46t96.5 -36t31.5 -89t-36 -99t-101 -46t-96.5 35.5t-31.5 89zM479 1218.5q0 53.5 36 99.5t100.5 46t96 -36t31.5 -89t-35.5 -99t-100.5 -46 t-96.5 35.5t-31.5 89z" />
<glyph unicode="&#xf0;" horiz-adv-x="1142" d="M49 369q0 240 155 421q166 193 414 193q100 0 167 -43t92 -121q-8 207 -80 318l-113 -97l-68 82l113 97q-35 41 -89 51t-105 10t-119 -18l-17 65q80 45 209 45t226 -74l104 95l70 -78l-103 -86q76 -78 122 -201t46 -268.5t-34.5 -281.5t-108.5 -246.5t-189.5 -181 t-277.5 -70.5q-204 0 -313 111q-101 101 -101 278zM322 354q0 -155 44.5 -218.5t118.5 -63.5t131.5 62.5t94.5 151.5q69 166 69 345q0 181 -84 239q-30 21 -73 21q-80 0 -137.5 -63.5t-94.5 -152.5q-69 -166 -69 -321z" />
<glyph unicode="&#xf1;" horiz-adv-x="1181" d="M61 901l11 62h202q70 0 107 -17.5t53 -58.5q112 96 297 96t268.5 -64.5t83.5 -205.5q0 -35 -10 -107l-106 -606h-267l107 608q8 47 8 94q0 98 -43 138.5t-111 40.5q-127 0 -200 -64q6 -59 -4 -108l-125 -709h-266l120 696q10 57 10 102q2 103 -114 103h-21zM461 1114 q23 123 69 163.5t94 40.5t71.5 -13t41.5 -28q48 -40 78.5 -40t54 25.5t27.5 55.5h82q-23 -123 -67.5 -163.5t-93 -40.5t-72 12t-42.5 27.5t-36.5 29t-45.5 13.5t-50.5 -26t-28.5 -56h-82z" />
<glyph unicode="&#xf2;" horiz-adv-x="1132" d="M49 392q0 100 44 209.5t123 194.5q174 187 423 187q199 0 308 -113q106 -109 106 -284q0 -115 -44 -224.5t-123 -194.5q-174 -187 -423 -187q-198 0 -309 112q-105 107 -105 300zM322 322q0 -250 157 -250q84 0 141.5 63.5t93.5 152.5q66 163 66 353q0 250 -157 250 q-84 0 -141.5 -63.5t-93.5 -152.5q-66 -163 -66 -353zM389 1362h244l35 -287h-113z" />
<glyph unicode="&#xf3;" horiz-adv-x="1132" d="M49 392q0 100 44 209.5t123 194.5q174 187 423 187q199 0 308 -113q106 -109 106 -284q0 -115 -44 -224.5t-123 -194.5q-174 -187 -423 -187q-198 0 -309 112q-105 107 -105 300zM322 322q0 -250 157 -250q84 0 141.5 63.5t93.5 152.5q66 163 66 353q0 250 -157 250 q-84 0 -141.5 -63.5t-93.5 -152.5q-66 -163 -66 -353zM567 1078l138 286h243l-268 -286h-113z" />
<glyph unicode="&#xf4;" horiz-adv-x="1132" d="M49 392q0 100 44 209.5t123 194.5q174 187 423 187q199 0 308 -113q106 -109 106 -284q0 -115 -44 -224.5t-123 -194.5q-174 -187 -423 -187q-198 0 -309 112q-105 107 -105 300zM322 322q0 -250 157 -250q84 0 141.5 63.5t93.5 152.5q66 163 66 353q0 250 -157 250 q-84 0 -141.5 -63.5t-93.5 -152.5q-66 -163 -66 -353zM358 1078l209 256h266l119 -256h-123l-145 164l-203 -164h-123z" />
<glyph unicode="&#xf5;" horiz-adv-x="1132" d="M49 392q0 100 44 209.5t123 194.5q174 187 423 187q199 0 308 -113q106 -109 106 -284q0 -115 -44 -224.5t-123 -194.5q-174 -187 -423 -187q-198 0 -309 112q-105 107 -105 300zM322 322q0 -250 157 -250q84 0 141.5 63.5t93.5 152.5q66 163 66 353q0 250 -157 250 q-84 0 -141.5 -63.5t-93.5 -152.5q-66 -163 -66 -353zM415 1098q23 123 69 163.5t94 40.5t71.5 -13t41.5 -28q48 -40 78.5 -40t54 25.5t27.5 55.5h82q-23 -123 -67.5 -163.5t-93 -40.5t-72 12t-42.5 27.5t-36.5 29t-45.5 13.5t-50.5 -26t-28.5 -56h-82z" />
<glyph unicode="&#xf6;" horiz-adv-x="1132" d="M49 392q0 100 44 209.5t123 194.5q174 187 423 187q199 0 308 -113q106 -109 106 -284q0 -115 -44 -224.5t-123 -194.5q-174 -187 -423 -187q-198 0 -309 112q-105 107 -105 300zM322 322q0 -250 157 -250q84 0 141.5 63.5t93.5 152.5q66 163 66 353q0 250 -157 250 q-84 0 -141.5 -63.5t-93.5 -152.5q-66 -163 -66 -353zM379 1193q0 46 39 89t98 43q96 0 96 -100q0 -47 -39.5 -88t-92 -41t-77 25.5t-24.5 71.5zM748 1193q0 46 38.5 89t98.5 43q96 0 96 -100q0 -47 -40 -88t-92 -41t-76.5 25.5t-24.5 71.5z" />
<glyph unicode="&#xf7;" horiz-adv-x="1120" d="M96 608l23 133h942l-23 -133h-942zM408 352q0 47 39.5 88t97.5 41q96 0 96 -97q0 -46 -39 -89t-92 -43t-77.5 26.5t-24.5 73.5zM516 971q0 47 40 88t92 41t77 -25.5t25 -71.5t-39 -89.5t-92.5 -43.5t-78 27t-24.5 74z" />
<glyph unicode="&#xf8;" horiz-adv-x="1132" d="M16 0l111 123q-78 102 -78 235.5t44 243t123 194.5q174 187 423 187q125 0 229 -53l29 33h188l-112 -123q80 -104 80 -236.5t-44 -242t-123 -194.5t-186.5 -136t-236 -51t-230.5 53l-28 -33h-189zM319 332l433 471q-43 88 -128 88t-141.5 -62.5t-92.5 -150.5 q-62 -152 -71 -346zM348 158q38 -86 125.5 -86t145 61.5t91.5 149.5q65 164 70 346z" />
<glyph unicode="&#xf9;" horiz-adv-x="1161" d="M39 901l10 62h246q80 0 115.5 -30t35.5 -97.5t-19.5 -176t-33.5 -194.5t-21 -133q-12 -81 -12 -99q0 -90 36 -125.5t92.5 -35.5t93.5 20q80 46 123 113l133 758h266l-168 -963h-174l-57 92h-11q-119 -112 -278.5 -112t-239.5 62t-80 202q0 52 40 280.5t40 272.5t-25.5 74 t-91.5 30h-20zM448 1313h244l35 -287h-113z" />
<glyph unicode="&#xfa;" horiz-adv-x="1161" d="M39 901l10 62h246q80 0 115.5 -30t35.5 -97.5t-19.5 -176t-33.5 -194.5t-21 -133q-12 -81 -12 -99q0 -90 36 -125.5t92.5 -35.5t93.5 20q80 46 123 113l133 758h266l-168 -963h-174l-57 92h-11q-119 -112 -278.5 -112t-239.5 62t-80 202q0 52 40 280.5t40 272.5t-25.5 74 t-91.5 30h-20zM583 1024l138 286h243l-268 -286h-113z" />
<glyph unicode="&#xfb;" horiz-adv-x="1161" d="M39 901l10 62h246q80 0 115.5 -30t35.5 -97.5t-19.5 -176t-33.5 -194.5t-21 -133q-12 -81 -12 -99q0 -90 36 -125.5t92.5 -35.5t93.5 20q80 46 123 113l133 758h266l-168 -963h-174l-57 92h-11q-119 -112 -278.5 -112t-239.5 62t-80 202q0 52 40 280.5t40 272.5t-25.5 74 t-91.5 30h-20zM356 1078l209 256h266l119 -256h-123l-145 164l-203 -164h-123z" />
<glyph unicode="&#xfc;" horiz-adv-x="1161" d="M39 901l10 62h246q80 0 115.5 -30t35.5 -97.5t-19.5 -176t-33.5 -194.5t-21 -133q-12 -81 -12 -99q0 -90 36 -125.5t92.5 -35.5t93.5 20q80 46 123 113l133 758h266l-168 -963h-174l-57 92h-11q-119 -112 -278.5 -112t-239.5 62t-80 202q0 52 40 280.5t40 272.5t-25.5 74 t-91.5 30h-20zM371 1154q0 46 39 89t98 43q96 0 96 -100q0 -47 -39.5 -88t-92 -41t-77 25.5t-24.5 71.5zM740 1154q0 46 38.5 89t98.5 43q96 0 96 -100q0 -47 -40 -88t-92 -41t-76.5 25.5t-24.5 71.5z" />
<glyph unicode="&#xfd;" horiz-adv-x="1042" d="M8 -410l12 72q112 0 169 32t92.5 69.5t70.5 97.5l62 110l-226 807q-44 148 -161 164l6 41h180q92 0 153.5 -44t84.5 -120l145 -516l365 660h108l-606 -1096q-91 -162 -178 -221q-82 -56 -195 -56h-82zM589 1024l138 286h243l-268 -286h-113z" />
<glyph unicode="&#xfe;" horiz-adv-x="1114" d="M-43 -389q68 377 113 638t75.5 433t47 268.5t24.5 144.5q10 60 10 98t-25.5 67.5t-90.5 29.5h-21l10 62h246q80 0 116 -30t36 -108q0 -35 -6 -74q-18 -103 -39 -229q102 72 259.5 72t239.5 -97.5t82 -258.5q0 -249 -130 -435q-66 -94 -166.5 -153t-223 -59t-219.5 40 l-72 -409h-266zM309 102q148 -59 241 0q161 102 202 434q8 60 8 107q0 119 -39 183.5t-101 64.5q-102 0 -182 -62z" />
<glyph unicode="&#xff;" horiz-adv-x="1042" d="M8 -410l12 72q112 0 169 32t92.5 69.5t70.5 97.5l62 110l-226 807q-44 148 -161 164l6 41h180q92 0 153.5 -44t84.5 -120l145 -516l365 660h108l-606 -1096q-91 -162 -178 -221q-82 -56 -195 -56h-82zM383 1164q0 46 39 89t98 43q96 0 96 -100q0 -47 -39.5 -88t-92 -41 t-77 25.5t-24.5 71.5zM752 1164q0 46 38.5 89t98.5 43q96 0 96 -100q0 -47 -40 -88t-92 -41t-76.5 25.5t-24.5 71.5z" />
<glyph unicode="&#x152;" horiz-adv-x="1961" d="M82 524q0 160 59.5 315.5t167 278.5t258 199t330.5 76q119 0 229 -41h678q88 0 119 -35t31 -68.5t-35 -234.5h-61q6 37 6 67q0 179 -219 179h-330l-90 -512h532l-16 -93h-533l-100 -563h350q113 0 201 50.5t166 183.5l51 -21l-88 -162q-35 -66 -77 -104.5t-126 -38.5 h-696q-102 -41 -239.5 -41t-242 42t-177.5 117q-148 154 -148 406zM360 442.5q0 -182.5 77.5 -287t224.5 -104.5q94 0 182 47l203 1153q-68 49 -164 49t-172 -40.5t-134.5 -109.5t-99.5 -157t-67 -182q-50 -186 -50 -368.5z" />
<glyph unicode="&#x153;" horiz-adv-x="1736" d="M49 377q0 115 44 224.5t123 194.5q174 187 423 187q204 0 322 -129q145 129 342 129t295 -68.5t98 -173t-38 -162t-100 -91.5q-110 -58 -309 -58h-215q-12 -46 -12 -151t48 -156t140 -51t167 49t141 121l55 -47q-78 -94 -142 -134q-129 -81 -282 -81q-209 0 -313 135 q-159 -135 -373 -135q-198 0 -309 112q-105 107 -105 285zM322 322q0 -250 157 -250q84 0 141.5 63.5t93.5 152.5q66 163 66 353q0 250 -157 250q-84 0 -141.5 -63.5t-93.5 -152.5q-66 -163 -66 -353zM1049 522h215q82 0 124 61.5t42 144.5t-37 123t-80 40t-82 -20.5 t-74 -64.5q-74 -93 -108 -284z" />
<glyph unicode="&#x178;" horiz-adv-x="1308" d="M59 1311l9 41h223q183 0 293 -226l204 -419l512 645h134l-598 -756l-105 -596h-266l94 541l-266 544q-37 80 -85 131q-83 87 -149 95zM602 1513q0 47 40 88t97 41q96 0 96 -97q0 -46 -39 -89t-92 -43t-77.5 26.5t-24.5 73.5zM950 1513q0 47 40 88t97 41q96 0 96 -97 q0 -46 -38.5 -89t-92 -43t-78 26.5t-24.5 73.5z" />
<glyph unicode="&#x2c6;" horiz-adv-x="675" d="M176 1352l209 256h266l119 -256h-123l-145 164l-203 -164h-123z" />
<glyph unicode="&#x2dc;" horiz-adv-x="563" d="M182 1393q23 123 69 163.5t94 40.5t71.5 -13t41.5 -28q48 -40 78.5 -40t54 25.5t27.5 55.5h82q-23 -123 -67.5 -163.5t-93 -40.5t-72 12t-42.5 27.5t-36.5 29t-45.5 13.5t-50.5 -26t-28.5 -56h-82z" />
<glyph unicode="&#x2000;" horiz-adv-x="885" />
<glyph unicode="&#x2001;" horiz-adv-x="1770" />
<glyph unicode="&#x2002;" horiz-adv-x="885" />
<glyph unicode="&#x2003;" horiz-adv-x="1770" />
<glyph unicode="&#x2004;" horiz-adv-x="590" />
<glyph unicode="&#x2005;" horiz-adv-x="442" />
<glyph unicode="&#x2006;" horiz-adv-x="295" />
<glyph unicode="&#x2007;" horiz-adv-x="295" />
<glyph unicode="&#x2008;" horiz-adv-x="221" />
<glyph unicode="&#x2009;" horiz-adv-x="354" />
<glyph unicode="&#x200a;" horiz-adv-x="98" />
<glyph unicode="&#x2010;" horiz-adv-x="813" d="M98 444l35 195h572l-35 -195h-572z" />
<glyph unicode="&#x2011;" horiz-adv-x="813" d="M98 444l35 195h572l-35 -195h-572z" />
<glyph unicode="&#x2012;" horiz-adv-x="813" d="M98 444l35 195h572l-35 -195h-572z" />
<glyph unicode="&#x2013;" horiz-adv-x="1277" d="M113 465l22 133h1012l-23 -133h-1011z" />
<glyph unicode="&#x2014;" horiz-adv-x="1830" d="M113 465l22 133h1565l-23 -133h-1564z" />
<glyph unicode="&#x2018;" horiz-adv-x="446" d="M164 992.5q0 60.5 26.5 122t69.5 114.5q77 95 213 180l29 -49q-120 -66 -182 -171q-23 -40 -31 -85l30 6q51 0 78 -25.5t27 -76.5t-39 -99.5t-102.5 -48.5t-91 36t-27.5 96.5z" />
<glyph unicode="&#x2019;" horiz-adv-x="450" d="M154 893q118 65 180 171q24 40 33 85l-31 -6q-51 0 -78 25.5t-27 76.5t39 99.5t102.5 48.5t91.5 -36t28 -96.5t-27 -122t-70 -114.5q-79 -97 -213 -180z" />
<glyph unicode="&#x201a;" horiz-adv-x="471" d="M-53 -279q114 68 180 171q25 40 33 85l-33 -6q-51 0 -77.5 26t-26.5 78t39.5 99t103 47t90.5 -35.5t27 -96.5t-26 -122t-69 -115q-76 -95 -215 -180z" />
<glyph unicode="&#x201c;" horiz-adv-x="819" d="M164 992.5q0 60.5 26.5 122t69.5 114.5q77 95 213 180l29 -49q-120 -66 -182 -171q-23 -40 -31 -85l30 6q51 0 78 -25.5t27 -76.5t-39 -99.5t-102.5 -48.5t-91 36t-27.5 96.5zM537 992.5q0 60.5 26.5 122t69.5 114.5q79 97 213 180l28 -49q-118 -65 -180 -171 q-24 -40 -32 -85l30 6q51 0 78 -25.5t27 -76.5t-39 -99.5t-102.5 -48.5t-91 36t-27.5 96.5z" />
<glyph unicode="&#x201d;" horiz-adv-x="823" d="M154 893q118 65 180 171q24 40 33 85l-31 -6q-51 0 -78 25.5t-27 76.5t39 99.5t102.5 48.5t91.5 -36t28 -96.5t-27 -122t-70 -114.5q-79 -97 -213 -180zM526 893q120 66 182 171q23 40 31 85l-30 -6q-51 0 -78 25.5t-27 76.5t39 99.5t102.5 48.5t91 -36t27.5 -96.5 t-26.5 -122t-69.5 -114.5q-77 -95 -213 -180z" />
<glyph unicode="&#x201e;" horiz-adv-x="843" d="M-53 -279q114 68 180 171q25 40 33 85l-33 -6q-51 0 -77.5 26t-26.5 78t39.5 99t103 47t90.5 -35.5t27 -96.5t-26 -122t-69 -115q-76 -95 -215 -180zM319 -279q117 69 181 171q24 40 32 85l-32 -6q-51 0 -78 26t-27 78t40 99t103 47q117 0 117 -123q0 -235 -309 -426z " />
<glyph unicode="&#x2022;" horiz-adv-x="720" d="M98 613.5q0 76.5 26 132t70 95.5q96 87 217.5 87t184.5 -57.5t63 -134t-26.5 -131t-71.5 -94.5q-98 -87 -217 -87t-182.5 56.5t-63.5 133z" />
<glyph unicode="&#x2026;" horiz-adv-x="1323" d="M23 66q0 61 39.5 108t109.5 47q104 0 104 -96q0 -59 -40.5 -106.5t-99.5 -47.5q-113 0 -113 95zM453 66q0 61 39.5 108t109.5 47q105 0 105 -96q0 -59 -41 -106.5t-100 -47.5q-113 0 -113 95zM883 66q0 61 40 108t109 47q105 0 105 -96q0 -59 -41 -106.5t-100 -47.5 q-113 0 -113 95z" />
<glyph unicode="&#x202f;" horiz-adv-x="354" />
<glyph unicode="&#x2039;" horiz-adv-x="608" d="M47 461l395 399h131l-270 -397l129 -402h-131z" />
<glyph unicode="&#x203a;" horiz-adv-x="604" d="M-4 61l268 402l-127 397h131l252 -399l-393 -400h-131z" />
<glyph unicode="&#x205f;" horiz-adv-x="442" />
<glyph unicode="&#x20ac;" horiz-adv-x="1517" d="M45 512l41 92h98q16 93 23 123h-94l41 92h82q94 251 302 411q210 163 459 163q193 0 302.5 -50.5t154.5 -115.5q23 -44 23 -110.5t-25 -201.5h-61q-4 186 -91.5 285.5t-257.5 99.5q-182 0 -306 -103q-147 -122 -220 -378h399l-41 -92h-382l-21 -123h377l-41 -92h-344v-35 q0 -300 193 -393q69 -33 188.5 -33t254 75t232.5 218l62 -55q-186 -254 -450 -311q-91 -19 -214 -19t-229.5 40t-177.5 113q-144 145 -144 390v10h-133z" />
<glyph unicode="&#x2122;" horiz-adv-x="1929" d="M201 1112l18 105q22 135 172 135h580l-13 -66h-247l-119 -678h-197l119 678h-94q-70 0 -120 -43t-67 -131h-32zM887 608l131 744h180l174 -498l311 498h195q-96 -535 -96 -607q0 -105 65 -127l-4 -24q-123 0 -187.5 44t-64.5 159q0 30 7.5 71t17.5 103.5t29 167.5 l-332 -531h-51l-199 563l-98 -563h-78z" />
<glyph unicode="&#xe000;" horiz-adv-x="962" d="M0 0v963h963v-963h-963z" />
</font>
</defs>
</svg>
